<mxfile host="65bd71144e">
    <diagram id="sOAqeJNVEnjkWvPIlF5D" name="Page-1">
        <mxGraphModel dx="1261" dy="766" grid="1" gridSize="10" guides="1" tooltips="1" connect="1" arrows="1" fold="1" page="1" pageScale="1" pageWidth="1100" pageHeight="1100" math="0" shadow="0">
            <root>
                <mxCell id="0"/>
                <mxCell id="1" parent="0"/>
                <mxCell id="16" value="" style="rounded=0;whiteSpace=wrap;html=1;" vertex="1" parent="1">
                    <mxGeometry x="20" y="150" width="580" height="510" as="geometry"/>
                </mxCell>
                <UserObject label="" mermaidData="{&#10;  &quot;data&quot;: &quot;graph TD;\n  A--&gt;B;\n  A--&gt;C;\n  B--&gt;D;\n  C--&gt;D;&quot;,&#10;  &quot;config&quot;: {&#10;    &quot;startOnLoad&quot;: false,&#10;    &quot;themeCSS&quot;: &quot;&quot;,&#10;    &quot;theme&quot;: &quot;neutral&quot;,&#10;    &quot;arrowMarkerAbsolute&quot;: false,&#10;    &quot;flowchart&quot;: {&#10;      &quot;diagramPadding&quot;: 8,&#10;      &quot;htmlLabels&quot;: false,&#10;      &quot;nodeSpacing&quot;: 50,&#10;      &quot;rankSpacing&quot;: 50,&#10;      &quot;curve&quot;: &quot;linear&quot;,&#10;      &quot;padding&quot;: 15,&#10;      &quot;useMaxWidth&quot;: true&#10;    },&#10;    &quot;sequence&quot;: {&#10;      &quot;activationWidth&quot;: 10,&#10;      &quot;diagramMarginX&quot;: 50,&#10;      &quot;diagramMarginY&quot;: 10,&#10;      &quot;actorMargin&quot;: 50,&#10;      &quot;width&quot;: 150,&#10;      &quot;height&quot;: 65,&#10;      &quot;boxMargin&quot;: 10,&#10;      &quot;boxTextMargin&quot;: 5,&#10;      &quot;noteMargin&quot;: 10,&#10;      &quot;messageMargin&quot;: 35,&#10;      &quot;messageAlign&quot;: &quot;center&quot;,&#10;      &quot;mirrorActors&quot;: true,&#10;      &quot;bottomMarginAdj&quot;: 1,&#10;      &quot;useMaxWidth&quot;: true,&#10;      &quot;rightAngles&quot;: false,&#10;      &quot;showSequenceNumbers&quot;: false,&#10;      &quot;actorFontSize&quot;: 14,&#10;      &quot;actorFontFamily&quot;: &quot;\&quot;Open-Sans\&quot;, \&quot;sans-serif\&quot;&quot;,&#10;      &quot;actorFontWeight&quot;: 400,&#10;      &quot;noteFontSize&quot;: 14,&#10;      &quot;noteFontFamily&quot;: &quot;\&quot;trebuchet ms\&quot;, verdana, arial&quot;,&#10;      &quot;noteFontWeight&quot;: 400,&#10;      &quot;noteAlign&quot;: &quot;center&quot;,&#10;      &quot;messageFontSize&quot;: 16,&#10;      &quot;messageFontFamily&quot;: &quot;\&quot;trebuchet ms\&quot;, verdana, arial&quot;,&#10;      &quot;messageFontWeight&quot;: 400,&#10;      &quot;wrap&quot;: false,&#10;      &quot;wrapPadding&quot;: 10,&#10;      &quot;labelBoxWidth&quot;: 50,&#10;      &quot;labelBoxHeight&quot;: 20&#10;    },&#10;    &quot;gantt&quot;: {&#10;      &quot;titleTopMargin&quot;: 25,&#10;      &quot;barHeight&quot;: 20,&#10;      &quot;barGap&quot;: 4,&#10;      &quot;topPadding&quot;: 50,&#10;      &quot;leftPadding&quot;: 75,&#10;      &quot;gridLineStartPadding&quot;: 35,&#10;      &quot;fontSize&quot;: 11,&#10;      &quot;fontFamily&quot;: &quot;\&quot;Open-Sans\&quot;, \&quot;sans-serif\&quot;&quot;,&#10;      &quot;numberSectionStyles&quot;: 4,&#10;      &quot;axisFormat&quot;: &quot;%Y-%m-%d&quot;,&#10;      &quot;useMaxWidth&quot;: true&#10;    },&#10;    &quot;journey&quot;: {&#10;      &quot;diagramMarginX&quot;: 50,&#10;      &quot;diagramMarginY&quot;: 10,&#10;      &quot;actorMargin&quot;: 50,&#10;      &quot;width&quot;: 150,&#10;      &quot;height&quot;: 65,&#10;      &quot;boxMargin&quot;: 10,&#10;      &quot;boxTextMargin&quot;: 5,&#10;      &quot;noteMargin&quot;: 10,&#10;      &quot;messageMargin&quot;: 35,&#10;      &quot;messageAlign&quot;: &quot;center&quot;,&#10;      &quot;bottomMarginAdj&quot;: 1,&#10;      &quot;useMaxWidth&quot;: true,&#10;      &quot;rightAngles&quot;: false&#10;    },&#10;    &quot;class&quot;: {&#10;      &quot;arrowMarkerAbsolute&quot;: false,&#10;      &quot;useMaxWidth&quot;: true&#10;    },&#10;    &quot;git&quot;: {&#10;      &quot;arrowMarkerAbsolute&quot;: false,&#10;      &quot;useMaxWidth&quot;: true&#10;    },&#10;    &quot;state&quot;: {&#10;      &quot;dividerMargin&quot;: 10,&#10;      &quot;sizeUnit&quot;: 5,&#10;      &quot;padding&quot;: 8,&#10;      &quot;textHeight&quot;: 10,&#10;      &quot;titleShift&quot;: -15,&#10;      &quot;noteMargin&quot;: 10,&#10;      &quot;forkWidth&quot;: 70,&#10;      &quot;forkHeight&quot;: 7,&#10;      &quot;miniPadding&quot;: 2,&#10;      &quot;fontSizeFactor&quot;: 5.02,&#10;      &quot;fontSize&quot;: 24,&#10;      &quot;labelHeight&quot;: 16,&#10;      &quot;edgeLengthFactor&quot;: &quot;20&quot;,&#10;      &quot;compositTitleSize&quot;: 35,&#10;      &quot;radius&quot;: 5&#10;    },&#10;    &quot;er&quot;: {&#10;      &quot;diagramPadding&quot;: 20,&#10;      &quot;layoutDirection&quot;: &quot;TB&quot;,&#10;      &quot;minEntityWidth&quot;: 100,&#10;      &quot;minEntityHeight&quot;: 75,&#10;      &quot;entityPadding&quot;: 15,&#10;      &quot;stroke&quot;: &quot;grey&quot;,&#10;      &quot;fill&quot;: &quot;honeydew&quot;,&#10;      &quot;fontSize&quot;: 12,&#10;      &quot;useMaxWidth&quot;: true&#10;    },&#10;    &quot;pie&quot;: {&#10;      &quot;useMaxWidth&quot;: true&#10;    }&#10;  }&#10;}" id="2">
                    <mxCell style="shape=image;noLabel=1;verticalAlign=top;imageAspect=1;image=data:image/svg+xml,PHN2ZyB2aWV3Qm94PSIwIDAgMTI0LjYyNSAyMzEuNSIgc3R5bGU9Im1heC13aWR0aDogMTI0LjYyNXB4OyIgaGVpZ2h0PSIyMzEuNSIgYXJpYS1sYWJlbGxlZGJ5PSJjaGFydC10aXRsZS1nZU1lcm1haWRPdXRwdXQtMTczNDYyOTAyMzk3MiBjaGFydC1kZXNjLWdlTWVybWFpZE91dHB1dC0xNzM0NjI5MDIzOTcyIiByb2xlPSJpbWciIHhtbG5zOnhsaW5rPSJodHRwOi8vd3d3LnczLm9yZy8xOTk5L3hsaW5rIiB4bWxucz0iaHR0cDovL3d3dy53My5vcmcvMjAwMC9zdmciIHdpZHRoPSIxMDAlIiBpZD0iZ2VNZXJtYWlkT3V0cHV0LTE3MzQ2MjkwMjM5NzIiPjx0aXRsZSBpZD0iY2hhcnQtdGl0bGUtZ2VNZXJtYWlkT3V0cHV0LTE3MzQ2MjkwMjM5NzIiPjwvdGl0bGU+PGRlc2MgaWQ9ImNoYXJ0LWRlc2MtZ2VNZXJtYWlkT3V0cHV0LTE3MzQ2MjkwMjM5NzIiPjwvZGVzYz48c3R5bGU+I2dlTWVybWFpZE91dHB1dC0xNzM0NjI5MDIzOTcyIHtmb250LWZhbWlseToidHJlYnVjaGV0IG1zIix2ZXJkYW5hLGFyaWFsLHNhbnMtc2VyaWY7Zm9udC1zaXplOjE2cHg7ZmlsbDojMDAwMDAwO30jZ2VNZXJtYWlkT3V0cHV0LTE3MzQ2MjkwMjM5NzIgLmVycm9yLWljb257ZmlsbDojNTUyMjIyO30jZ2VNZXJtYWlkT3V0cHV0LTE3MzQ2MjkwMjM5NzIgLmVycm9yLXRleHR7ZmlsbDojNTUyMjIyO3N0cm9rZTojNTUyMjIyO30jZ2VNZXJtYWlkT3V0cHV0LTE3MzQ2MjkwMjM5NzIgLmVkZ2UtdGhpY2tuZXNzLW5vcm1hbHtzdHJva2Utd2lkdGg6MnB4O30jZ2VNZXJtYWlkT3V0cHV0LTE3MzQ2MjkwMjM5NzIgLmVkZ2UtdGhpY2tuZXNzLXRoaWNre3N0cm9rZS13aWR0aDozLjVweDt9I2dlTWVybWFpZE91dHB1dC0xNzM0NjI5MDIzOTcyIC5lZGdlLXBhdHRlcm4tc29saWR7c3Ryb2tlLWRhc2hhcnJheTowO30jZ2VNZXJtYWlkT3V0cHV0LTE3MzQ2MjkwMjM5NzIgLmVkZ2UtcGF0dGVybi1kYXNoZWR7c3Ryb2tlLWRhc2hhcnJheTozO30jZ2VNZXJtYWlkT3V0cHV0LTE3MzQ2MjkwMjM5NzIgLmVkZ2UtcGF0dGVybi1kb3R0ZWR7c3Ryb2tlLWRhc2hhcnJheToyO30jZ2VNZXJtYWlkT3V0cHV0LTE3MzQ2MjkwMjM5NzIgLm1hcmtlcntmaWxsOiM2NjY7c3Ryb2tlOiM2NjY7fSNnZU1lcm1haWRPdXRwdXQtMTczNDYyOTAyMzk3MiAubWFya2VyLmNyb3Nze3N0cm9rZTojNjY2O30jZ2VNZXJtYWlkT3V0cHV0LTE3MzQ2MjkwMjM5NzIgc3Zne2ZvbnQtZmFtaWx5OiJ0cmVidWNoZXQgbXMiLHZlcmRhbmEsYXJpYWwsc2Fucy1zZXJpZjtmb250LXNpemU6MTZweDt9I2dlTWVybWFpZE91dHB1dC0xNzM0NjI5MDIzOTcyIC5sYWJlbHtmb250LWZhbWlseToidHJlYnVjaGV0IG1zIix2ZXJkYW5hLGFyaWFsLHNhbnMtc2VyaWY7Y29sb3I6IzAwMDAwMDt9I2dlTWVybWFpZE91dHB1dC0xNzM0NjI5MDIzOTcyIC5jbHVzdGVyLWxhYmVsIHRleHR7ZmlsbDojMzMzO30jZ2VNZXJtYWlkT3V0cHV0LTE3MzQ2MjkwMjM5NzIgLmNsdXN0ZXItbGFiZWwgc3Bhbntjb2xvcjojMzMzO30jZ2VNZXJtYWlkT3V0cHV0LTE3MzQ2MjkwMjM5NzIgLmxhYmVsIHRleHQsI2dlTWVybWFpZE91dHB1dC0xNzM0NjI5MDIzOTcyIHNwYW57ZmlsbDojMDAwMDAwO2NvbG9yOiMwMDAwMDA7fSNnZU1lcm1haWRPdXRwdXQtMTczNDYyOTAyMzk3MiAubm9kZSByZWN0LCNnZU1lcm1haWRPdXRwdXQtMTczNDYyOTAyMzk3MiAubm9kZSBjaXJjbGUsI2dlTWVybWFpZE91dHB1dC0xNzM0NjI5MDIzOTcyIC5ub2RlIGVsbGlwc2UsI2dlTWVybWFpZE91dHB1dC0xNzM0NjI5MDIzOTcyIC5ub2RlIHBvbHlnb24sI2dlTWVybWFpZE91dHB1dC0xNzM0NjI5MDIzOTcyIC5ub2RlIHBhdGh7ZmlsbDojZWVlO3N0cm9rZTojOTk5O3N0cm9rZS13aWR0aDoxcHg7fSNnZU1lcm1haWRPdXRwdXQtMTczNDYyOTAyMzk3MiAubm9kZSAubGFiZWx7dGV4dC1hbGlnbjpjZW50ZXI7fSNnZU1lcm1haWRPdXRwdXQtMTczNDYyOTAyMzk3MiAubm9kZS5jbGlja2FibGV7Y3Vyc29yOnBvaW50ZXI7fSNnZU1lcm1haWRPdXRwdXQtMTczNDYyOTAyMzk3MiAuYXJyb3doZWFkUGF0aHtmaWxsOiMzMzMzMzM7fSNnZU1lcm1haWRPdXRwdXQtMTczNDYyOTAyMzk3MiAuZWRnZVBhdGggLnBhdGh7c3Ryb2tlOiM2NjY7c3Ryb2tlLXdpZHRoOjIuMHB4O30jZ2VNZXJtYWlkT3V0cHV0LTE3MzQ2MjkwMjM5NzIgLmZsb3djaGFydC1saW5re3N0cm9rZTojNjY2O2ZpbGw6bm9uZTt9I2dlTWVybWFpZE91dHB1dC0xNzM0NjI5MDIzOTcyIC5lZGdlTGFiZWx7YmFja2dyb3VuZC1jb2xvcjp3aGl0ZTt0ZXh0LWFsaWduOmNlbnRlcjt9I2dlTWVybWFpZE91dHB1dC0xNzM0NjI5MDIzOTcyIC5lZGdlTGFiZWwgcmVjdHtvcGFjaXR5OjAuNTtiYWNrZ3JvdW5kLWNvbG9yOndoaXRlO2ZpbGw6d2hpdGU7fSNnZU1lcm1haWRPdXRwdXQtMTczNDYyOTAyMzk3MiAuY2x1c3RlciByZWN0e2ZpbGw6aHNsKDAsIDAlLCA5OC45MjE1Njg2Mjc1JSk7c3Ryb2tlOiM3MDcwNzA7c3Ryb2tlLXdpZHRoOjFweDt9I2dlTWVybWFpZE91dHB1dC0xNzM0NjI5MDIzOTcyIC5jbHVzdGVyIHRleHR7ZmlsbDojMzMzO30jZ2VNZXJtYWlkT3V0cHV0LTE3MzQ2MjkwMjM5NzIgLmNsdXN0ZXIgc3Bhbntjb2xvcjojMzMzO30jZ2VNZXJtYWlkT3V0cHV0LTE3MzQ2MjkwMjM5NzIgZGl2Lm1lcm1haWRUb29sdGlwe3Bvc2l0aW9uOmFic29sdXRlO3RleHQtYWxpZ246Y2VudGVyO21heC13aWR0aDoyMDBweDtwYWRkaW5nOjJweDtmb250LWZhbWlseToidHJlYnVjaGV0IG1zIix2ZXJkYW5hLGFyaWFsLHNhbnMtc2VyaWY7Zm9udC1zaXplOjEycHg7YmFja2dyb3VuZDpoc2woLTE2MCwgMCUsIDkzLjMzMzMzMzMzMzMlKTtib3JkZXI6MXB4IHNvbGlkICM3MDcwNzA7Ym9yZGVyLXJhZGl1czoycHg7cG9pbnRlci1ldmVudHM6bm9uZTt6LWluZGV4OjEwMDt9I2dlTWVybWFpZE91dHB1dC0xNzM0NjI5MDIzOTcyIDpyb290ey0tbWVybWFpZC1mb250LWZhbWlseToidHJlYnVjaGV0IG1zIix2ZXJkYW5hLGFyaWFsLHNhbnMtc2VyaWY7fTwvc3R5bGU+PGcgdHJhbnNmb3JtPSJ0cmFuc2xhdGUoMCwgMCkiPjxnIGNsYXNzPSJvdXRwdXQiPjxnIGNsYXNzPSJjbHVzdGVycyI+PC9nPjxnIGNsYXNzPSJlZGdlUGF0aHMiPjxnIHN0eWxlPSJvcGFjaXR5OiAxOyIgaWQ9IkwtQS1CIiBjbGFzcz0iZWRnZVBhdGggTFMtQSBMRS1CIj48cGF0aCBzdHlsZT0iZmlsbDpub25lIiBtYXJrZXItZW5kPSJ1cmwoI2Fycm93aGVhZDE0KSIgZD0iTTQ3LjQ2NDg0Mzc1LDQzLjY3Mzc1ODg2NTI0ODIzTDIyLjUyNzM0Mzc1LDcxLjVMMjIuNTI3MzQzNzUsOTYuNSIgY2xhc3M9InBhdGgiPjwvcGF0aD48ZGVmcz48bWFya2VyIG9yaWVudD0iYXV0byIgbWFya2VySGVpZ2h0PSI2IiBtYXJrZXJXaWR0aD0iOCIgbWFya2VyVW5pdHM9InN0cm9rZVdpZHRoIiByZWZZPSI1IiByZWZYPSI5IiB2aWV3Qm94PSIwIDAgMTAgMTAiIGlkPSJhcnJvd2hlYWQxNCI+PHBhdGggc3R5bGU9InN0cm9rZS13aWR0aDogMTsgc3Ryb2tlLWRhc2hhcnJheTogMSwgMDsiIGNsYXNzPSJhcnJvd2hlYWRQYXRoIiBkPSJNIDAgMCBMIDEwIDUgTCAwIDEwIHoiPjwvcGF0aD48L21hcmtlcj48L2RlZnM+PC9nPjxnIHN0eWxlPSJvcGFjaXR5OiAxOyIgaWQ9IkwtQS1DIiBjbGFzcz0iZWRnZVBhdGggTFMtQSBMRS1DIj48cGF0aCBzdHlsZT0iZmlsbDpub25lIiBtYXJrZXItZW5kPSJ1cmwoI2Fycm93aGVhZDE1KSIgZD0iTTc2LjkwMjM0Mzc1LDQzLjY3Mzc1ODg2NTI0ODIzTDEwMS44Mzk4NDM3NSw3MS41TDEwMS44Mzk4NDM3NSw5Ni41IiBjbGFzcz0icGF0aCI+PC9wYXRoPjxkZWZzPjxtYXJrZXIgb3JpZW50PSJhdXRvIiBtYXJrZXJIZWlnaHQ9IjYiIG1hcmtlcldpZHRoPSI4IiBtYXJrZXJVbml0cz0ic3Ryb2tlV2lkdGgiIHJlZlk9IjUiIHJlZlg9IjkiIHZpZXdCb3g9IjAgMCAxMCAxMCIgaWQ9ImFycm93aGVhZDE1Ij48cGF0aCBzdHlsZT0ic3Ryb2tlLXdpZHRoOiAxOyBzdHJva2UtZGFzaGFycmF5OiAxLCAwOyIgY2xhc3M9ImFycm93aGVhZFBhdGgiIGQ9Ik0gMCAwIEwgMTAgNSBMIDAgMTAgeiI+PC9wYXRoPjwvbWFya2VyPjwvZGVmcz48L2c+PGcgc3R5bGU9Im9wYWNpdHk6IDE7IiBpZD0iTC1CLUQiIGNsYXNzPSJlZGdlUGF0aCBMUy1CIExFLUQiPjxwYXRoIHN0eWxlPSJmaWxsOm5vbmUiIG1hcmtlci1lbmQ9InVybCgjYXJyb3doZWFkMTYpIiBkPSJNMjIuNTI3MzQzNzUsMTM1TDIyLjUyNzM0Mzc1LDE2MEw0Ny4yNzczNDM3NSwxODcuNjE3MDIxMjc2NTk1NzUiIGNsYXNzPSJwYXRoIj48L3BhdGg+PGRlZnM+PG1hcmtlciBvcmllbnQ9ImF1dG8iIG1hcmtlckhlaWdodD0iNiIgbWFya2VyV2lkdGg9IjgiIG1hcmtlclVuaXRzPSJzdHJva2VXaWR0aCIgcmVmWT0iNSIgcmVmWD0iOSIgdmlld0JveD0iMCAwIDEwIDEwIiBpZD0iYXJyb3doZWFkMTYiPjxwYXRoIHN0eWxlPSJzdHJva2Utd2lkdGg6IDE7IHN0cm9rZS1kYXNoYXJyYXk6IDEsIDA7IiBjbGFzcz0iYXJyb3doZWFkUGF0aCIgZD0iTSAwIDAgTCAxMCA1IEwgMCAxMCB6Ij48L3BhdGg+PC9tYXJrZXI+PC9kZWZzPjwvZz48ZyBzdHlsZT0ib3BhY2l0eTogMTsiIGlkPSJMLUMtRCIgY2xhc3M9ImVkZ2VQYXRoIExTLUMgTEUtRCI+PHBhdGggc3R5bGU9ImZpbGw6bm9uZSIgbWFya2VyLWVuZD0idXJsKCNhcnJvd2hlYWQxNykiIGQ9Ik0xMDEuODM5ODQzNzUsMTM1TDEwMS44Mzk4NDM3NSwxNjBMNzcuMDg5ODQzNzUsMTg3LjYxNzAyMTI3NjU5NTc1IiBjbGFzcz0icGF0aCI+PC9wYXRoPjxkZWZzPjxtYXJrZXIgb3JpZW50PSJhdXRvIiBtYXJrZXJIZWlnaHQ9IjYiIG1hcmtlcldpZHRoPSI4IiBtYXJrZXJVbml0cz0ic3Ryb2tlV2lkdGgiIHJlZlk9IjUiIHJlZlg9IjkiIHZpZXdCb3g9IjAgMCAxMCAxMCIgaWQ9ImFycm93aGVhZDE3Ij48cGF0aCBzdHlsZT0ic3Ryb2tlLXdpZHRoOiAxOyBzdHJva2UtZGFzaGFycmF5OiAxLCAwOyIgY2xhc3M9ImFycm93aGVhZFBhdGgiIGQ9Ik0gMCAwIEwgMTAgNSBMIDAgMTAgeiI+PC9wYXRoPjwvbWFya2VyPjwvZGVmcz48L2c+PC9nPjxnIGNsYXNzPSJlZGdlTGFiZWxzIj48ZyBzdHlsZT0ib3BhY2l0eTogMTsiIHRyYW5zZm9ybT0iIiBjbGFzcz0iZWRnZUxhYmVsIj48ZyBjbGFzcz0ibGFiZWwiIHRyYW5zZm9ybT0idHJhbnNsYXRlKDAsMCkiPjxyZWN0IGhlaWdodD0iMCIgd2lkdGg9IjAiIHJ5PSIwIiByeD0iMCI+PC9yZWN0Pjx0ZXh0Pjx0c3BhbiB4PSIxIiBkeT0iMWVtIiB4bWw6c3BhY2U9InByZXNlcnZlIj48L3RzcGFuPjwvdGV4dD48L2c+PC9nPjxnIHN0eWxlPSJvcGFjaXR5OiAxOyIgdHJhbnNmb3JtPSIiIGNsYXNzPSJlZGdlTGFiZWwiPjxnIGNsYXNzPSJsYWJlbCIgdHJhbnNmb3JtPSJ0cmFuc2xhdGUoMCwwKSI+PHJlY3QgaGVpZ2h0PSIwIiB3aWR0aD0iMCIgcnk9IjAiIHJ4PSIwIj48L3JlY3Q+PHRleHQ+PHRzcGFuIHg9IjEiIGR5PSIxZW0iIHhtbDpzcGFjZT0icHJlc2VydmUiPjwvdHNwYW4+PC90ZXh0PjwvZz48L2c+PGcgc3R5bGU9Im9wYWNpdHk6IDE7IiB0cmFuc2Zvcm09IiIgY2xhc3M9ImVkZ2VMYWJlbCI+PGcgY2xhc3M9ImxhYmVsIiB0cmFuc2Zvcm09InRyYW5zbGF0ZSgwLDApIj48cmVjdCBoZWlnaHQ9IjAiIHdpZHRoPSIwIiByeT0iMCIgcng9IjAiPjwvcmVjdD48dGV4dD48dHNwYW4geD0iMSIgZHk9IjFlbSIgeG1sOnNwYWNlPSJwcmVzZXJ2ZSI+PC90c3Bhbj48L3RleHQ+PC9nPjwvZz48ZyBzdHlsZT0ib3BhY2l0eTogMTsiIHRyYW5zZm9ybT0iIiBjbGFzcz0iZWRnZUxhYmVsIj48ZyBjbGFzcz0ibGFiZWwiIHRyYW5zZm9ybT0idHJhbnNsYXRlKDAsMCkiPjxyZWN0IGhlaWdodD0iMCIgd2lkdGg9IjAiIHJ5PSIwIiByeD0iMCI+PC9yZWN0Pjx0ZXh0Pjx0c3BhbiB4PSIxIiBkeT0iMWVtIiB4bWw6c3BhY2U9InByZXNlcnZlIj48L3RzcGFuPjwvdGV4dD48L2c+PC9nPjwvZz48ZyBjbGFzcz0ibm9kZXMiPjxnIHN0eWxlPSJvcGFjaXR5OiAxOyIgdHJhbnNmb3JtPSJ0cmFuc2xhdGUoNjIuMTgzNTkzNzUsMjcuMjUpIiBpZD0iZmxvd2NoYXJ0LUEtOCIgY2xhc3M9Im5vZGUgZGVmYXVsdCI+PHJlY3QgY2xhc3M9ImxhYmVsLWNvbnRhaW5lciIgaGVpZ2h0PSIzOC41IiB3aWR0aD0iMjkuNDM3NSIgeT0iLTE5LjI1IiB4PSItMTQuNzE4NzUiIHJ5PSIwIiByeD0iMCI+PC9yZWN0PjxnIHRyYW5zZm9ybT0idHJhbnNsYXRlKDAsMCkiIGNsYXNzPSJsYWJlbCI+PGcgdHJhbnNmb3JtPSJ0cmFuc2xhdGUoLTQuNzE4NzUsLTkuMjUpIj48dGV4dCBzdHlsZT0iIj48dHNwYW4geD0iMSIgZHk9IjFlbSIgeG1sOnNwYWNlPSJwcmVzZXJ2ZSI+QTwvdHNwYW4+PC90ZXh0PjwvZz48L2c+PC9nPjxnIHN0eWxlPSJvcGFjaXR5OiAxOyIgdHJhbnNmb3JtPSJ0cmFuc2xhdGUoMjIuNTI3MzQzNzUsMTE1Ljc1KSIgaWQ9ImZsb3djaGFydC1CLTkiIGNsYXNzPSJub2RlIGRlZmF1bHQiPjxyZWN0IGNsYXNzPSJsYWJlbC1jb250YWluZXIiIGhlaWdodD0iMzguNSIgd2lkdGg9IjI5LjA1NDY4NzUiIHk9Ii0xOS4yNSIgeD0iLTE0LjUyNzM0Mzc1IiByeT0iMCIgcng9IjAiPjwvcmVjdD48ZyB0cmFuc2Zvcm09InRyYW5zbGF0ZSgwLDApIiBjbGFzcz0ibGFiZWwiPjxnIHRyYW5zZm9ybT0idHJhbnNsYXRlKC00LjUyNzM0Mzc1LC05LjI1KSI+PHRleHQgc3R5bGU9IiI+PHRzcGFuIHg9IjEiIGR5PSIxZW0iIHhtbDpzcGFjZT0icHJlc2VydmUiPkI8L3RzcGFuPjwvdGV4dD48L2c+PC9nPjwvZz48ZyBzdHlsZT0ib3BhY2l0eTogMTsiIHRyYW5zZm9ybT0idHJhbnNsYXRlKDEwMS44Mzk4NDM3NSwxMTUuNzUpIiBpZD0iZmxvd2NoYXJ0LUMtMTEiIGNsYXNzPSJub2RlIGRlZmF1bHQiPjxyZWN0IGNsYXNzPSJsYWJlbC1jb250YWluZXIiIGhlaWdodD0iMzguNSIgd2lkdGg9IjI5LjU3MDMxMjUiIHk9Ii0xOS4yNSIgeD0iLTE0Ljc4NTE1NjI1IiByeT0iMCIgcng9IjAiPjwvcmVjdD48ZyB0cmFuc2Zvcm09InRyYW5zbGF0ZSgwLDApIiBjbGFzcz0ibGFiZWwiPjxnIHRyYW5zZm9ybT0idHJhbnNsYXRlKC00Ljc4NTE1NjI1LC05LjI1KSI+PHRleHQgc3R5bGU9IiI+PHRzcGFuIHg9IjEiIGR5PSIxZW0iIHhtbDpzcGFjZT0icHJlc2VydmUiPkM8L3RzcGFuPjwvdGV4dD48L2c+PC9nPjwvZz48ZyBzdHlsZT0ib3BhY2l0eTogMTsiIHRyYW5zZm9ybT0idHJhbnNsYXRlKDYyLjE4MzU5Mzc1LDIwNC4yNSkiIGlkPSJmbG93Y2hhcnQtRC0xMyIgY2xhc3M9Im5vZGUgZGVmYXVsdCI+PHJlY3QgY2xhc3M9ImxhYmVsLWNvbnRhaW5lciIgaGVpZ2h0PSIzOC41IiB3aWR0aD0iMjkuODEyNSIgeT0iLTE5LjI1IiB4PSItMTQuOTA2MjUiIHJ5PSIwIiByeD0iMCI+PC9yZWN0PjxnIHRyYW5zZm9ybT0idHJhbnNsYXRlKDAsMCkiIGNsYXNzPSJsYWJlbCI+PGcgdHJhbnNmb3JtPSJ0cmFuc2xhdGUoLTQuOTA2MjUsLTkuMjUpIj48dGV4dCBzdHlsZT0iIj48dHNwYW4geD0iMSIgZHk9IjFlbSIgeG1sOnNwYWNlPSJwcmVzZXJ2ZSI+RDwvdHNwYW4+PC90ZXh0PjwvZz48L2c+PC9nPjwvZz48L2c+PC9nPjwvc3ZnPg==;" parent="1" vertex="1">
                        <mxGeometry x="40" y="190" width="60" height="71.5" as="geometry"/>
                    </mxCell>
                </UserObject>
                <mxCell id="10" value="https://www.drawio.com/blog/mermaid-diagrams" style="text;html=1;align=center;verticalAlign=middle;resizable=0;points=[];autosize=1;strokeColor=none;fillColor=none;" parent="1" vertex="1">
                    <mxGeometry x="260" y="190" width="280" height="30" as="geometry"/>
                </mxCell>
                <UserObject label="" mermaidData="{&#10;  &quot;data&quot;: &quot;graph TD\n   A(Coffee machine &lt;br&gt;not working) --&gt; B{Machine has power?}\n   B --&gt;|No| H(Plug in and turn on)\n   B --&gt;|Yes| C{Out of beans or water?} --&gt;|Yes| G(Refill beans and water)\n   C --&gt;|No| D{Filter warning?} --&gt;|Yes| I(Replace or clean filter)\n   D --&gt;|No| F(Send for repair)&quot;,&#10;  &quot;config&quot;: {&#10;    &quot;startOnLoad&quot;: false,&#10;    &quot;themeCSS&quot;: &quot;&quot;,&#10;    &quot;theme&quot;: &quot;neutral&quot;,&#10;    &quot;arrowMarkerAbsolute&quot;: false,&#10;    &quot;flowchart&quot;: {&#10;      &quot;diagramPadding&quot;: 8,&#10;      &quot;htmlLabels&quot;: false,&#10;      &quot;nodeSpacing&quot;: 50,&#10;      &quot;rankSpacing&quot;: 50,&#10;      &quot;curve&quot;: &quot;linear&quot;,&#10;      &quot;padding&quot;: 15,&#10;      &quot;useMaxWidth&quot;: true&#10;    },&#10;    &quot;sequence&quot;: {&#10;      &quot;activationWidth&quot;: 10,&#10;      &quot;diagramMarginX&quot;: 50,&#10;      &quot;diagramMarginY&quot;: 10,&#10;      &quot;actorMargin&quot;: 50,&#10;      &quot;width&quot;: 150,&#10;      &quot;height&quot;: 65,&#10;      &quot;boxMargin&quot;: 10,&#10;      &quot;boxTextMargin&quot;: 5,&#10;      &quot;noteMargin&quot;: 10,&#10;      &quot;messageMargin&quot;: 35,&#10;      &quot;messageAlign&quot;: &quot;center&quot;,&#10;      &quot;mirrorActors&quot;: true,&#10;      &quot;bottomMarginAdj&quot;: 1,&#10;      &quot;useMaxWidth&quot;: true,&#10;      &quot;rightAngles&quot;: false,&#10;      &quot;showSequenceNumbers&quot;: false,&#10;      &quot;actorFontSize&quot;: 14,&#10;      &quot;actorFontFamily&quot;: &quot;\&quot;Open-Sans\&quot;, \&quot;sans-serif\&quot;&quot;,&#10;      &quot;actorFontWeight&quot;: 400,&#10;      &quot;noteFontSize&quot;: 14,&#10;      &quot;noteFontFamily&quot;: &quot;\&quot;trebuchet ms\&quot;, verdana, arial&quot;,&#10;      &quot;noteFontWeight&quot;: 400,&#10;      &quot;noteAlign&quot;: &quot;center&quot;,&#10;      &quot;messageFontSize&quot;: 16,&#10;      &quot;messageFontFamily&quot;: &quot;\&quot;trebuchet ms\&quot;, verdana, arial&quot;,&#10;      &quot;messageFontWeight&quot;: 400,&#10;      &quot;wrap&quot;: false,&#10;      &quot;wrapPadding&quot;: 10,&#10;      &quot;labelBoxWidth&quot;: 50,&#10;      &quot;labelBoxHeight&quot;: 20&#10;    },&#10;    &quot;gantt&quot;: {&#10;      &quot;titleTopMargin&quot;: 25,&#10;      &quot;barHeight&quot;: 20,&#10;      &quot;barGap&quot;: 4,&#10;      &quot;topPadding&quot;: 50,&#10;      &quot;leftPadding&quot;: 75,&#10;      &quot;gridLineStartPadding&quot;: 35,&#10;      &quot;fontSize&quot;: 11,&#10;      &quot;fontFamily&quot;: &quot;\&quot;Open-Sans\&quot;, \&quot;sans-serif\&quot;&quot;,&#10;      &quot;numberSectionStyles&quot;: 4,&#10;      &quot;axisFormat&quot;: &quot;%Y-%m-%d&quot;,&#10;      &quot;useMaxWidth&quot;: true&#10;    },&#10;    &quot;journey&quot;: {&#10;      &quot;diagramMarginX&quot;: 50,&#10;      &quot;diagramMarginY&quot;: 10,&#10;      &quot;actorMargin&quot;: 50,&#10;      &quot;width&quot;: 150,&#10;      &quot;height&quot;: 65,&#10;      &quot;boxMargin&quot;: 10,&#10;      &quot;boxTextMargin&quot;: 5,&#10;      &quot;noteMargin&quot;: 10,&#10;      &quot;messageMargin&quot;: 35,&#10;      &quot;messageAlign&quot;: &quot;center&quot;,&#10;      &quot;bottomMarginAdj&quot;: 1,&#10;      &quot;useMaxWidth&quot;: true,&#10;      &quot;rightAngles&quot;: false&#10;    },&#10;    &quot;class&quot;: {&#10;      &quot;arrowMarkerAbsolute&quot;: false,&#10;      &quot;useMaxWidth&quot;: true&#10;    },&#10;    &quot;git&quot;: {&#10;      &quot;arrowMarkerAbsolute&quot;: false,&#10;      &quot;useMaxWidth&quot;: true&#10;    },&#10;    &quot;state&quot;: {&#10;      &quot;dividerMargin&quot;: 10,&#10;      &quot;sizeUnit&quot;: 5,&#10;      &quot;padding&quot;: 8,&#10;      &quot;textHeight&quot;: 10,&#10;      &quot;titleShift&quot;: -15,&#10;      &quot;noteMargin&quot;: 10,&#10;      &quot;forkWidth&quot;: 70,&#10;      &quot;forkHeight&quot;: 7,&#10;      &quot;miniPadding&quot;: 2,&#10;      &quot;fontSizeFactor&quot;: 5.02,&#10;      &quot;fontSize&quot;: 24,&#10;      &quot;labelHeight&quot;: 16,&#10;      &quot;edgeLengthFactor&quot;: &quot;20&quot;,&#10;      &quot;compositTitleSize&quot;: 35,&#10;      &quot;radius&quot;: 5&#10;    },&#10;    &quot;er&quot;: {&#10;      &quot;diagramPadding&quot;: 20,&#10;      &quot;layoutDirection&quot;: &quot;TB&quot;,&#10;      &quot;minEntityWidth&quot;: 100,&#10;      &quot;minEntityHeight&quot;: 75,&#10;      &quot;entityPadding&quot;: 15,&#10;      &quot;stroke&quot;: &quot;grey&quot;,&#10;      &quot;fill&quot;: &quot;honeydew&quot;,&#10;      &quot;fontSize&quot;: 12,&#10;      &quot;useMaxWidth&quot;: true&#10;    },&#10;    &quot;pie&quot;: {&#10;      &quot;useMaxWidth&quot;: true&#10;    }&#10;  }&#10;}" id="11">
                    <mxCell style="shape=image;noLabel=1;verticalAlign=top;imageAspect=1;image=data:image/svg+xml,PHN2ZyB2aWV3Qm94PSIwIDAgNTk1LjE0NzQ2NDc1MjE5NzMgODkyLjcyMjY3MTUwODc4OTEiIHN0eWxlPSJtYXgtd2lkdGg6IDU5NS4xNDc0NjQ3NTIxOTczcHg7IiBoZWlnaHQ9Ijg5Mi43MjI2NzE1MDg3ODkxIiBhcmlhLWxhYmVsbGVkYnk9ImNoYXJ0LXRpdGxlLWdlTWVybWFpZE91dHB1dC0xNzM0NjI5MTk1Mzc3IGNoYXJ0LWRlc2MtZ2VNZXJtYWlkT3V0cHV0LTE3MzQ2MjkxOTUzNzciIHJvbGU9ImltZyIgeG1sbnM6eGxpbms9Imh0dHA6Ly93d3cudzMub3JnLzE5OTkveGxpbmsiIHhtbG5zPSJodHRwOi8vd3d3LnczLm9yZy8yMDAwL3N2ZyIgd2lkdGg9IjEwMCUiIGlkPSJnZU1lcm1haWRPdXRwdXQtMTczNDYyOTE5NTM3NyI+PHRpdGxlIGlkPSJjaGFydC10aXRsZS1nZU1lcm1haWRPdXRwdXQtMTczNDYyOTE5NTM3NyI+PC90aXRsZT48ZGVzYyBpZD0iY2hhcnQtZGVzYy1nZU1lcm1haWRPdXRwdXQtMTczNDYyOTE5NTM3NyI+PC9kZXNjPjxzdHlsZT4jZ2VNZXJtYWlkT3V0cHV0LTE3MzQ2MjkxOTUzNzcge2ZvbnQtZmFtaWx5OiJ0cmVidWNoZXQgbXMiLHZlcmRhbmEsYXJpYWwsc2Fucy1zZXJpZjtmb250LXNpemU6MTZweDtmaWxsOiMwMDAwMDA7fSNnZU1lcm1haWRPdXRwdXQtMTczNDYyOTE5NTM3NyAuZXJyb3ItaWNvbntmaWxsOiM1NTIyMjI7fSNnZU1lcm1haWRPdXRwdXQtMTczNDYyOTE5NTM3NyAuZXJyb3ItdGV4dHtmaWxsOiM1NTIyMjI7c3Ryb2tlOiM1NTIyMjI7fSNnZU1lcm1haWRPdXRwdXQtMTczNDYyOTE5NTM3NyAuZWRnZS10aGlja25lc3Mtbm9ybWFse3N0cm9rZS13aWR0aDoycHg7fSNnZU1lcm1haWRPdXRwdXQtMTczNDYyOTE5NTM3NyAuZWRnZS10aGlja25lc3MtdGhpY2t7c3Ryb2tlLXdpZHRoOjMuNXB4O30jZ2VNZXJtYWlkT3V0cHV0LTE3MzQ2MjkxOTUzNzcgLmVkZ2UtcGF0dGVybi1zb2xpZHtzdHJva2UtZGFzaGFycmF5OjA7fSNnZU1lcm1haWRPdXRwdXQtMTczNDYyOTE5NTM3NyAuZWRnZS1wYXR0ZXJuLWRhc2hlZHtzdHJva2UtZGFzaGFycmF5OjM7fSNnZU1lcm1haWRPdXRwdXQtMTczNDYyOTE5NTM3NyAuZWRnZS1wYXR0ZXJuLWRvdHRlZHtzdHJva2UtZGFzaGFycmF5OjI7fSNnZU1lcm1haWRPdXRwdXQtMTczNDYyOTE5NTM3NyAubWFya2Vye2ZpbGw6IzY2NjtzdHJva2U6IzY2Njt9I2dlTWVybWFpZE91dHB1dC0xNzM0NjI5MTk1Mzc3IC5tYXJrZXIuY3Jvc3N7c3Ryb2tlOiM2NjY7fSNnZU1lcm1haWRPdXRwdXQtMTczNDYyOTE5NTM3NyBzdmd7Zm9udC1mYW1pbHk6InRyZWJ1Y2hldCBtcyIsdmVyZGFuYSxhcmlhbCxzYW5zLXNlcmlmO2ZvbnQtc2l6ZToxNnB4O30jZ2VNZXJtYWlkT3V0cHV0LTE3MzQ2MjkxOTUzNzcgLmxhYmVse2ZvbnQtZmFtaWx5OiJ0cmVidWNoZXQgbXMiLHZlcmRhbmEsYXJpYWwsc2Fucy1zZXJpZjtjb2xvcjojMDAwMDAwO30jZ2VNZXJtYWlkT3V0cHV0LTE3MzQ2MjkxOTUzNzcgLmNsdXN0ZXItbGFiZWwgdGV4dHtmaWxsOiMzMzM7fSNnZU1lcm1haWRPdXRwdXQtMTczNDYyOTE5NTM3NyAuY2x1c3Rlci1sYWJlbCBzcGFue2NvbG9yOiMzMzM7fSNnZU1lcm1haWRPdXRwdXQtMTczNDYyOTE5NTM3NyAubGFiZWwgdGV4dCwjZ2VNZXJtYWlkT3V0cHV0LTE3MzQ2MjkxOTUzNzcgc3BhbntmaWxsOiMwMDAwMDA7Y29sb3I6IzAwMDAwMDt9I2dlTWVybWFpZE91dHB1dC0xNzM0NjI5MTk1Mzc3IC5ub2RlIHJlY3QsI2dlTWVybWFpZE91dHB1dC0xNzM0NjI5MTk1Mzc3IC5ub2RlIGNpcmNsZSwjZ2VNZXJtYWlkT3V0cHV0LTE3MzQ2MjkxOTUzNzcgLm5vZGUgZWxsaXBzZSwjZ2VNZXJtYWlkT3V0cHV0LTE3MzQ2MjkxOTUzNzcgLm5vZGUgcG9seWdvbiwjZ2VNZXJtYWlkT3V0cHV0LTE3MzQ2MjkxOTUzNzcgLm5vZGUgcGF0aHtmaWxsOiNlZWU7c3Ryb2tlOiM5OTk7c3Ryb2tlLXdpZHRoOjFweDt9I2dlTWVybWFpZE91dHB1dC0xNzM0NjI5MTk1Mzc3IC5ub2RlIC5sYWJlbHt0ZXh0LWFsaWduOmNlbnRlcjt9I2dlTWVybWFpZE91dHB1dC0xNzM0NjI5MTk1Mzc3IC5ub2RlLmNsaWNrYWJsZXtjdXJzb3I6cG9pbnRlcjt9I2dlTWVybWFpZE91dHB1dC0xNzM0NjI5MTk1Mzc3IC5hcnJvd2hlYWRQYXRoe2ZpbGw6IzMzMzMzMzt9I2dlTWVybWFpZE91dHB1dC0xNzM0NjI5MTk1Mzc3IC5lZGdlUGF0aCAucGF0aHtzdHJva2U6IzY2NjtzdHJva2Utd2lkdGg6Mi4wcHg7fSNnZU1lcm1haWRPdXRwdXQtMTczNDYyOTE5NTM3NyAuZmxvd2NoYXJ0LWxpbmt7c3Ryb2tlOiM2NjY7ZmlsbDpub25lO30jZ2VNZXJtYWlkT3V0cHV0LTE3MzQ2MjkxOTUzNzcgLmVkZ2VMYWJlbHtiYWNrZ3JvdW5kLWNvbG9yOndoaXRlO3RleHQtYWxpZ246Y2VudGVyO30jZ2VNZXJtYWlkT3V0cHV0LTE3MzQ2MjkxOTUzNzcgLmVkZ2VMYWJlbCByZWN0e29wYWNpdHk6MC41O2JhY2tncm91bmQtY29sb3I6d2hpdGU7ZmlsbDp3aGl0ZTt9I2dlTWVybWFpZE91dHB1dC0xNzM0NjI5MTk1Mzc3IC5jbHVzdGVyIHJlY3R7ZmlsbDpoc2woMCwgMCUsIDk4LjkyMTU2ODYyNzUlKTtzdHJva2U6IzcwNzA3MDtzdHJva2Utd2lkdGg6MXB4O30jZ2VNZXJtYWlkT3V0cHV0LTE3MzQ2MjkxOTUzNzcgLmNsdXN0ZXIgdGV4dHtmaWxsOiMzMzM7fSNnZU1lcm1haWRPdXRwdXQtMTczNDYyOTE5NTM3NyAuY2x1c3RlciBzcGFue2NvbG9yOiMzMzM7fSNnZU1lcm1haWRPdXRwdXQtMTczNDYyOTE5NTM3NyBkaXYubWVybWFpZFRvb2x0aXB7cG9zaXRpb246YWJzb2x1dGU7dGV4dC1hbGlnbjpjZW50ZXI7bWF4LXdpZHRoOjIwMHB4O3BhZGRpbmc6MnB4O2ZvbnQtZmFtaWx5OiJ0cmVidWNoZXQgbXMiLHZlcmRhbmEsYXJpYWwsc2Fucy1zZXJpZjtmb250LXNpemU6MTJweDtiYWNrZ3JvdW5kOmhzbCgtMTYwLCAwJSwgOTMuMzMzMzMzMzMzMyUpO2JvcmRlcjoxcHggc29saWQgIzcwNzA3MDtib3JkZXItcmFkaXVzOjJweDtwb2ludGVyLWV2ZW50czpub25lO3otaW5kZXg6MTAwO30jZ2VNZXJtYWlkT3V0cHV0LTE3MzQ2MjkxOTUzNzcgOnJvb3R7LS1tZXJtYWlkLWZvbnQtZmFtaWx5OiJ0cmVidWNoZXQgbXMiLHZlcmRhbmEsYXJpYWwsc2Fucy1zZXJpZjt9PC9zdHlsZT48ZyB0cmFuc2Zvcm09InRyYW5zbGF0ZSgwLCAwKSI+PGcgY2xhc3M9Im91dHB1dCI+PGcgY2xhc3M9ImNsdXN0ZXJzIj48L2c+PGcgY2xhc3M9ImVkZ2VQYXRocyI+PGcgc3R5bGU9Im9wYWNpdHk6IDE7IiBpZD0iTC1BLUIiIGNsYXNzPSJlZGdlUGF0aCBMUy1BIExFLUIiPjxwYXRoIHN0eWxlPSJmaWxsOm5vbmUiIG1hcmtlci1lbmQ9InVybCgjYXJyb3doZWFkNDgpIiBkPSJNMjAwLjIwOTU3MTgzODM3ODksNjIuNUwyMDAuMjA5NTcxODM4Mzc4OSw4Ny41TDIwMC43MDk1NzE4MzgzNzg5LDExMy4wMDAwMDMwNTE3NTc4MiIgY2xhc3M9InBhdGgiPjwvcGF0aD48ZGVmcz48bWFya2VyIG9yaWVudD0iYXV0byIgbWFya2VySGVpZ2h0PSI2IiBtYXJrZXJXaWR0aD0iOCIgbWFya2VyVW5pdHM9InN0cm9rZVdpZHRoIiByZWZZPSI1IiByZWZYPSI5IiB2aWV3Qm94PSIwIDAgMTAgMTAiIGlkPSJhcnJvd2hlYWQ0OCI+PHBhdGggc3R5bGU9InN0cm9rZS13aWR0aDogMTsgc3Ryb2tlLWRhc2hhcnJheTogMSwgMDsiIGNsYXNzPSJhcnJvd2hlYWRQYXRoIiBkPSJNIDAgMCBMIDEwIDUgTCAwIDEwIHoiPjwvcGF0aD48L21hcmtlcj48L2RlZnM+PC9nPjxnIHN0eWxlPSJvcGFjaXR5OiAxOyIgaWQ9IkwtQi1IIiBjbGFzcz0iZWRnZVBhdGggTFMtQiBMRS1IIj48cGF0aCBzdHlsZT0iZmlsbDpub25lIiBtYXJrZXItZW5kPSJ1cmwoI2Fycm93aGVhZDQ5KSIgZD0iTTE1Ny41ODc3NjI0MDA4OTE2LDI1MC4yNzg5NzQ4NjQyNzA1NEw4Ni4yMTg3NSwzMjcuMTUwNzg3MzUzNTE1Nkw4Ni4yMTg3NSw0NDEuOTEzNjgxMDMwMjczNDQiIGNsYXNzPSJwYXRoIj48L3BhdGg+PGRlZnM+PG1hcmtlciBvcmllbnQ9ImF1dG8iIG1hcmtlckhlaWdodD0iNiIgbWFya2VyV2lkdGg9IjgiIG1hcmtlclVuaXRzPSJzdHJva2VXaWR0aCIgcmVmWT0iNSIgcmVmWD0iOSIgdmlld0JveD0iMCAwIDEwIDEwIiBpZD0iYXJyb3doZWFkNDkiPjxwYXRoIHN0eWxlPSJzdHJva2Utd2lkdGg6IDE7IHN0cm9rZS1kYXNoYXJyYXk6IDEsIDA7IiBjbGFzcz0iYXJyb3doZWFkUGF0aCIgZD0iTSAwIDAgTCAxMCA1IEwgMCAxMCB6Ij48L3BhdGg+PC9tYXJrZXI+PC9kZWZzPjwvZz48ZyBzdHlsZT0ib3BhY2l0eTogMTsiIGlkPSJMLUItQyIgY2xhc3M9ImVkZ2VQYXRoIExTLUIgTEUtQyI+PHBhdGggc3R5bGU9ImZpbGw6bm9uZSIgbWFya2VyLWVuZD0idXJsKCNhcnJvd2hlYWQ1MCkiIGQ9Ik0yNDMuODMxMzc4MzU3OTc4MTcsMjUwLjI3ODk3MTY3ODY0Mjk2TDMxNC4yMDAzOTM2NzY3NTc4LDMyNy4xNTA3ODczNTM1MTU2TDMxNC43MDAzOTM2NzY3NTc4LDM2MS45MDA3OTA0MDUyNzMzNyIgY2xhc3M9InBhdGgiPjwvcGF0aD48ZGVmcz48bWFya2VyIG9yaWVudD0iYXV0byIgbWFya2VySGVpZ2h0PSI2IiBtYXJrZXJXaWR0aD0iOCIgbWFya2VyVW5pdHM9InN0cm9rZVdpZHRoIiByZWZZPSI1IiByZWZYPSI5IiB2aWV3Qm94PSIwIDAgMTAgMTAiIGlkPSJhcnJvd2hlYWQ1MCI+PHBhdGggc3R5bGU9InN0cm9rZS13aWR0aDogMTsgc3Ryb2tlLWRhc2hhcnJheTogMSwgMDsiIGNsYXNzPSJhcnJvd2hlYWRQYXRoIiBkPSJNIDAgMCBMIDEwIDUgTCAwIDEwIHoiPjwvcGF0aD48L21hcmtlcj48L2RlZnM+PC9nPjxnIHN0eWxlPSJvcGFjaXR5OiAxOyIgaWQ9IkwtQy1HIiBjbGFzcz0iZWRnZVBhdGggTFMtQyBMRS1HIj48cGF0aCBzdHlsZT0iZmlsbDpub25lIiBtYXJrZXItZW5kPSJ1cmwoI2Fycm93aGVhZDUxKSIgZD0iTTI3MC4zNTI3MDc4Njk1ODc0NSw1MTcuMDc4ODg1ODQ4MTAzMUwyMDYuOTUyNTQxMzUxMzE4MzYsNTk1LjE3NjU3NDcwNzAzMTJMMjA2Ljk1MjU0MTM1MTMxODM2LDY4NC4zMjQ2MjMxMDc5MTAyIiBjbGFzcz0icGF0aCI+PC9wYXRoPjxkZWZzPjxtYXJrZXIgb3JpZW50PSJhdXRvIiBtYXJrZXJIZWlnaHQ9IjYiIG1hcmtlcldpZHRoPSI4IiBtYXJrZXJVbml0cz0ic3Ryb2tlV2lkdGgiIHJlZlk9IjUiIHJlZlg9IjkiIHZpZXdCb3g9IjAgMCAxMCAxMCIgaWQ9ImFycm93aGVhZDUxIj48cGF0aCBzdHlsZT0ic3Ryb2tlLXdpZHRoOiAxOyBzdHJva2UtZGFzaGFycmF5OiAxLCAwOyIgY2xhc3M9ImFycm93aGVhZFBhdGgiIGQ9Ik0gMCAwIEwgMTAgNSBMIDAgMTAgeiI+PC9wYXRoPjwvbWFya2VyPjwvZGVmcz48L2c+PGcgc3R5bGU9Im9wYWNpdHk6IDE7IiBpZD0iTC1DLUQiIGNsYXNzPSJlZGdlUGF0aCBMUy1DIExFLUQiPjxwYXRoIHN0eWxlPSJmaWxsOm5vbmUiIG1hcmtlci1lbmQ9InVybCgjYXJyb3doZWFkNTIpIiBkPSJNMzU5LjA0ODA3Njc3MDcyNjk0LDUxNy4wNzg4ODI0NTc3ODg3TDQyMS40NDgyNDYwMDIxOTcyNyw1OTUuMTc2NTc0NzA3MDMxMkw0MjEuOTQ4MjQ2MDAyMTk3LDYyOS45MjY1NzYyMzI5MDk2IiBjbGFzcz0icGF0aCI+PC9wYXRoPjxkZWZzPjxtYXJrZXIgb3JpZW50PSJhdXRvIiBtYXJrZXJIZWlnaHQ9IjYiIG1hcmtlcldpZHRoPSI4IiBtYXJrZXJVbml0cz0ic3Ryb2tlV2lkdGgiIHJlZlk9IjUiIHJlZlg9IjkiIHZpZXdCb3g9IjAgMCAxMCAxMCIgaWQ9ImFycm93aGVhZDUyIj48cGF0aCBzdHlsZT0ic3Ryb2tlLXdpZHRoOiAxOyBzdHJva2UtZGFzaGFycmF5OiAxLCAwOyIgY2xhc3M9ImFycm93aGVhZFBhdGgiIGQ9Ik0gMCAwIEwgMTAgNSBMIDAgMTAgeiI+PC9wYXRoPjwvbWFya2VyPjwvZGVmcz48L2c+PGcgc3R5bGU9Im9wYWNpdHk6IDE7IiBpZD0iTC1ELUkiIGNsYXNzPSJlZGdlUGF0aCBMUy1EIExFLUkiPjxwYXRoIHN0eWxlPSJmaWxsOm5vbmUiIG1hcmtlci1lbmQ9InVybCgjYXJyb3doZWFkNTMpIiBkPSJNMzg2LjAwOTQxOTQwMDQ5MTc3LDc0Mi4yODM4NDMzODEyMDVMMzE5LjQ5MTIxNDc1MjE5NzI3LDgxMS45NzI2NzE1MDg3ODkxTDMxOS40OTEyMTQ3NTIxOTcyNyw4NDYuMjIyNjcxNTA4Nzg5MSIgY2xhc3M9InBhdGgiPjwvcGF0aD48ZGVmcz48bWFya2VyIG9yaWVudD0iYXV0byIgbWFya2VySGVpZ2h0PSI2IiBtYXJrZXJXaWR0aD0iOCIgbWFya2VyVW5pdHM9InN0cm9rZVdpZHRoIiByZWZZPSI1IiByZWZYPSI5IiB2aWV3Qm94PSIwIDAgMTAgMTAiIGlkPSJhcnJvd2hlYWQ1MyI+PHBhdGggc3R5bGU9InN0cm9rZS13aWR0aDogMTsgc3Ryb2tlLWRhc2hhcnJheTogMSwgMDsiIGNsYXNzPSJhcnJvd2hlYWRQYXRoIiBkPSJNIDAgMCBMIDEwIDUgTCAwIDEwIHoiPjwvcGF0aD48L21hcmtlcj48L2RlZnM+PC9nPjxnIHN0eWxlPSJvcGFjaXR5OiAxOyIgaWQ9IkwtRC1GIiBjbGFzcz0iZWRnZVBhdGggTFMtRCBMRS1GIj48cGF0aCBzdHlsZT0iZmlsbDpub25lIiBtYXJrZXItZW5kPSJ1cmwoI2Fycm93aGVhZDU0KSIgZD0iTTQ1Ny44ODcwNzExMjQ3NDU4Myw3NDIuMjgzODQxODA4NjAzOUw1MjMuNDA1Mjc3MjUyMTk3Myw4MTEuOTcyNjcxNTA4Nzg5MUw1MjMuNDA1Mjc3MjUyMTk3Myw4NDYuMjIyNjcxNTA4Nzg5MSIgY2xhc3M9InBhdGgiPjwvcGF0aD48ZGVmcz48bWFya2VyIG9yaWVudD0iYXV0byIgbWFya2VySGVpZ2h0PSI2IiBtYXJrZXJXaWR0aD0iOCIgbWFya2VyVW5pdHM9InN0cm9rZVdpZHRoIiByZWZZPSI1IiByZWZYPSI5IiB2aWV3Qm94PSIwIDAgMTAgMTAiIGlkPSJhcnJvd2hlYWQ1NCI+PHBhdGggc3R5bGU9InN0cm9rZS13aWR0aDogMTsgc3Ryb2tlLWRhc2hhcnJheTogMSwgMDsiIGNsYXNzPSJhcnJvd2hlYWRQYXRoIiBkPSJNIDAgMCBMIDEwIDUgTCAwIDEwIHoiPjwvcGF0aD48L21hcmtlcj48L2RlZnM+PC9nPjwvZz48ZyBjbGFzcz0iZWRnZUxhYmVscyI+PGcgc3R5bGU9Im9wYWNpdHk6IDE7IiB0cmFuc2Zvcm09IiIgY2xhc3M9ImVkZ2VMYWJlbCI+PGcgY2xhc3M9ImxhYmVsIiB0cmFuc2Zvcm09InRyYW5zbGF0ZSgwLDApIj48cmVjdCBoZWlnaHQ9IjAiIHdpZHRoPSIwIiByeT0iMCIgcng9IjAiPjwvcmVjdD48dGV4dD48dHNwYW4geD0iMSIgZHk9IjFlbSIgeG1sOnNwYWNlPSJwcmVzZXJ2ZSI+PC90c3Bhbj48L3RleHQ+PC9nPjwvZz48ZyBzdHlsZT0ib3BhY2l0eTogMTsiIHRyYW5zZm9ybT0idHJhbnNsYXRlKDg2LjIxODc1LDMyNy4xNTA3ODczNTM1MTU2KSIgY2xhc3M9ImVkZ2VMYWJlbCI+PGcgY2xhc3M9ImxhYmVsIiB0cmFuc2Zvcm09InRyYW5zbGF0ZSgtOS4zOTg0Mzc1LC05LjI1KSI+PHJlY3QgaGVpZ2h0PSIxOC41IiB3aWR0aD0iMTguNzk2ODc1IiByeT0iMCIgcng9IjAiPjwvcmVjdD48dGV4dD48dHNwYW4geD0iMSIgZHk9IjFlbSIgeG1sOnNwYWNlPSJwcmVzZXJ2ZSI+Tm88L3RzcGFuPjwvdGV4dD48L2c+PC9nPjxnIHN0eWxlPSJvcGFjaXR5OiAxOyIgdHJhbnNmb3JtPSJ0cmFuc2xhdGUoMzE0LjIwMDM5MzY3Njc1NzgsMzI3LjE1MDc4NzM1MzUxNTYpIiBjbGFzcz0iZWRnZUxhYmVsIj48ZyBjbGFzcz0ibGFiZWwiIHRyYW5zZm9ybT0idHJhbnNsYXRlKC0xMS4zMjQyMTg3NSwtOS4yNSkiPjxyZWN0IGhlaWdodD0iMTguNSIgd2lkdGg9IjIyLjY0ODQzNzUiIHJ5PSIwIiByeD0iMCI+PC9yZWN0Pjx0ZXh0Pjx0c3BhbiB4PSIxIiBkeT0iMWVtIiB4bWw6c3BhY2U9InByZXNlcnZlIj5ZZXM8L3RzcGFuPjwvdGV4dD48L2c+PC9nPjxnIHN0eWxlPSJvcGFjaXR5OiAxOyIgdHJhbnNmb3JtPSJ0cmFuc2xhdGUoMjA2Ljk1MjU0MTM1MTMxODM2LDU5NS4xNzY1NzQ3MDcwMzEyKSIgY2xhc3M9ImVkZ2VMYWJlbCI+PGcgY2xhc3M9ImxhYmVsIiB0cmFuc2Zvcm09InRyYW5zbGF0ZSgtMTEuMzI0MjE4NzUsLTkuMjUpIj48cmVjdCBoZWlnaHQ9IjE4LjUiIHdpZHRoPSIyMi42NDg0Mzc1IiByeT0iMCIgcng9IjAiPjwvcmVjdD48dGV4dD48dHNwYW4geD0iMSIgZHk9IjFlbSIgeG1sOnNwYWNlPSJwcmVzZXJ2ZSI+WWVzPC90c3Bhbj48L3RleHQ+PC9nPjwvZz48ZyBzdHlsZT0ib3BhY2l0eTogMTsiIHRyYW5zZm9ybT0idHJhbnNsYXRlKDQyMS40NDgyNDYwMDIxOTcyNyw1OTUuMTc2NTc0NzA3MDMxMikiIGNsYXNzPSJlZGdlTGFiZWwiPjxnIGNsYXNzPSJsYWJlbCIgdHJhbnNmb3JtPSJ0cmFuc2xhdGUoLTkuMzk4NDM3NSwtOS4yNSkiPjxyZWN0IGhlaWdodD0iMTguNSIgd2lkdGg9IjE4Ljc5Njg3NSIgcnk9IjAiIHJ4PSIwIj48L3JlY3Q+PHRleHQ+PHRzcGFuIHg9IjEiIGR5PSIxZW0iIHhtbDpzcGFjZT0icHJlc2VydmUiPk5vPC90c3Bhbj48L3RleHQ+PC9nPjwvZz48ZyBzdHlsZT0ib3BhY2l0eTogMTsiIHRyYW5zZm9ybT0idHJhbnNsYXRlKDMxOS40OTEyMTQ3NTIxOTcyNyw4MTEuOTcyNjcxNTA4Nzg5MSkiIGNsYXNzPSJlZGdlTGFiZWwiPjxnIGNsYXNzPSJsYWJlbCIgdHJhbnNmb3JtPSJ0cmFuc2xhdGUoLTExLjMyNDIxODc1LC05LjI1KSI+PHJlY3QgaGVpZ2h0PSIxOC41IiB3aWR0aD0iMjIuNjQ4NDM3NSIgcnk9IjAiIHJ4PSIwIj48L3JlY3Q+PHRleHQ+PHRzcGFuIHg9IjEiIGR5PSIxZW0iIHhtbDpzcGFjZT0icHJlc2VydmUiPlllczwvdHNwYW4+PC90ZXh0PjwvZz48L2c+PGcgc3R5bGU9Im9wYWNpdHk6IDE7IiB0cmFuc2Zvcm09InRyYW5zbGF0ZSg1MjMuNDA1Mjc3MjUyMTk3Myw4MTEuOTcyNjcxNTA4Nzg5MSkiIGNsYXNzPSJlZGdlTGFiZWwiPjxnIGNsYXNzPSJsYWJlbCIgdHJhbnNmb3JtPSJ0cmFuc2xhdGUoLTkuMzk4NDM3NSwtOS4yNSkiPjxyZWN0IGhlaWdodD0iMTguNSIgd2lkdGg9IjE4Ljc5Njg3NSIgcnk9IjAiIHJ4PSIwIj48L3JlY3Q+PHRleHQ+PHRzcGFuIHg9IjEiIGR5PSIxZW0iIHhtbDpzcGFjZT0icHJlc2VydmUiPk5vPC90c3Bhbj48L3RleHQ+PC9nPjwvZz48L2c+PGcgY2xhc3M9Im5vZGVzIj48ZyBzdHlsZT0ib3BhY2l0eTogMTsiIHRyYW5zZm9ybT0idHJhbnNsYXRlKDIwMC4yMDk1NzE4MzgzNzg5LDM1LjI1KSIgaWQ9ImZsb3djaGFydC1BLTI4IiBjbGFzcz0ibm9kZSBkZWZhdWx0Ij48cmVjdCBjbGFzcz0ibGFiZWwtY29udGFpbmVyIiBoZWlnaHQ9IjU0LjUiIHdpZHRoPSIxMzcuNDYwOTM3NSIgeT0iLTI3LjI1IiB4PSItNjguNzMwNDY4NzUiIHJ5PSI1IiByeD0iNSI+PC9yZWN0PjxnIHRyYW5zZm9ybT0idHJhbnNsYXRlKDAsMCkiIGNsYXNzPSJsYWJlbCI+PGcgdHJhbnNmb3JtPSJ0cmFuc2xhdGUoLTU4LjczMDQ2ODc1LC0xNy4yNSkiPjx0ZXh0IHN0eWxlPSIiPjx0c3BhbiB4PSIxIiBkeT0iMWVtIiB4bWw6c3BhY2U9InByZXNlcnZlIj5Db2ZmZWUgbWFjaGluZSA8L3RzcGFuPjx0c3BhbiB4PSIxIiBkeT0iMWVtIiB4bWw6c3BhY2U9InByZXNlcnZlIj5ub3Qgd29ya2luZzwvdHNwYW4+PC90ZXh0PjwvZz48L2c+PC9nPjxnIHN0eWxlPSJvcGFjaXR5OiAxOyIgdHJhbnNmb3JtPSJ0cmFuc2xhdGUoMjAwLjIwOTU3MTgzODM3ODksMjAyLjcwMDM5MzY3Njc1NzgpIiBpZD0iZmxvd2NoYXJ0LUItMjkiIGNsYXNzPSJub2RlIGRlZmF1bHQiPjxwb2x5Z29uIGNsYXNzPSJsYWJlbC1jb250YWluZXIiIHRyYW5zZm9ybT0idHJhbnNsYXRlKC05MC4yMDAzOTA2MjUsOTAuMjAwMzkwNjI1KSIgcG9pbnRzPSI5MC4yMDAzOTA2MjUsMCAxODAuNDAwNzgxMjUsLTkwLjIwMDM5MDYyNSA5MC4yMDAzOTA2MjUsLTE4MC40MDA3ODEyNSAwLC05MC4yMDAzOTA2MjUiPjwvcG9seWdvbj48ZyB0cmFuc2Zvcm09InRyYW5zbGF0ZSgwLDApIiBjbGFzcz0ibGFiZWwiPjxnIHRyYW5zZm9ybT0idHJhbnNsYXRlKC03MC45NzI2NTYyNSwtOS4yNSkiPjx0ZXh0IHN0eWxlPSIiPjx0c3BhbiB4PSIxIiBkeT0iMWVtIiB4bWw6c3BhY2U9InByZXNlcnZlIj5NYWNoaW5lIGhhcyBwb3dlcj88L3RzcGFuPjwvdGV4dD48L2c+PC9nPjwvZz48ZyBzdHlsZT0ib3BhY2l0eTogMTsiIHRyYW5zZm9ybT0idHJhbnNsYXRlKDg2LjIxODc1LDQ2MS4xNjM2ODEwMzAyNzM0NCkiIGlkPSJmbG93Y2hhcnQtSC0zMSIgY2xhc3M9Im5vZGUgZGVmYXVsdCI+PHJlY3QgY2xhc3M9ImxhYmVsLWNvbnRhaW5lciIgaGVpZ2h0PSIzOC41IiB3aWR0aD0iMTU2LjQzNzUiIHk9Ii0xOS4yNSIgeD0iLTc4LjIxODc1IiByeT0iNSIgcng9IjUiPjwvcmVjdD48ZyB0cmFuc2Zvcm09InRyYW5zbGF0ZSgwLDApIiBjbGFzcz0ibGFiZWwiPjxnIHRyYW5zZm9ybT0idHJhbnNsYXRlKC02OC4yMTg3NSwtOS4yNSkiPjx0ZXh0IHN0eWxlPSIiPjx0c3BhbiB4PSIxIiBkeT0iMWVtIiB4bWw6c3BhY2U9InByZXNlcnZlIj5QbHVnIGluIGFuZCB0dXJuIG9uPC90c3Bhbj48L3RleHQ+PC9nPjwvZz48L2c+PGcgc3R5bGU9Im9wYWNpdHk6IDE7IiB0cmFuc2Zvcm09InRyYW5zbGF0ZSgzMTQuMjAwMzkzNjc2NzU3OCw0NjEuMTYzNjgxMDMwMjczNDQpIiBpZD0iZmxvd2NoYXJ0LUMtMzMiIGNsYXNzPSJub2RlIGRlZmF1bHQiPjxwb2x5Z29uIGNsYXNzPSJsYWJlbC1jb250YWluZXIiIHRyYW5zZm9ybT0idHJhbnNsYXRlKC05OS43NjI4OTA2MjUsOTkuNzYyODkwNjI1KSIgcG9pbnRzPSI5OS43NjI4OTA2MjUsMCAxOTkuNTI1NzgxMjUsLTk5Ljc2Mjg5MDYyNSA5OS43NjI4OTA2MjUsLTE5OS41MjU3ODEyNSAwLC05OS43NjI4OTA2MjUiPjwvcG9seWdvbj48ZyB0cmFuc2Zvcm09InRyYW5zbGF0ZSgwLDApIiBjbGFzcz0ibGFiZWwiPjxnIHRyYW5zZm9ybT0idHJhbnNsYXRlKC04MS41OTc2NTYyNSwtOS4yNSkiPjx0ZXh0IHN0eWxlPSIiPjx0c3BhbiB4PSIxIiBkeT0iMWVtIiB4bWw6c3BhY2U9InByZXNlcnZlIj5PdXQgb2YgYmVhbnMgb3Igd2F0ZXI/PC90c3Bhbj48L3RleHQ+PC9nPjwvZz48L2c+PGcgc3R5bGU9Im9wYWNpdHk6IDE7IiB0cmFuc2Zvcm09InRyYW5zbGF0ZSgyMDYuOTUyNTQxMzUxMzE4MzYsNzAzLjU3NDYyMzEwNzkxMDIpIiBpZD0iZmxvd2NoYXJ0LUctMzQiIGNsYXNzPSJub2RlIGRlZmF1bHQiPjxyZWN0IGNsYXNzPSJsYWJlbC1jb250YWluZXIiIGhlaWdodD0iMzguNSIgd2lkdGg9IjE4MC42OTUzMTI1IiB5PSItMTkuMjUiIHg9Ii05MC4zNDc2NTYyNSIgcnk9IjUiIHJ4PSI1Ij48L3JlY3Q+PGcgdHJhbnNmb3JtPSJ0cmFuc2xhdGUoMCwwKSIgY2xhc3M9ImxhYmVsIj48ZyB0cmFuc2Zvcm09InRyYW5zbGF0ZSgtODAuMzQ3NjU2MjUsLTkuMjUpIj48dGV4dCBzdHlsZT0iIj48dHNwYW4geD0iMSIgZHk9IjFlbSIgeG1sOnNwYWNlPSJwcmVzZXJ2ZSI+UmVmaWxsIGJlYW5zIGFuZCB3YXRlcjwvdHNwYW4+PC90ZXh0PjwvZz48L2c+PC9nPjxnIHN0eWxlPSJvcGFjaXR5OiAxOyIgdHJhbnNmb3JtPSJ0cmFuc2xhdGUoNDIxLjQ0ODI0NjAwMjE5NzI3LDcwMy41NzQ2MjMxMDc5MTAyKSIgaWQ9ImZsb3djaGFydC1ELTM2IiBjbGFzcz0ibm9kZSBkZWZhdWx0Ij48cG9seWdvbiBjbGFzcz0ibGFiZWwtY29udGFpbmVyIiB0cmFuc2Zvcm09InRyYW5zbGF0ZSgtNzQuMTQ4MDQ2ODc1LDc0LjE0ODA0Njg3NSkiIHBvaW50cz0iNzQuMTQ4MDQ2ODc1LDAgMTQ4LjI5NjA5Mzc1LC03NC4xNDgwNDY4NzUgNzQuMTQ4MDQ2ODc1LC0xNDguMjk2MDkzNzUgMCwtNzQuMTQ4MDQ2ODc1Ij48L3BvbHlnb24+PGcgdHJhbnNmb3JtPSJ0cmFuc2xhdGUoMCwwKSIgY2xhc3M9ImxhYmVsIj48ZyB0cmFuc2Zvcm09InRyYW5zbGF0ZSgtNTMuMTM2NzE4NzUsLTkuMjUpIj48dGV4dCBzdHlsZT0iIj48dHNwYW4geD0iMSIgZHk9IjFlbSIgeG1sOnNwYWNlPSJwcmVzZXJ2ZSI+RmlsdGVyIHdhcm5pbmc/PC90c3Bhbj48L3RleHQ+PC9nPjwvZz48L2c+PGcgc3R5bGU9Im9wYWNpdHk6IDE7IiB0cmFuc2Zvcm09InRyYW5zbGF0ZSgzMTkuNDkxMjE0NzUyMTk3MjcsODY1LjQ3MjY3MTUwODc4OTEpIiBpZD0iZmxvd2NoYXJ0LUktMzciIGNsYXNzPSJub2RlIGRlZmF1bHQiPjxyZWN0IGNsYXNzPSJsYWJlbC1jb250YWluZXIiIGhlaWdodD0iMzguNSIgd2lkdGg9IjE4MC4zNDM3NSIgeT0iLTE5LjI1IiB4PSItOTAuMTcxODc1IiByeT0iNSIgcng9IjUiPjwvcmVjdD48ZyB0cmFuc2Zvcm09InRyYW5zbGF0ZSgwLDApIiBjbGFzcz0ibGFiZWwiPjxnIHRyYW5zZm9ybT0idHJhbnNsYXRlKC04MC4xNzE4NzUsLTkuMjUpIj48dGV4dCBzdHlsZT0iIj48dHNwYW4geD0iMSIgZHk9IjFlbSIgeG1sOnNwYWNlPSJwcmVzZXJ2ZSI+UmVwbGFjZSBvciBjbGVhbiBmaWx0ZXI8L3RzcGFuPjwvdGV4dD48L2c+PC9nPjwvZz48ZyBzdHlsZT0ib3BhY2l0eTogMTsiIHRyYW5zZm9ybT0idHJhbnNsYXRlKDUyMy40MDUyNzcyNTIxOTczLDg2NS40NzI2NzE1MDg3ODkxKSIgaWQ9ImZsb3djaGFydC1GLTM5IiBjbGFzcz0ibm9kZSBkZWZhdWx0Ij48cmVjdCBjbGFzcz0ibGFiZWwtY29udGFpbmVyIiBoZWlnaHQ9IjM4LjUiIHdpZHRoPSIxMjcuNDg0Mzc1IiB5PSItMTkuMjUiIHg9Ii02My43NDIxODc1IiByeT0iNSIgcng9IjUiPjwvcmVjdD48ZyB0cmFuc2Zvcm09InRyYW5zbGF0ZSgwLDApIiBjbGFzcz0ibGFiZWwiPjxnIHRyYW5zZm9ybT0idHJhbnNsYXRlKC01My43NDIxODc1LC05LjI1KSI+PHRleHQgc3R5bGU9IiI+PHRzcGFuIHg9IjEiIGR5PSIxZW0iIHhtbDpzcGFjZT0icHJlc2VydmUiPlNlbmQgZm9yIHJlcGFpcjwvdHNwYW4+PC90ZXh0PjwvZz48L2c+PC9nPjwvZz48L2c+PC9nPjwvc3ZnPg==;" parent="1" vertex="1">
                        <mxGeometry x="280" y="251.5" width="170" height="260" as="geometry"/>
                    </mxCell>
                </UserObject>
                <UserObject label="" mermaidData="{&#10;  &quot;data&quot;: &quot;gantt\n title Example Gantt diagram\n    dateFormat  YYYY-MM-DD\n    section Team 1\n    Research &amp; requirements :done, a1, 2020-03-08, 2020-04-10\n    Review &amp; documentation : after a1, 20d\n    section Team 2\n    Implementation      :crit, active, 2020-03-25  , 20d\n    Testing      :crit, 20d&quot;,&#10;  &quot;config&quot;: {&#10;    &quot;startOnLoad&quot;: false,&#10;    &quot;themeCSS&quot;: &quot;&quot;,&#10;    &quot;theme&quot;: &quot;neutral&quot;,&#10;    &quot;arrowMarkerAbsolute&quot;: false,&#10;    &quot;flowchart&quot;: {&#10;      &quot;diagramPadding&quot;: 8,&#10;      &quot;htmlLabels&quot;: false,&#10;      &quot;nodeSpacing&quot;: 50,&#10;      &quot;rankSpacing&quot;: 50,&#10;      &quot;curve&quot;: &quot;linear&quot;,&#10;      &quot;padding&quot;: 15,&#10;      &quot;useMaxWidth&quot;: true&#10;    },&#10;    &quot;sequence&quot;: {&#10;      &quot;activationWidth&quot;: 10,&#10;      &quot;diagramMarginX&quot;: 50,&#10;      &quot;diagramMarginY&quot;: 10,&#10;      &quot;actorMargin&quot;: 50,&#10;      &quot;width&quot;: 150,&#10;      &quot;height&quot;: 65,&#10;      &quot;boxMargin&quot;: 10,&#10;      &quot;boxTextMargin&quot;: 5,&#10;      &quot;noteMargin&quot;: 10,&#10;      &quot;messageMargin&quot;: 35,&#10;      &quot;messageAlign&quot;: &quot;center&quot;,&#10;      &quot;mirrorActors&quot;: true,&#10;      &quot;bottomMarginAdj&quot;: 1,&#10;      &quot;useMaxWidth&quot;: true,&#10;      &quot;rightAngles&quot;: false,&#10;      &quot;showSequenceNumbers&quot;: false,&#10;      &quot;actorFontSize&quot;: 14,&#10;      &quot;actorFontFamily&quot;: &quot;\&quot;Open-Sans\&quot;, \&quot;sans-serif\&quot;&quot;,&#10;      &quot;actorFontWeight&quot;: 400,&#10;      &quot;noteFontSize&quot;: 14,&#10;      &quot;noteFontFamily&quot;: &quot;\&quot;trebuchet ms\&quot;, verdana, arial&quot;,&#10;      &quot;noteFontWeight&quot;: 400,&#10;      &quot;noteAlign&quot;: &quot;center&quot;,&#10;      &quot;messageFontSize&quot;: 16,&#10;      &quot;messageFontFamily&quot;: &quot;\&quot;trebuchet ms\&quot;, verdana, arial&quot;,&#10;      &quot;messageFontWeight&quot;: 400,&#10;      &quot;wrap&quot;: false,&#10;      &quot;wrapPadding&quot;: 10,&#10;      &quot;labelBoxWidth&quot;: 50,&#10;      &quot;labelBoxHeight&quot;: 20&#10;    },&#10;    &quot;gantt&quot;: {&#10;      &quot;titleTopMargin&quot;: 25,&#10;      &quot;barHeight&quot;: 20,&#10;      &quot;barGap&quot;: 4,&#10;      &quot;topPadding&quot;: 50,&#10;      &quot;leftPadding&quot;: 75,&#10;      &quot;gridLineStartPadding&quot;: 35,&#10;      &quot;fontSize&quot;: 11,&#10;      &quot;fontFamily&quot;: &quot;\&quot;Open-Sans\&quot;, \&quot;sans-serif\&quot;&quot;,&#10;      &quot;numberSectionStyles&quot;: 4,&#10;      &quot;axisFormat&quot;: &quot;%Y-%m-%d&quot;,&#10;      &quot;useMaxWidth&quot;: true&#10;    },&#10;    &quot;journey&quot;: {&#10;      &quot;diagramMarginX&quot;: 50,&#10;      &quot;diagramMarginY&quot;: 10,&#10;      &quot;actorMargin&quot;: 50,&#10;      &quot;width&quot;: 150,&#10;      &quot;height&quot;: 65,&#10;      &quot;boxMargin&quot;: 10,&#10;      &quot;boxTextMargin&quot;: 5,&#10;      &quot;noteMargin&quot;: 10,&#10;      &quot;messageMargin&quot;: 35,&#10;      &quot;messageAlign&quot;: &quot;center&quot;,&#10;      &quot;bottomMarginAdj&quot;: 1,&#10;      &quot;useMaxWidth&quot;: true,&#10;      &quot;rightAngles&quot;: false&#10;    },&#10;    &quot;class&quot;: {&#10;      &quot;arrowMarkerAbsolute&quot;: false,&#10;      &quot;useMaxWidth&quot;: true&#10;    },&#10;    &quot;git&quot;: {&#10;      &quot;arrowMarkerAbsolute&quot;: false,&#10;      &quot;useMaxWidth&quot;: true&#10;    },&#10;    &quot;state&quot;: {&#10;      &quot;dividerMargin&quot;: 10,&#10;      &quot;sizeUnit&quot;: 5,&#10;      &quot;padding&quot;: 8,&#10;      &quot;textHeight&quot;: 10,&#10;      &quot;titleShift&quot;: -15,&#10;      &quot;noteMargin&quot;: 10,&#10;      &quot;forkWidth&quot;: 70,&#10;      &quot;forkHeight&quot;: 7,&#10;      &quot;miniPadding&quot;: 2,&#10;      &quot;fontSizeFactor&quot;: 5.02,&#10;      &quot;fontSize&quot;: 24,&#10;      &quot;labelHeight&quot;: 16,&#10;      &quot;edgeLengthFactor&quot;: &quot;20&quot;,&#10;      &quot;compositTitleSize&quot;: 35,&#10;      &quot;radius&quot;: 5&#10;    },&#10;    &quot;er&quot;: {&#10;      &quot;diagramPadding&quot;: 20,&#10;      &quot;layoutDirection&quot;: &quot;TB&quot;,&#10;      &quot;minEntityWidth&quot;: 100,&#10;      &quot;minEntityHeight&quot;: 75,&#10;      &quot;entityPadding&quot;: 15,&#10;      &quot;stroke&quot;: &quot;grey&quot;,&#10;      &quot;fill&quot;: &quot;honeydew&quot;,&#10;      &quot;fontSize&quot;: 12,&#10;      &quot;useMaxWidth&quot;: true&#10;    },&#10;    &quot;pie&quot;: {&#10;      &quot;useMaxWidth&quot;: true&#10;    }&#10;  }&#10;}" id="12">
                    <mxCell style="shape=image;noLabel=1;verticalAlign=top;imageAspect=1;image=data:image/svg+xml,PHN2ZyBhcmlhLWxhYmVsbGVkYnk9ImNoYXJ0LXRpdGxlLWdlTWVybWFpZE91dHB1dC0xNzM0NjI5MjgxMTc2IGNoYXJ0LWRlc2MtZ2VNZXJtYWlkT3V0cHV0LTE3MzQ2MjkyODExNzYiIHJvbGU9ImltZyIgc3R5bGU9Im1heC13aWR0aDogODcycHg7IiBoZWlnaHQ9IjE5NiIgdmlld0JveD0iMCAwIDg3MiAxOTYiIHhtbG5zPSJodHRwOi8vd3d3LnczLm9yZy8yMDAwL3N2ZyIgd2lkdGg9IjEwMCUiIGlkPSJnZU1lcm1haWRPdXRwdXQtMTczNDYyOTI4MTE3NiI+PHRpdGxlIGlkPSJjaGFydC10aXRsZS1nZU1lcm1haWRPdXRwdXQtMTczNDYyOTI4MTE3NiI+RXhhbXBsZSBHYW50dCBkaWFncmFtPC90aXRsZT48ZGVzYyBpZD0iY2hhcnQtZGVzYy1nZU1lcm1haWRPdXRwdXQtMTczNDYyOTI4MTE3NiI+PC9kZXNjPjxzdHlsZT4jZ2VNZXJtYWlkT3V0cHV0LTE3MzQ2MjkyODExNzYge2ZvbnQtZmFtaWx5OiJ0cmVidWNoZXQgbXMiLHZlcmRhbmEsYXJpYWwsc2Fucy1zZXJpZjtmb250LXNpemU6MTZweDtmaWxsOiMwMDAwMDA7fSNnZU1lcm1haWRPdXRwdXQtMTczNDYyOTI4MTE3NiAuZXJyb3ItaWNvbntmaWxsOiM1NTIyMjI7fSNnZU1lcm1haWRPdXRwdXQtMTczNDYyOTI4MTE3NiAuZXJyb3ItdGV4dHtmaWxsOiM1NTIyMjI7c3Ryb2tlOiM1NTIyMjI7fSNnZU1lcm1haWRPdXRwdXQtMTczNDYyOTI4MTE3NiAuZWRnZS10aGlja25lc3Mtbm9ybWFse3N0cm9rZS13aWR0aDoycHg7fSNnZU1lcm1haWRPdXRwdXQtMTczNDYyOTI4MTE3NiAuZWRnZS10aGlja25lc3MtdGhpY2t7c3Ryb2tlLXdpZHRoOjMuNXB4O30jZ2VNZXJtYWlkT3V0cHV0LTE3MzQ2MjkyODExNzYgLmVkZ2UtcGF0dGVybi1zb2xpZHtzdHJva2UtZGFzaGFycmF5OjA7fSNnZU1lcm1haWRPdXRwdXQtMTczNDYyOTI4MTE3NiAuZWRnZS1wYXR0ZXJuLWRhc2hlZHtzdHJva2UtZGFzaGFycmF5OjM7fSNnZU1lcm1haWRPdXRwdXQtMTczNDYyOTI4MTE3NiAuZWRnZS1wYXR0ZXJuLWRvdHRlZHtzdHJva2UtZGFzaGFycmF5OjI7fSNnZU1lcm1haWRPdXRwdXQtMTczNDYyOTI4MTE3NiAubWFya2Vye2ZpbGw6IzY2NjtzdHJva2U6IzY2Njt9I2dlTWVybWFpZE91dHB1dC0xNzM0NjI5MjgxMTc2IC5tYXJrZXIuY3Jvc3N7c3Ryb2tlOiM2NjY7fSNnZU1lcm1haWRPdXRwdXQtMTczNDYyOTI4MTE3NiBzdmd7Zm9udC1mYW1pbHk6InRyZWJ1Y2hldCBtcyIsdmVyZGFuYSxhcmlhbCxzYW5zLXNlcmlmO2ZvbnQtc2l6ZToxNnB4O30jZ2VNZXJtYWlkT3V0cHV0LTE3MzQ2MjkyODExNzYgLm1lcm1haWQtbWFpbi1mb250e2ZvbnQtZmFtaWx5OiJ0cmVidWNoZXQgbXMiLHZlcmRhbmEsYXJpYWwsc2Fucy1zZXJpZjtmb250LWZhbWlseTp2YXIoLS1tZXJtYWlkLWZvbnQtZmFtaWx5KTt9I2dlTWVybWFpZE91dHB1dC0xNzM0NjI5MjgxMTc2IC5leGNsdWRlLXJhbmdle2ZpbGw6I2VlZWVlZTt9I2dlTWVybWFpZE91dHB1dC0xNzM0NjI5MjgxMTc2IC5zZWN0aW9ue3N0cm9rZTpub25lO29wYWNpdHk6MC4yO30jZ2VNZXJtYWlkT3V0cHV0LTE3MzQ2MjkyODExNzYgLnNlY3Rpb24we2ZpbGw6aHNsKDAsIDAlLCA3My45MjE1Njg2Mjc1JSk7fSNnZU1lcm1haWRPdXRwdXQtMTczNDYyOTI4MTE3NiAuc2VjdGlvbjJ7ZmlsbDpoc2woMCwgMCUsIDczLjkyMTU2ODYyNzUlKTt9I2dlTWVybWFpZE91dHB1dC0xNzM0NjI5MjgxMTc2IC5zZWN0aW9uMSwjZ2VNZXJtYWlkT3V0cHV0LTE3MzQ2MjkyODExNzYgLnNlY3Rpb24ze2ZpbGw6d2hpdGU7b3BhY2l0eTowLjI7fSNnZU1lcm1haWRPdXRwdXQtMTczNDYyOTI4MTE3NiAuc2VjdGlvblRpdGxlMHtmaWxsOiMzMzM7fSNnZU1lcm1haWRPdXRwdXQtMTczNDYyOTI4MTE3NiAuc2VjdGlvblRpdGxlMXtmaWxsOiMzMzM7fSNnZU1lcm1haWRPdXRwdXQtMTczNDYyOTI4MTE3NiAuc2VjdGlvblRpdGxlMntmaWxsOiMzMzM7fSNnZU1lcm1haWRPdXRwdXQtMTczNDYyOTI4MTE3NiAuc2VjdGlvblRpdGxlM3tmaWxsOiMzMzM7fSNnZU1lcm1haWRPdXRwdXQtMTczNDYyOTI4MTE3NiAuc2VjdGlvblRpdGxle3RleHQtYW5jaG9yOnN0YXJ0O2ZvbnQtZmFtaWx5Oid0cmVidWNoZXQgbXMnLHZlcmRhbmEsYXJpYWwsc2Fucy1zZXJpZjtmb250LWZhbWlseTp2YXIoLS1tZXJtYWlkLWZvbnQtZmFtaWx5KTt9I2dlTWVybWFpZE91dHB1dC0xNzM0NjI5MjgxMTc2IC5ncmlkIC50aWNre3N0cm9rZTpoc2woMCwgMCUsIDkwJSk7b3BhY2l0eTowLjg7c2hhcGUtcmVuZGVyaW5nOmNyaXNwRWRnZXM7fSNnZU1lcm1haWRPdXRwdXQtMTczNDYyOTI4MTE3NiAuZ3JpZCAudGljayB0ZXh0e2ZvbnQtZmFtaWx5OiJ0cmVidWNoZXQgbXMiLHZlcmRhbmEsYXJpYWwsc2Fucy1zZXJpZjtmaWxsOiMwMDAwMDA7fSNnZU1lcm1haWRPdXRwdXQtMTczNDYyOTI4MTE3NiAuZ3JpZCBwYXRoe3N0cm9rZS13aWR0aDowO30jZ2VNZXJtYWlkT3V0cHV0LTE3MzQ2MjkyODExNzYgLnRvZGF5e2ZpbGw6bm9uZTtzdHJva2U6I2Q0MjtzdHJva2Utd2lkdGg6MnB4O30jZ2VNZXJtYWlkT3V0cHV0LTE3MzQ2MjkyODExNzYgLnRhc2t7c3Ryb2tlLXdpZHRoOjI7fSNnZU1lcm1haWRPdXRwdXQtMTczNDYyOTI4MTE3NiAudGFza1RleHR7dGV4dC1hbmNob3I6bWlkZGxlO2ZvbnQtZmFtaWx5Oid0cmVidWNoZXQgbXMnLHZlcmRhbmEsYXJpYWwsc2Fucy1zZXJpZjtmb250LWZhbWlseTp2YXIoLS1tZXJtYWlkLWZvbnQtZmFtaWx5KTt9I2dlTWVybWFpZE91dHB1dC0xNzM0NjI5MjgxMTc2IC50YXNrVGV4dE91dHNpZGVSaWdodHtmaWxsOiMzMzM7dGV4dC1hbmNob3I6c3RhcnQ7Zm9udC1mYW1pbHk6J3RyZWJ1Y2hldCBtcycsdmVyZGFuYSxhcmlhbCxzYW5zLXNlcmlmO2ZvbnQtZmFtaWx5OnZhcigtLW1lcm1haWQtZm9udC1mYW1pbHkpO30jZ2VNZXJtYWlkT3V0cHV0LTE3MzQ2MjkyODExNzYgLnRhc2tUZXh0T3V0c2lkZUxlZnR7ZmlsbDojMzMzO3RleHQtYW5jaG9yOmVuZDt9I2dlTWVybWFpZE91dHB1dC0xNzM0NjI5MjgxMTc2IC50YXNrLmNsaWNrYWJsZXtjdXJzb3I6cG9pbnRlcjt9I2dlTWVybWFpZE91dHB1dC0xNzM0NjI5MjgxMTc2IC50YXNrVGV4dC5jbGlja2FibGV7Y3Vyc29yOnBvaW50ZXI7ZmlsbDojMDAzMTYzIWltcG9ydGFudDtmb250LXdlaWdodDpib2xkO30jZ2VNZXJtYWlkT3V0cHV0LTE3MzQ2MjkyODExNzYgLnRhc2tUZXh0T3V0c2lkZUxlZnQuY2xpY2thYmxle2N1cnNvcjpwb2ludGVyO2ZpbGw6IzAwMzE2MyFpbXBvcnRhbnQ7Zm9udC13ZWlnaHQ6Ym9sZDt9I2dlTWVybWFpZE91dHB1dC0xNzM0NjI5MjgxMTc2IC50YXNrVGV4dE91dHNpZGVSaWdodC5jbGlja2FibGV7Y3Vyc29yOnBvaW50ZXI7ZmlsbDojMDAzMTYzIWltcG9ydGFudDtmb250LXdlaWdodDpib2xkO30jZ2VNZXJtYWlkT3V0cHV0LTE3MzQ2MjkyODExNzYgLnRhc2tUZXh0MCwjZ2VNZXJtYWlkT3V0cHV0LTE3MzQ2MjkyODExNzYgLnRhc2tUZXh0MSwjZ2VNZXJtYWlkT3V0cHV0LTE3MzQ2MjkyODExNzYgLnRhc2tUZXh0MiwjZ2VNZXJtYWlkT3V0cHV0LTE3MzQ2MjkyODExNzYgLnRhc2tUZXh0M3tmaWxsOndoaXRlO30jZ2VNZXJtYWlkT3V0cHV0LTE3MzQ2MjkyODExNzYgLnRhc2swLCNnZU1lcm1haWRPdXRwdXQtMTczNDYyOTI4MTE3NiAudGFzazEsI2dlTWVybWFpZE91dHB1dC0xNzM0NjI5MjgxMTc2IC50YXNrMiwjZ2VNZXJtYWlkT3V0cHV0LTE3MzQ2MjkyODExNzYgLnRhc2sze2ZpbGw6IzcwNzA3MDtzdHJva2U6aHNsKDAsIDAlLCAzMy45MjE1Njg2Mjc1JSk7fSNnZU1lcm1haWRPdXRwdXQtMTczNDYyOTI4MTE3NiAudGFza1RleHRPdXRzaWRlMCwjZ2VNZXJtYWlkT3V0cHV0LTE3MzQ2MjkyODExNzYgLnRhc2tUZXh0T3V0c2lkZTJ7ZmlsbDojMzMzO30jZ2VNZXJtYWlkT3V0cHV0LTE3MzQ2MjkyODExNzYgLnRhc2tUZXh0T3V0c2lkZTEsI2dlTWVybWFpZE91dHB1dC0xNzM0NjI5MjgxMTc2IC50YXNrVGV4dE91dHNpZGUze2ZpbGw6IzMzMzt9I2dlTWVybWFpZE91dHB1dC0xNzM0NjI5MjgxMTc2IC5hY3RpdmUwLCNnZU1lcm1haWRPdXRwdXQtMTczNDYyOTI4MTE3NiAuYWN0aXZlMSwjZ2VNZXJtYWlkT3V0cHV0LTE3MzQ2MjkyODExNzYgLmFjdGl2ZTIsI2dlTWVybWFpZE91dHB1dC0xNzM0NjI5MjgxMTc2IC5hY3RpdmUze2ZpbGw6I2VlZTtzdHJva2U6aHNsKDAsIDAlLCAzMy45MjE1Njg2Mjc1JSk7fSNnZU1lcm1haWRPdXRwdXQtMTczNDYyOTI4MTE3NiAuYWN0aXZlVGV4dDAsI2dlTWVybWFpZE91dHB1dC0xNzM0NjI5MjgxMTc2IC5hY3RpdmVUZXh0MSwjZ2VNZXJtYWlkT3V0cHV0LTE3MzQ2MjkyODExNzYgLmFjdGl2ZVRleHQyLCNnZU1lcm1haWRPdXRwdXQtMTczNDYyOTI4MTE3NiAuYWN0aXZlVGV4dDN7ZmlsbDojMzMzIWltcG9ydGFudDt9I2dlTWVybWFpZE91dHB1dC0xNzM0NjI5MjgxMTc2IC5kb25lMCwjZ2VNZXJtYWlkT3V0cHV0LTE3MzQ2MjkyODExNzYgLmRvbmUxLCNnZU1lcm1haWRPdXRwdXQtMTczNDYyOTI4MTE3NiAuZG9uZTIsI2dlTWVybWFpZE91dHB1dC0xNzM0NjI5MjgxMTc2IC5kb25lM3tzdHJva2U6IzY2NjtmaWxsOiNiYmI7c3Ryb2tlLXdpZHRoOjI7fSNnZU1lcm1haWRPdXRwdXQtMTczNDYyOTI4MTE3NiAuZG9uZVRleHQwLCNnZU1lcm1haWRPdXRwdXQtMTczNDYyOTI4MTE3NiAuZG9uZVRleHQxLCNnZU1lcm1haWRPdXRwdXQtMTczNDYyOTI4MTE3NiAuZG9uZVRleHQyLCNnZU1lcm1haWRPdXRwdXQtMTczNDYyOTI4MTE3NiAuZG9uZVRleHQze2ZpbGw6IzMzMyFpbXBvcnRhbnQ7fSNnZU1lcm1haWRPdXRwdXQtMTczNDYyOTI4MTE3NiAuY3JpdDAsI2dlTWVybWFpZE91dHB1dC0xNzM0NjI5MjgxMTc2IC5jcml0MSwjZ2VNZXJtYWlkT3V0cHV0LTE3MzQ2MjkyODExNzYgLmNyaXQyLCNnZU1lcm1haWRPdXRwdXQtMTczNDYyOTI4MTE3NiAuY3JpdDN7c3Ryb2tlOmhzbCgxMC45MDkwOTA5MDkxLCA3My4zMzMzMzMzMzMzJSwgNDAlKTtmaWxsOiNkNDI7c3Ryb2tlLXdpZHRoOjI7fSNnZU1lcm1haWRPdXRwdXQtMTczNDYyOTI4MTE3NiAuYWN0aXZlQ3JpdDAsI2dlTWVybWFpZE91dHB1dC0xNzM0NjI5MjgxMTc2IC5hY3RpdmVDcml0MSwjZ2VNZXJtYWlkT3V0cHV0LTE3MzQ2MjkyODExNzYgLmFjdGl2ZUNyaXQyLCNnZU1lcm1haWRPdXRwdXQtMTczNDYyOTI4MTE3NiAuYWN0aXZlQ3JpdDN7c3Ryb2tlOmhzbCgxMC45MDkwOTA5MDkxLCA3My4zMzMzMzMzMzMzJSwgNDAlKTtmaWxsOiNlZWU7c3Ryb2tlLXdpZHRoOjI7fSNnZU1lcm1haWRPdXRwdXQtMTczNDYyOTI4MTE3NiAuZG9uZUNyaXQwLCNnZU1lcm1haWRPdXRwdXQtMTczNDYyOTI4MTE3NiAuZG9uZUNyaXQxLCNnZU1lcm1haWRPdXRwdXQtMTczNDYyOTI4MTE3NiAuZG9uZUNyaXQyLCNnZU1lcm1haWRPdXRwdXQtMTczNDYyOTI4MTE3NiAuZG9uZUNyaXQze3N0cm9rZTpoc2woMTAuOTA5MDkwOTA5MSwgNzMuMzMzMzMzMzMzMyUsIDQwJSk7ZmlsbDojYmJiO3N0cm9rZS13aWR0aDoyO2N1cnNvcjpwb2ludGVyO3NoYXBlLXJlbmRlcmluZzpjcmlzcEVkZ2VzO30jZ2VNZXJtYWlkT3V0cHV0LTE3MzQ2MjkyODExNzYgLm1pbGVzdG9uZXt0cmFuc2Zvcm06cm90YXRlKDQ1ZGVnKSBzY2FsZSgwLjgsMC44KTt9I2dlTWVybWFpZE91dHB1dC0xNzM0NjI5MjgxMTc2IC5taWxlc3RvbmVUZXh0e2ZvbnQtc3R5bGU6aXRhbGljO30jZ2VNZXJtYWlkT3V0cHV0LTE3MzQ2MjkyODExNzYgLmRvbmVDcml0VGV4dDAsI2dlTWVybWFpZE91dHB1dC0xNzM0NjI5MjgxMTc2IC5kb25lQ3JpdFRleHQxLCNnZU1lcm1haWRPdXRwdXQtMTczNDYyOTI4MTE3NiAuZG9uZUNyaXRUZXh0MiwjZ2VNZXJtYWlkT3V0cHV0LTE3MzQ2MjkyODExNzYgLmRvbmVDcml0VGV4dDN7ZmlsbDojMzMzIWltcG9ydGFudDt9I2dlTWVybWFpZE91dHB1dC0xNzM0NjI5MjgxMTc2IC5hY3RpdmVDcml0VGV4dDAsI2dlTWVybWFpZE91dHB1dC0xNzM0NjI5MjgxMTc2IC5hY3RpdmVDcml0VGV4dDEsI2dlTWVybWFpZE91dHB1dC0xNzM0NjI5MjgxMTc2IC5hY3RpdmVDcml0VGV4dDIsI2dlTWVybWFpZE91dHB1dC0xNzM0NjI5MjgxMTc2IC5hY3RpdmVDcml0VGV4dDN7ZmlsbDojMzMzIWltcG9ydGFudDt9I2dlTWVybWFpZE91dHB1dC0xNzM0NjI5MjgxMTc2IC50aXRsZVRleHR7dGV4dC1hbmNob3I6bWlkZGxlO2ZvbnQtc2l6ZToxOHB4O2ZpbGw6IzAwMDAwMDtmb250LWZhbWlseTondHJlYnVjaGV0IG1zJyx2ZXJkYW5hLGFyaWFsLHNhbnMtc2VyaWY7Zm9udC1mYW1pbHk6dmFyKC0tbWVybWFpZC1mb250LWZhbWlseSk7fSNnZU1lcm1haWRPdXRwdXQtMTczNDYyOTI4MTE3NiA6cm9vdHstLW1lcm1haWQtZm9udC1mYW1pbHk6InRyZWJ1Y2hldCBtcyIsdmVyZGFuYSxhcmlhbCxzYW5zLXNlcmlmO308L3N0eWxlPjxnPjwvZz48Zz48L2c+PGcgdGV4dC1hbmNob3I9Im1pZGRsZSIgZm9udC1mYW1pbHk9InNhbnMtc2VyaWYiIGZvbnQtc2l6ZT0iMTAiIGZpbGw9Im5vbmUiIHRyYW5zZm9ybT0idHJhbnNsYXRlKDc1LCAxNDYpIiBjbGFzcz0iZ3JpZCI+PHBhdGggZD0iTTAsLTExMVYwSDcyMlYtMTExIiBzdHJva2U9ImN1cnJlbnRDb2xvciIgY2xhc3M9ImRvbWFpbiI+PC9wYXRoPjxnIHRyYW5zZm9ybT0idHJhbnNsYXRlKDAsMCkiIG9wYWNpdHk9IjEiIGNsYXNzPSJ0aWNrIj48bGluZSB5Mj0iLTExMSIgc3Ryb2tlPSJjdXJyZW50Q29sb3IiPjwvbGluZT48dGV4dCBzdHlsZT0idGV4dC1hbmNob3I6IG1pZGRsZTsiIGZvbnQtc2l6ZT0iMTAiIHN0cm9rZT0ibm9uZSIgZHk9IjFlbSIgeT0iMyIgZmlsbD0iIzAwMCI+MjAyMC0wMy0wODwvdGV4dD48L2c+PGcgdHJhbnNmb3JtPSJ0cmFuc2xhdGUoODgsMCkiIG9wYWNpdHk9IjEiIGNsYXNzPSJ0aWNrIj48bGluZSB5Mj0iLTExMSIgc3Ryb2tlPSJjdXJyZW50Q29sb3IiPjwvbGluZT48dGV4dCBzdHlsZT0idGV4dC1hbmNob3I6IG1pZGRsZTsiIGZvbnQtc2l6ZT0iMTAiIHN0cm9rZT0ibm9uZSIgZHk9IjFlbSIgeT0iMyIgZmlsbD0iIzAwMCI+MjAyMC0wMy0xNTwvdGV4dD48L2c+PGcgdHJhbnNmb3JtPSJ0cmFuc2xhdGUoMTc3LDApIiBvcGFjaXR5PSIxIiBjbGFzcz0idGljayI+PGxpbmUgeTI9Ii0xMTEiIHN0cm9rZT0iY3VycmVudENvbG9yIj48L2xpbmU+PHRleHQgc3R5bGU9InRleHQtYW5jaG9yOiBtaWRkbGU7IiBmb250LXNpemU9IjEwIiBzdHJva2U9Im5vbmUiIGR5PSIxZW0iIHk9IjMiIGZpbGw9IiMwMDAiPjIwMjAtMDMtMjI8L3RleHQ+PC9nPjxnIHRyYW5zZm9ybT0idHJhbnNsYXRlKDI2NiwwKSIgb3BhY2l0eT0iMSIgY2xhc3M9InRpY2siPjxsaW5lIHkyPSItMTExIiBzdHJva2U9ImN1cnJlbnRDb2xvciI+PC9saW5lPjx0ZXh0IHN0eWxlPSJ0ZXh0LWFuY2hvcjogbWlkZGxlOyIgZm9udC1zaXplPSIxMCIgc3Ryb2tlPSJub25lIiBkeT0iMWVtIiB5PSIzIiBmaWxsPSIjMDAwIj4yMDIwLTAzLTI5PC90ZXh0PjwvZz48ZyB0cmFuc2Zvcm09InRyYW5zbGF0ZSgzNTQsMCkiIG9wYWNpdHk9IjEiIGNsYXNzPSJ0aWNrIj48bGluZSB5Mj0iLTExMSIgc3Ryb2tlPSJjdXJyZW50Q29sb3IiPjwvbGluZT48dGV4dCBzdHlsZT0idGV4dC1hbmNob3I6IG1pZGRsZTsiIGZvbnQtc2l6ZT0iMTAiIHN0cm9rZT0ibm9uZSIgZHk9IjFlbSIgeT0iMyIgZmlsbD0iIzAwMCI+MjAyMC0wNC0wNTwvdGV4dD48L2c+PGcgdHJhbnNmb3JtPSJ0cmFuc2xhdGUoNDQzLDApIiBvcGFjaXR5PSIxIiBjbGFzcz0idGljayI+PGxpbmUgeTI9Ii0xMTEiIHN0cm9rZT0iY3VycmVudENvbG9yIj48L2xpbmU+PHRleHQgc3R5bGU9InRleHQtYW5jaG9yOiBtaWRkbGU7IiBmb250LXNpemU9IjEwIiBzdHJva2U9Im5vbmUiIGR5PSIxZW0iIHk9IjMiIGZpbGw9IiMwMDAiPjIwMjAtMDQtMTI8L3RleHQ+PC9nPjxnIHRyYW5zZm9ybT0idHJhbnNsYXRlKDUzMiwwKSIgb3BhY2l0eT0iMSIgY2xhc3M9InRpY2siPjxsaW5lIHkyPSItMTExIiBzdHJva2U9ImN1cnJlbnRDb2xvciI+PC9saW5lPjx0ZXh0IHN0eWxlPSJ0ZXh0LWFuY2hvcjogbWlkZGxlOyIgZm9udC1zaXplPSIxMCIgc3Ryb2tlPSJub25lIiBkeT0iMWVtIiB5PSIzIiBmaWxsPSIjMDAwIj4yMDIwLTA0LTE5PC90ZXh0PjwvZz48ZyB0cmFuc2Zvcm09InRyYW5zbGF0ZSg2MjEsMCkiIG9wYWNpdHk9IjEiIGNsYXNzPSJ0aWNrIj48bGluZSB5Mj0iLTExMSIgc3Ryb2tlPSJjdXJyZW50Q29sb3IiPjwvbGluZT48dGV4dCBzdHlsZT0idGV4dC1hbmNob3I6IG1pZGRsZTsiIGZvbnQtc2l6ZT0iMTAiIHN0cm9rZT0ibm9uZSIgZHk9IjFlbSIgeT0iMyIgZmlsbD0iIzAwMCI+MjAyMC0wNC0yNjwvdGV4dD48L2c+PGcgdHJhbnNmb3JtPSJ0cmFuc2xhdGUoNzA5LDApIiBvcGFjaXR5PSIxIiBjbGFzcz0idGljayI+PGxpbmUgeTI9Ii0xMTEiIHN0cm9rZT0iY3VycmVudENvbG9yIj48L2xpbmU+PHRleHQgc3R5bGU9InRleHQtYW5jaG9yOiBtaWRkbGU7IiBmb250LXNpemU9IjEwIiBzdHJva2U9Im5vbmUiIGR5PSIxZW0iIHk9IjMiIGZpbGw9IiMwMDAiPjIwMjAtMDUtMDM8L3RleHQ+PC9nPjwvZz48Zz48cmVjdCBjbGFzcz0ic2VjdGlvbiBzZWN0aW9uMCIgaGVpZ2h0PSIyNCIgd2lkdGg9IjgzNC41IiB5PSI0OCIgeD0iMCI+PC9yZWN0PjxyZWN0IGNsYXNzPSJzZWN0aW9uIHNlY3Rpb24xIiBoZWlnaHQ9IjI0IiB3aWR0aD0iODM0LjUiIHk9Ijk2IiB4PSIwIj48L3JlY3Q+PHJlY3QgY2xhc3M9InNlY3Rpb24gc2VjdGlvbjAiIGhlaWdodD0iMjQiIHdpZHRoPSI4MzQuNSIgeT0iNzIiIHg9IjAiPjwvcmVjdD48cmVjdCBjbGFzcz0ic2VjdGlvbiBzZWN0aW9uMSIgaGVpZ2h0PSIyNCIgd2lkdGg9IjgzNC41IiB5PSIxMjAiIHg9IjAiPjwvcmVjdD48L2c+PGc+PHJlY3QgY2xhc3M9InRhc2sgZG9uZTAiIHRyYW5zZm9ybS1vcmlnaW49IjI4NHB4IDYwcHgiIGhlaWdodD0iMjAiIHdpZHRoPSI0MTgiIHk9IjUwIiB4PSI3NSIgcnk9IjMiIHJ4PSIzIiBpZD0iYTEiPjwvcmVjdD48cmVjdCBjbGFzcz0idGFzayBhY3RpdmVDcml0MSIgdHJhbnNmb3JtLW9yaWdpbj0iNDE2LjVweCAxMDhweCIgaGVpZ2h0PSIyMCIgd2lkdGg9IjI1MyIgeT0iOTgiIHg9IjI5MCIgcnk9IjMiIHJ4PSIzIiBpZD0idGFzazIiPjwvcmVjdD48cmVjdCBjbGFzcz0idGFzayB0YXNrMCIgdHJhbnNmb3JtLW9yaWdpbj0iNjE5LjVweCA4NHB4IiBoZWlnaHQ9IjIwIiB3aWR0aD0iMjUzIiB5PSI3NCIgeD0iNDkzIiByeT0iMyIgcng9IjMiIGlkPSJ0YXNrMSI+PC9yZWN0PjxyZWN0IGNsYXNzPSJ0YXNrIGNyaXQxIiB0cmFuc2Zvcm0tb3JpZ2luPSI2NzBweCAxMzJweCIgaGVpZ2h0PSIyMCIgd2lkdGg9IjI1NCIgeT0iMTIyIiB4PSI1NDMiIHJ5PSIzIiByeD0iMyIgaWQ9InRhc2szIj48L3JlY3Q+PHRleHQgY2xhc3M9InRhc2tUZXh0IHRhc2tUZXh0MCAgZG9uZVRleHQwIHdpZHRoLTEyNC4wOTM3NSIgeT0iNjMuNSIgeD0iMjg0IiBmb250LXNpemU9IjExIiBpZD0iYTEtdGV4dCI+UmVzZWFyY2ggJmFtcDsgcmVxdWlyZW1lbnRzIDwvdGV4dD48dGV4dCBjbGFzcz0idGFza1RleHQgdGFza1RleHQxIGFjdGl2ZUNyaXRUZXh0MSBjcml0VGV4dDEgd2lkdGgtNzguMjU3ODEyNSIgeT0iMTExLjUiIHg9IjQxNi41IiBmb250LXNpemU9IjExIiBpZD0idGFzazItdGV4dCI+SW1wbGVtZW50YXRpb24gICAgICA8L3RleHQ+PHRleHQgY2xhc3M9InRhc2tUZXh0IHRhc2tUZXh0MCAgd2lkdGgtMTIzLjI0MjE4NzUiIHk9Ijg3LjUiIHg9IjYxOS41IiBmb250LXNpemU9IjExIiBpZD0idGFzazEtdGV4dCI+UmV2aWV3ICZhbXA7IGRvY3VtZW50YXRpb24gPC90ZXh0Pjx0ZXh0IGNsYXNzPSJ0YXNrVGV4dCB0YXNrVGV4dDEgIGNyaXRUZXh0MSB3aWR0aC0zNC41IiB5PSIxMzUuNSIgeD0iNjcwIiBmb250LXNpemU9IjExIiBpZD0idGFzazMtdGV4dCI+VGVzdGluZyAgICAgIDwvdGV4dD48L2c+PGc+PHRleHQgY2xhc3M9InNlY3Rpb25UaXRsZSBzZWN0aW9uVGl0bGUwIiBmb250LXNpemU9IjExIiB5PSI3NCIgeD0iMTAiIGR5PSIwZW0iPjx0c3BhbiB4PSIxMCIgYWxpZ25tZW50LWJhc2VsaW5lPSJjZW50cmFsIj5UZWFtIDE8L3RzcGFuPjwvdGV4dD48dGV4dCBjbGFzcz0ic2VjdGlvblRpdGxlIHNlY3Rpb25UaXRsZTEiIGZvbnQtc2l6ZT0iMTEiIHk9IjEyMiIgeD0iMTAiIGR5PSIwZW0iPjx0c3BhbiB4PSIxMCIgYWxpZ25tZW50LWJhc2VsaW5lPSJjZW50cmFsIj5UZWFtIDI8L3RzcGFuPjwvdGV4dD48L2c+PGcgY2xhc3M9InRvZGF5Ij48bGluZSBjbGFzcz0idG9kYXkiIHkyPSIxNzEiIHkxPSIyNSIgeDI9IjIyMjI2IiB4MT0iMjIyMjYiPjwvbGluZT48L2c+PHRleHQgY2xhc3M9InRpdGxlVGV4dCIgeT0iMjUiIHg9IjQzNiI+RXhhbXBsZSBHYW50dCBkaWFncmFtPC90ZXh0Pjwvc3ZnPg==;" parent="1" vertex="1">
                        <mxGeometry x="70" y="550" width="550" height="120" as="geometry"/>
                    </mxCell>
                </UserObject>
                <UserObject label="" mermaidData="{&#10;  &quot;data&quot;: &quot;classDiagram\n   Person &lt;|-- Student\n   Person &lt;|-- Professor\n   Person : +String name\n   Person : +String phoneNumber\n   Person : +String emailAddress\n   Person: +purchaseParkingPass()\n   Address \&quot;1\&quot; &lt;-- \&quot;0..1\&quot; Person:lives at\n   class Student{\n      +int studentNumber\n      +int averageMark\n      +isEligibleToEnrol()\n      +getSeminarsTaken()\n    }\n    class Professor{\n      +int salary\n    }\n    class Address{\n      +String street\n      +String city\n      +String state\n      +int postalCode\n      +String country\n      -validate()\n      +outputAsLabel()  \n    }\t&quot;,&#10;  &quot;config&quot;: {&#10;    &quot;startOnLoad&quot;: false,&#10;    &quot;themeCSS&quot;: &quot;&quot;,&#10;    &quot;theme&quot;: &quot;neutral&quot;,&#10;    &quot;arrowMarkerAbsolute&quot;: false,&#10;    &quot;flowchart&quot;: {&#10;      &quot;diagramPadding&quot;: 8,&#10;      &quot;htmlLabels&quot;: false,&#10;      &quot;nodeSpacing&quot;: 50,&#10;      &quot;rankSpacing&quot;: 50,&#10;      &quot;curve&quot;: &quot;linear&quot;,&#10;      &quot;padding&quot;: 15,&#10;      &quot;useMaxWidth&quot;: true&#10;    },&#10;    &quot;sequence&quot;: {&#10;      &quot;activationWidth&quot;: 10,&#10;      &quot;diagramMarginX&quot;: 50,&#10;      &quot;diagramMarginY&quot;: 10,&#10;      &quot;actorMargin&quot;: 50,&#10;      &quot;width&quot;: 150,&#10;      &quot;height&quot;: 65,&#10;      &quot;boxMargin&quot;: 10,&#10;      &quot;boxTextMargin&quot;: 5,&#10;      &quot;noteMargin&quot;: 10,&#10;      &quot;messageMargin&quot;: 35,&#10;      &quot;messageAlign&quot;: &quot;center&quot;,&#10;      &quot;mirrorActors&quot;: true,&#10;      &quot;bottomMarginAdj&quot;: 1,&#10;      &quot;useMaxWidth&quot;: true,&#10;      &quot;rightAngles&quot;: false,&#10;      &quot;showSequenceNumbers&quot;: false,&#10;      &quot;actorFontSize&quot;: 14,&#10;      &quot;actorFontFamily&quot;: &quot;\&quot;Open-Sans\&quot;, \&quot;sans-serif\&quot;&quot;,&#10;      &quot;actorFontWeight&quot;: 400,&#10;      &quot;noteFontSize&quot;: 14,&#10;      &quot;noteFontFamily&quot;: &quot;\&quot;trebuchet ms\&quot;, verdana, arial&quot;,&#10;      &quot;noteFontWeight&quot;: 400,&#10;      &quot;noteAlign&quot;: &quot;center&quot;,&#10;      &quot;messageFontSize&quot;: 16,&#10;      &quot;messageFontFamily&quot;: &quot;\&quot;trebuchet ms\&quot;, verdana, arial&quot;,&#10;      &quot;messageFontWeight&quot;: 400,&#10;      &quot;wrap&quot;: false,&#10;      &quot;wrapPadding&quot;: 10,&#10;      &quot;labelBoxWidth&quot;: 50,&#10;      &quot;labelBoxHeight&quot;: 20&#10;    },&#10;    &quot;gantt&quot;: {&#10;      &quot;titleTopMargin&quot;: 25,&#10;      &quot;barHeight&quot;: 20,&#10;      &quot;barGap&quot;: 4,&#10;      &quot;topPadding&quot;: 50,&#10;      &quot;leftPadding&quot;: 75,&#10;      &quot;gridLineStartPadding&quot;: 35,&#10;      &quot;fontSize&quot;: 11,&#10;      &quot;fontFamily&quot;: &quot;\&quot;Open-Sans\&quot;, \&quot;sans-serif\&quot;&quot;,&#10;      &quot;numberSectionStyles&quot;: 4,&#10;      &quot;axisFormat&quot;: &quot;%Y-%m-%d&quot;,&#10;      &quot;useMaxWidth&quot;: true&#10;    },&#10;    &quot;journey&quot;: {&#10;      &quot;diagramMarginX&quot;: 50,&#10;      &quot;diagramMarginY&quot;: 10,&#10;      &quot;actorMargin&quot;: 50,&#10;      &quot;width&quot;: 150,&#10;      &quot;height&quot;: 65,&#10;      &quot;boxMargin&quot;: 10,&#10;      &quot;boxTextMargin&quot;: 5,&#10;      &quot;noteMargin&quot;: 10,&#10;      &quot;messageMargin&quot;: 35,&#10;      &quot;messageAlign&quot;: &quot;center&quot;,&#10;      &quot;bottomMarginAdj&quot;: 1,&#10;      &quot;useMaxWidth&quot;: true,&#10;      &quot;rightAngles&quot;: false&#10;    },&#10;    &quot;class&quot;: {&#10;      &quot;arrowMarkerAbsolute&quot;: false,&#10;      &quot;useMaxWidth&quot;: true&#10;    },&#10;    &quot;git&quot;: {&#10;      &quot;arrowMarkerAbsolute&quot;: false,&#10;      &quot;useMaxWidth&quot;: true&#10;    },&#10;    &quot;state&quot;: {&#10;      &quot;dividerMargin&quot;: 10,&#10;      &quot;sizeUnit&quot;: 5,&#10;      &quot;padding&quot;: 8,&#10;      &quot;textHeight&quot;: 10,&#10;      &quot;titleShift&quot;: -15,&#10;      &quot;noteMargin&quot;: 10,&#10;      &quot;forkWidth&quot;: 70,&#10;      &quot;forkHeight&quot;: 7,&#10;      &quot;miniPadding&quot;: 2,&#10;      &quot;fontSizeFactor&quot;: 5.02,&#10;      &quot;fontSize&quot;: 24,&#10;      &quot;labelHeight&quot;: 16,&#10;      &quot;edgeLengthFactor&quot;: &quot;20&quot;,&#10;      &quot;compositTitleSize&quot;: 35,&#10;      &quot;radius&quot;: 5&#10;    },&#10;    &quot;er&quot;: {&#10;      &quot;diagramPadding&quot;: 20,&#10;      &quot;layoutDirection&quot;: &quot;TB&quot;,&#10;      &quot;minEntityWidth&quot;: 100,&#10;      &quot;minEntityHeight&quot;: 75,&#10;      &quot;entityPadding&quot;: 15,&#10;      &quot;stroke&quot;: &quot;grey&quot;,&#10;      &quot;fill&quot;: &quot;honeydew&quot;,&#10;      &quot;fontSize&quot;: 12,&#10;      &quot;useMaxWidth&quot;: true&#10;    },&#10;    &quot;pie&quot;: {&#10;      &quot;useMaxWidth&quot;: true&#10;    }&#10;  }&#10;}" id="13">
                    <mxCell style="shape=image;noLabel=1;verticalAlign=top;imageAspect=1;image=data:image/svg+xml,PHN2ZyBhcmlhLWxhYmVsbGVkYnk9ImNoYXJ0LXRpdGxlLWdlTWVybWFpZE91dHB1dC0xNzM0NjI5MzM2MzI2IGNoYXJ0LWRlc2MtZ2VNZXJtYWlkT3V0cHV0LTE3MzQ2MjkzMzYzMjYiIHJvbGU9ImltZyIgdmlld0JveD0iMCAwIDMxOS41NzAzMTI1IDY0NC41IiBzdHlsZT0ibWF4LXdpZHRoOiAzMTkuNTcwMzEyNXB4OyIgaGVpZ2h0PSI2NDQuNSIgeG1sbnM6eGxpbms9Imh0dHA6Ly93d3cudzMub3JnLzE5OTkveGxpbmsiIHhtbG5zPSJodHRwOi8vd3d3LnczLm9yZy8yMDAwL3N2ZyIgd2lkdGg9IjEwMCUiIGlkPSJnZU1lcm1haWRPdXRwdXQtMTczNDYyOTMzNjMyNiI+PHRpdGxlIGlkPSJjaGFydC10aXRsZS1nZU1lcm1haWRPdXRwdXQtMTczNDYyOTMzNjMyNiI+PC90aXRsZT48ZGVzYyBpZD0iY2hhcnQtZGVzYy1nZU1lcm1haWRPdXRwdXQtMTczNDYyOTMzNjMyNiI+PC9kZXNjPjxzdHlsZT4jZ2VNZXJtYWlkT3V0cHV0LTE3MzQ2MjkzMzYzMjYge2ZvbnQtZmFtaWx5OiJ0cmVidWNoZXQgbXMiLHZlcmRhbmEsYXJpYWwsc2Fucy1zZXJpZjtmb250LXNpemU6MTZweDtmaWxsOiMwMDAwMDA7fSNnZU1lcm1haWRPdXRwdXQtMTczNDYyOTMzNjMyNiAuZXJyb3ItaWNvbntmaWxsOiM1NTIyMjI7fSNnZU1lcm1haWRPdXRwdXQtMTczNDYyOTMzNjMyNiAuZXJyb3ItdGV4dHtmaWxsOiM1NTIyMjI7c3Ryb2tlOiM1NTIyMjI7fSNnZU1lcm1haWRPdXRwdXQtMTczNDYyOTMzNjMyNiAuZWRnZS10aGlja25lc3Mtbm9ybWFse3N0cm9rZS13aWR0aDoycHg7fSNnZU1lcm1haWRPdXRwdXQtMTczNDYyOTMzNjMyNiAuZWRnZS10aGlja25lc3MtdGhpY2t7c3Ryb2tlLXdpZHRoOjMuNXB4O30jZ2VNZXJtYWlkT3V0cHV0LTE3MzQ2MjkzMzYzMjYgLmVkZ2UtcGF0dGVybi1zb2xpZHtzdHJva2UtZGFzaGFycmF5OjA7fSNnZU1lcm1haWRPdXRwdXQtMTczNDYyOTMzNjMyNiAuZWRnZS1wYXR0ZXJuLWRhc2hlZHtzdHJva2UtZGFzaGFycmF5OjM7fSNnZU1lcm1haWRPdXRwdXQtMTczNDYyOTMzNjMyNiAuZWRnZS1wYXR0ZXJuLWRvdHRlZHtzdHJva2UtZGFzaGFycmF5OjI7fSNnZU1lcm1haWRPdXRwdXQtMTczNDYyOTMzNjMyNiAubWFya2Vye2ZpbGw6IzY2NjtzdHJva2U6IzY2Njt9I2dlTWVybWFpZE91dHB1dC0xNzM0NjI5MzM2MzI2IC5tYXJrZXIuY3Jvc3N7c3Ryb2tlOiM2NjY7fSNnZU1lcm1haWRPdXRwdXQtMTczNDYyOTMzNjMyNiBzdmd7Zm9udC1mYW1pbHk6InRyZWJ1Y2hldCBtcyIsdmVyZGFuYSxhcmlhbCxzYW5zLXNlcmlmO2ZvbnQtc2l6ZToxNnB4O30jZ2VNZXJtYWlkT3V0cHV0LTE3MzQ2MjkzMzYzMjYgZy5jbGFzc0dyb3VwIHRleHR7ZmlsbDojOTk5O2ZpbGw6IzExMTExMTtzdHJva2U6bm9uZTtmb250LWZhbWlseToidHJlYnVjaGV0IG1zIix2ZXJkYW5hLGFyaWFsLHNhbnMtc2VyaWY7Zm9udC1zaXplOjEwcHg7fSNnZU1lcm1haWRPdXRwdXQtMTczNDYyOTMzNjMyNiBnLmNsYXNzR3JvdXAgdGV4dCAudGl0bGV7Zm9udC13ZWlnaHQ6Ym9sZGVyO30jZ2VNZXJtYWlkT3V0cHV0LTE3MzQ2MjkzMzYzMjYgLm5vZGVMYWJlbCwjZ2VNZXJtYWlkT3V0cHV0LTE3MzQ2MjkzMzYzMjYgLmVkZ2VMYWJlbHtjb2xvcjojMTExMTExO30jZ2VNZXJtYWlkT3V0cHV0LTE3MzQ2MjkzMzYzMjYgLmVkZ2VMYWJlbCAubGFiZWwgcmVjdHtmaWxsOiNlZWU7fSNnZU1lcm1haWRPdXRwdXQtMTczNDYyOTMzNjMyNiAubGFiZWwgdGV4dHtmaWxsOiMxMTExMTE7fSNnZU1lcm1haWRPdXRwdXQtMTczNDYyOTMzNjMyNiAuZWRnZUxhYmVsIC5sYWJlbCBzcGFue2JhY2tncm91bmQ6I2VlZTt9I2dlTWVybWFpZE91dHB1dC0xNzM0NjI5MzM2MzI2IC5jbGFzc1RpdGxle2ZvbnQtd2VpZ2h0OmJvbGRlcjt9I2dlTWVybWFpZE91dHB1dC0xNzM0NjI5MzM2MzI2IC5ub2RlIHJlY3QsI2dlTWVybWFpZE91dHB1dC0xNzM0NjI5MzM2MzI2IC5ub2RlIGNpcmNsZSwjZ2VNZXJtYWlkT3V0cHV0LTE3MzQ2MjkzMzYzMjYgLm5vZGUgZWxsaXBzZSwjZ2VNZXJtYWlkT3V0cHV0LTE3MzQ2MjkzMzYzMjYgLm5vZGUgcG9seWdvbiwjZ2VNZXJtYWlkT3V0cHV0LTE3MzQ2MjkzMzYzMjYgLm5vZGUgcGF0aHtmaWxsOiNlZWU7c3Ryb2tlOiM5OTk7c3Ryb2tlLXdpZHRoOjFweDt9I2dlTWVybWFpZE91dHB1dC0xNzM0NjI5MzM2MzI2IC5kaXZpZGVye3N0cm9rZTojOTk5O3N0cm9rZToxO30jZ2VNZXJtYWlkT3V0cHV0LTE3MzQ2MjkzMzYzMjYgZy5jbGlja2FibGV7Y3Vyc29yOnBvaW50ZXI7fSNnZU1lcm1haWRPdXRwdXQtMTczNDYyOTMzNjMyNiBnLmNsYXNzR3JvdXAgcmVjdHtmaWxsOiNlZWU7c3Ryb2tlOiM5OTk7fSNnZU1lcm1haWRPdXRwdXQtMTczNDYyOTMzNjMyNiBnLmNsYXNzR3JvdXAgbGluZXtzdHJva2U6Izk5OTtzdHJva2Utd2lkdGg6MTt9I2dlTWVybWFpZE91dHB1dC0xNzM0NjI5MzM2MzI2IC5jbGFzc0xhYmVsIC5ib3h7c3Ryb2tlOm5vbmU7c3Ryb2tlLXdpZHRoOjA7ZmlsbDojZWVlO29wYWNpdHk6MC41O30jZ2VNZXJtYWlkT3V0cHV0LTE3MzQ2MjkzMzYzMjYgLmNsYXNzTGFiZWwgLmxhYmVse2ZpbGw6Izk5OTtmb250LXNpemU6MTBweDt9I2dlTWVybWFpZE91dHB1dC0xNzM0NjI5MzM2MzI2IC5yZWxhdGlvbntzdHJva2U6IzY2NjtzdHJva2Utd2lkdGg6MTtmaWxsOm5vbmU7fSNnZU1lcm1haWRPdXRwdXQtMTczNDYyOTMzNjMyNiAuZGFzaGVkLWxpbmV7c3Ryb2tlLWRhc2hhcnJheTozO30jZ2VNZXJtYWlkT3V0cHV0LTE3MzQ2MjkzMzYzMjYgI2NvbXBvc2l0aW9uU3RhcnQsI2dlTWVybWFpZE91dHB1dC0xNzM0NjI5MzM2MzI2IC5jb21wb3NpdGlvbntmaWxsOiM2NjYhaW1wb3J0YW50O3N0cm9rZTojNjY2IWltcG9ydGFudDtzdHJva2Utd2lkdGg6MTt9I2dlTWVybWFpZE91dHB1dC0xNzM0NjI5MzM2MzI2ICNjb21wb3NpdGlvbkVuZCwjZ2VNZXJtYWlkT3V0cHV0LTE3MzQ2MjkzMzYzMjYgLmNvbXBvc2l0aW9ue2ZpbGw6IzY2NiFpbXBvcnRhbnQ7c3Ryb2tlOiM2NjYhaW1wb3J0YW50O3N0cm9rZS13aWR0aDoxO30jZ2VNZXJtYWlkT3V0cHV0LTE3MzQ2MjkzMzYzMjYgI2RlcGVuZGVuY3lTdGFydCwjZ2VNZXJtYWlkT3V0cHV0LTE3MzQ2MjkzMzYzMjYgLmRlcGVuZGVuY3l7ZmlsbDojNjY2IWltcG9ydGFudDtzdHJva2U6IzY2NiFpbXBvcnRhbnQ7c3Ryb2tlLXdpZHRoOjE7fSNnZU1lcm1haWRPdXRwdXQtMTczNDYyOTMzNjMyNiAjZGVwZW5kZW5jeVN0YXJ0LCNnZU1lcm1haWRPdXRwdXQtMTczNDYyOTMzNjMyNiAuZGVwZW5kZW5jeXtmaWxsOiM2NjYhaW1wb3J0YW50O3N0cm9rZTojNjY2IWltcG9ydGFudDtzdHJva2Utd2lkdGg6MTt9I2dlTWVybWFpZE91dHB1dC0xNzM0NjI5MzM2MzI2ICNleHRlbnNpb25TdGFydCwjZ2VNZXJtYWlkT3V0cHV0LTE3MzQ2MjkzMzYzMjYgLmV4dGVuc2lvbntmaWxsOiM2NjYhaW1wb3J0YW50O3N0cm9rZTojNjY2IWltcG9ydGFudDtzdHJva2Utd2lkdGg6MTt9I2dlTWVybWFpZE91dHB1dC0xNzM0NjI5MzM2MzI2ICNleHRlbnNpb25FbmQsI2dlTWVybWFpZE91dHB1dC0xNzM0NjI5MzM2MzI2IC5leHRlbnNpb257ZmlsbDojNjY2IWltcG9ydGFudDtzdHJva2U6IzY2NiFpbXBvcnRhbnQ7c3Ryb2tlLXdpZHRoOjE7fSNnZU1lcm1haWRPdXRwdXQtMTczNDYyOTMzNjMyNiAjYWdncmVnYXRpb25TdGFydCwjZ2VNZXJtYWlkT3V0cHV0LTE3MzQ2MjkzMzYzMjYgLmFnZ3JlZ2F0aW9ue2ZpbGw6I2VlZSFpbXBvcnRhbnQ7c3Ryb2tlOiM2NjYhaW1wb3J0YW50O3N0cm9rZS13aWR0aDoxO30jZ2VNZXJtYWlkT3V0cHV0LTE3MzQ2MjkzMzYzMjYgI2FnZ3JlZ2F0aW9uRW5kLCNnZU1lcm1haWRPdXRwdXQtMTczNDYyOTMzNjMyNiAuYWdncmVnYXRpb257ZmlsbDojZWVlIWltcG9ydGFudDtzdHJva2U6IzY2NiFpbXBvcnRhbnQ7c3Ryb2tlLXdpZHRoOjE7fSNnZU1lcm1haWRPdXRwdXQtMTczNDYyOTMzNjMyNiAuZWRnZVRlcm1pbmFsc3tmb250LXNpemU6MTFweDt9I2dlTWVybWFpZE91dHB1dC0xNzM0NjI5MzM2MzI2IDpyb290ey0tbWVybWFpZC1mb250LWZhbWlseToidHJlYnVjaGV0IG1zIix2ZXJkYW5hLGFyaWFsLHNhbnMtc2VyaWY7fTwvc3R5bGU+PGcgdHJhbnNmb3JtPSJ0cmFuc2xhdGUoMCwgMCkiPjxkZWZzPjxtYXJrZXIgb3JpZW50PSJhdXRvIiBtYXJrZXJIZWlnaHQ9IjI0MCIgbWFya2VyV2lkdGg9IjE5MCIgcmVmWT0iNyIgcmVmWD0iMCIgY2xhc3M9Im1hcmtlciBhZ2dyZWdhdGlvbiBjbGFzc0RpYWdyYW0iIGlkPSJjbGFzc0RpYWdyYW0tYWdncmVnYXRpb25TdGFydCI+PHBhdGggZD0iTSAxOCw3IEw5LDEzIEwxLDcgTDksMSBaIj48L3BhdGg+PC9tYXJrZXI+PC9kZWZzPjxkZWZzPjxtYXJrZXIgb3JpZW50PSJhdXRvIiBtYXJrZXJIZWlnaHQ9IjI4IiBtYXJrZXJXaWR0aD0iMjAiIHJlZlk9IjciIHJlZlg9IjE5IiBjbGFzcz0ibWFya2VyIGFnZ3JlZ2F0aW9uIGNsYXNzRGlhZ3JhbSIgaWQ9ImNsYXNzRGlhZ3JhbS1hZ2dyZWdhdGlvbkVuZCI+PHBhdGggZD0iTSAxOCw3IEw5LDEzIEwxLDcgTDksMSBaIj48L3BhdGg+PC9tYXJrZXI+PC9kZWZzPjxkZWZzPjxtYXJrZXIgb3JpZW50PSJhdXRvIiBtYXJrZXJIZWlnaHQ9IjI0MCIgbWFya2VyV2lkdGg9IjE5MCIgcmVmWT0iNyIgcmVmWD0iMCIgY2xhc3M9Im1hcmtlciBleHRlbnNpb24gY2xhc3NEaWFncmFtIiBpZD0iY2xhc3NEaWFncmFtLWV4dGVuc2lvblN0YXJ0Ij48cGF0aCBkPSJNIDEsNyBMMTgsMTMgViAxIFoiPjwvcGF0aD48L21hcmtlcj48L2RlZnM+PGRlZnM+PG1hcmtlciBvcmllbnQ9ImF1dG8iIG1hcmtlckhlaWdodD0iMjgiIG1hcmtlcldpZHRoPSIyMCIgcmVmWT0iNyIgcmVmWD0iMTkiIGNsYXNzPSJtYXJrZXIgZXh0ZW5zaW9uIGNsYXNzRGlhZ3JhbSIgaWQ9ImNsYXNzRGlhZ3JhbS1leHRlbnNpb25FbmQiPjxwYXRoIGQ9Ik0gMSwxIFYgMTMgTDE4LDcgWiI+PC9wYXRoPjwvbWFya2VyPjwvZGVmcz48ZGVmcz48bWFya2VyIG9yaWVudD0iYXV0byIgbWFya2VySGVpZ2h0PSIyNDAiIG1hcmtlcldpZHRoPSIxOTAiIHJlZlk9IjciIHJlZlg9IjAiIGNsYXNzPSJtYXJrZXIgY29tcG9zaXRpb24gY2xhc3NEaWFncmFtIiBpZD0iY2xhc3NEaWFncmFtLWNvbXBvc2l0aW9uU3RhcnQiPjxwYXRoIGQ9Ik0gMTgsNyBMOSwxMyBMMSw3IEw5LDEgWiI+PC9wYXRoPjwvbWFya2VyPjwvZGVmcz48ZGVmcz48bWFya2VyIG9yaWVudD0iYXV0byIgbWFya2VySGVpZ2h0PSIyOCIgbWFya2VyV2lkdGg9IjIwIiByZWZZPSI3IiByZWZYPSIxOSIgY2xhc3M9Im1hcmtlciBjb21wb3NpdGlvbiBjbGFzc0RpYWdyYW0iIGlkPSJjbGFzc0RpYWdyYW0tY29tcG9zaXRpb25FbmQiPjxwYXRoIGQ9Ik0gMTgsNyBMOSwxMyBMMSw3IEw5LDEgWiI+PC9wYXRoPjwvbWFya2VyPjwvZGVmcz48ZGVmcz48bWFya2VyIG9yaWVudD0iYXV0byIgbWFya2VySGVpZ2h0PSIyNDAiIG1hcmtlcldpZHRoPSIxOTAiIHJlZlk9IjciIHJlZlg9IjAiIGNsYXNzPSJtYXJrZXIgZGVwZW5kZW5jeSBjbGFzc0RpYWdyYW0iIGlkPSJjbGFzc0RpYWdyYW0tZGVwZW5kZW5jeVN0YXJ0Ij48cGF0aCBkPSJNIDUsNyBMOSwxMyBMMSw3IEw5LDEgWiI+PC9wYXRoPjwvbWFya2VyPjwvZGVmcz48ZGVmcz48bWFya2VyIG9yaWVudD0iYXV0byIgbWFya2VySGVpZ2h0PSIyOCIgbWFya2VyV2lkdGg9IjIwIiByZWZZPSI3IiByZWZYPSIxOSIgY2xhc3M9Im1hcmtlciBkZXBlbmRlbmN5IGNsYXNzRGlhZ3JhbSIgaWQ9ImNsYXNzRGlhZ3JhbS1kZXBlbmRlbmN5RW5kIj48cGF0aCBkPSJNIDE4LDcgTDksMTMgTDE0LDcgTDksMSBaIj48L3BhdGg+PC9tYXJrZXI+PC9kZWZzPjxnIGNsYXNzPSJyb290Ij48ZyBjbGFzcz0iY2x1c3RlcnMiPjwvZz48ZyBjbGFzcz0iZWRnZVBhdGhzIj48cGF0aCBtYXJrZXItc3RhcnQ9InVybCgjY2xhc3NEaWFncmFtLWV4dGVuc2lvblN0YXJ0KSIgc3R5bGU9ImZpbGw6bm9uZSIgY2xhc3M9ImVkZ2UtcGF0dGVybi1zb2xpZCByZWxhdGlvbiIgaWQ9ImlkMSIgZD0iTTExMi4xNzQ3NDI4Nzk3NDY4Myw0MzlMMTA4LjQ0NTA5ODIzMzEyMjM1LDQ0My4xNjY2NjY2NjY2NjY3QzEwNC43MTU0NTM1ODY0OTc4Nyw0NDcuMzMzMzMzMzMzMzMzMyw5Ny4yNTYxNjQyOTMyNDg5NCw0NTUuNjY2NjY2NjY2NjY2Nyw5My41MjY1MTk2NDY2MjQ0OCw0NjRDODkuNzk2ODc1LDQ3Mi4zMzMzMzMzMzMzMzMzLDg5Ljc5Njg3NSw0ODAuNjY2NjY2NjY2NjY2Nyw4OS43OTY4NzUsNDg0LjgzMzMzMzMzMzMzMzNMODkuNzk2ODc1LDQ4OSI+PC9wYXRoPjxwYXRoIG1hcmtlci1zdGFydD0idXJsKCNjbGFzc0RpYWdyYW0tZXh0ZW5zaW9uU3RhcnQpIiBzdHlsZT0iZmlsbDpub25lIiBjbGFzcz0iZWRnZS1wYXR0ZXJuLXNvbGlkIHJlbGF0aW9uIiBpZD0iaWQyIiBkPSJNMjQ0LjIwNDE2MzM3MDI1MzE4LDQzOUwyNDcuOTMzODA4MDE2ODc3NjMsNDQzLjE2NjY2NjY2NjY2NjdDMjUxLjY2MzQ1MjY2MzUwMjEsNDQ3LjMzMzMzMzMzMzMzMzMsMjU5LjEyMjc0MTk1Njc1MTA0LDQ1NS42NjY2NjY2NjY2NjY3LDI2Mi44NTIzODY2MDMzNzU1LDQ2OS42MjVDMjY2LjU4MjAzMTI1LDQ4My41ODMzMzMzMzMzMzMzLDI2Ni41ODIwMzEyNSw1MDMuMTY2NjY2NjY2NjY2NywyNjYuNTgyMDMxMjUsNTEyLjk1ODMzMzMzMzMzMzRMMjY2LjU4MjAzMTI1LDUyMi43NSI+PC9wYXRoPjxwYXRoIG1hcmtlci1zdGFydD0idXJsKCNjbGFzc0RpYWdyYW0tZGVwZW5kZW5jeVN0YXJ0KSIgc3R5bGU9ImZpbGw6bm9uZSIgY2xhc3M9ImVkZ2UtcGF0dGVybi1zb2xpZCByZWxhdGlvbiIgaWQ9ImlkMyIgZD0iTTE3OC4xODk0NTMxMjUsMjIzTDE3OC4xODk0NTMxMjUsMjI4LjcwODMzMzMzMzMzMzM0QzE3OC4xODk0NTMxMjUsMjM0LjQxNjY2NjY2NjY2NjY2LDE3OC4xODk0NTMxMjUsMjQ1LjgzMzMzMzMzMzMzMzM0LDE3OC4xODk0NTMxMjUsMjU3LjI1QzE3OC4xODk0NTMxMjUsMjY4LjY2NjY2NjY2NjY2NjcsMTc4LjE4OTQ1MzEyNSwyODAuMDgzMzMzMzMzMzMzMywxNzguMTg5NDUzMTI1LDI4NS43OTE2NjY2NjY2NjY3TDE3OC4xODk0NTMxMjUsMjkxLjUiPjwvcGF0aD48L2c+PGcgY2xhc3M9ImVkZ2VMYWJlbHMiPjxnIGNsYXNzPSJlZGdlTGFiZWwiPjxnIHRyYW5zZm9ybT0idHJhbnNsYXRlKDAsIDApIiBjbGFzcz0ibGFiZWwiPjxyZWN0IGhlaWdodD0iMCIgd2lkdGg9IjAiIHJ5PSIwIiByeD0iMCI+PC9yZWN0Pjx0ZXh0IHN0eWxlPSIiPjx0c3BhbiBjbGFzcz0icm93IiB4PSIwIiBkeT0iMWVtIiB4bWw6c3BhY2U9InByZXNlcnZlIj48L3RzcGFuPjwvdGV4dD48L2c+PC9nPjxnIGNsYXNzPSJlZGdlTGFiZWwiPjxnIHRyYW5zZm9ybT0idHJhbnNsYXRlKDAsIDApIiBjbGFzcz0ibGFiZWwiPjxyZWN0IGhlaWdodD0iMCIgd2lkdGg9IjAiIHJ5PSIwIiByeD0iMCI+PC9yZWN0Pjx0ZXh0IHN0eWxlPSIiPjx0c3BhbiBjbGFzcz0icm93IiB4PSIwIiBkeT0iMWVtIiB4bWw6c3BhY2U9InByZXNlcnZlIj48L3RzcGFuPjwvdGV4dD48L2c+PC9nPjxnIHRyYW5zZm9ybT0idHJhbnNsYXRlKDE3OC4xODk0NTMxMjUsIDI1Ny4yNSkiIGNsYXNzPSJlZGdlTGFiZWwiPjxnIHRyYW5zZm9ybT0idHJhbnNsYXRlKC0yNS45NDUzMTI1LCAtOS4yNSkiIGNsYXNzPSJsYWJlbCI+PHJlY3QgaGVpZ2h0PSIxOC41IiB3aWR0aD0iNTEuODkwNjI1IiByeT0iMCIgcng9IjAiPjwvcmVjdD48dGV4dCBzdHlsZT0iIj48dHNwYW4gY2xhc3M9InJvdyIgeD0iMCIgZHk9IjFlbSIgeG1sOnNwYWNlPSJwcmVzZXJ2ZSI+bGl2ZXMgYXQ8L3RzcGFuPjwvdGV4dD48L2c+PC9nPjxnIHRyYW5zZm9ybT0idHJhbnNsYXRlKDE2My4xODk0NTMxMjUsIDI0MC41KSIgY2xhc3M9ImVkZ2VUZXJtaW5hbHMiPjxnIHRyYW5zZm9ybT0idHJhbnNsYXRlKC0yLjg4NjcxODc1LCAtNi41KSIgY2xhc3M9ImlubmVyIj48dGV4dCBzdHlsZT0iIj48dHNwYW4gY2xhc3M9InJvdyIgeD0iMCIgZHk9IjFlbSIgeG1sOnNwYWNlPSJwcmVzZXJ2ZSI+MTwvdHNwYW4+PC90ZXh0PjwvZz48L2c+PGcgdHJhbnNmb3JtPSJ0cmFuc2xhdGUoMTg4LjE4OTQ1MzEyNSwgMjY5KSIgY2xhc3M9ImVkZ2VUZXJtaW5hbHMiPjxnIHRyYW5zZm9ybT0idHJhbnNsYXRlKC05LjgwODU5Mzc1LCAtNi41KSIgY2xhc3M9ImlubmVyIj48L2c+PHRleHQgc3R5bGU9IiI+PHRzcGFuIGNsYXNzPSJyb3ciIHg9IjAiIGR5PSIxZW0iIHhtbDpzcGFjZT0icHJlc2VydmUiPjAuLjE8L3RzcGFuPjwvdGV4dD48L2c+PC9nPjxnIGNsYXNzPSJub2RlcyI+PGcgdHJhbnNmb3JtPSJ0cmFuc2xhdGUoMTc4LjE4OTQ1MzEyNSwgMzY1LjI1KSIgaWQ9ImNsYXNzaWQtUGVyc29uLTAiIGNsYXNzPSJub2RlIGRlZmF1bHQiPjxyZWN0IGhlaWdodD0iMTQ3LjUiIHdpZHRoPSIxODEuMDIzNDM3NSIgeT0iLTczLjc1IiB4PSItOTAuNTExNzE4NzUiIGNsYXNzPSJvdXRlciB0aXRsZS1zdGF0ZSI+PC9yZWN0PjxsaW5lIHkyPSItNDMuMjUiIHkxPSItNDMuMjUiIHgyPSI5MC41MTE3MTg3NSIgeDE9Ii05MC41MTE3MTg3NSIgY2xhc3M9ImRpdmlkZXIiPjwvbGluZT48bGluZSB5Mj0iNDAuMjUiIHkxPSI0MC4yNSIgeDI9IjkwLjUxMTcxODc1IiB4MT0iLTkwLjUxMTcxODc1IiBjbGFzcz0iZGl2aWRlciI+PC9saW5lPjxnIGNsYXNzPSJsYWJlbCI+PHRleHQgc3R5bGU9IiI+PHRzcGFuIGNsYXNzPSJ0aXRsZS1yb3ciIHg9IjAiIGR5PSIxZW0iIHhtbDpzcGFjZT0icHJlc2VydmUiPjwvdHNwYW4+PC90ZXh0Pjx0ZXh0IHRyYW5zZm9ybT0idHJhbnNsYXRlKCAtMjUuMDMxMjUsIC02Ni4yNSkiIGNsYXNzPSJjbGFzc1RpdGxlIiBzdHlsZT0iIj48dHNwYW4gY2xhc3M9InRpdGxlLXJvdyIgeD0iMCIgZHk9IjFlbSIgeG1sOnNwYWNlPSJwcmVzZXJ2ZSI+UGVyc29uPC90c3Bhbj48L3RleHQ+PHRleHQgdHJhbnNmb3JtPSJ0cmFuc2xhdGUoIC04My4wMTE3MTg3NSwgLTMxLjc1KSIgc3R5bGU9IiI+PHRzcGFuIGNsYXNzPSJ0aXRsZS1yb3ciIHg9IjAiIGR5PSIxZW0iIHhtbDpzcGFjZT0icHJlc2VydmUiPitTdHJpbmcgbmFtZTwvdHNwYW4+PC90ZXh0Pjx0ZXh0IHRyYW5zZm9ybT0idHJhbnNsYXRlKCAtODMuMDExNzE4NzUsIC05LjI1KSIgc3R5bGU9IiI+PHRzcGFuIGNsYXNzPSJ0aXRsZS1yb3ciIHg9IjAiIGR5PSIxZW0iIHhtbDpzcGFjZT0icHJlc2VydmUiPitTdHJpbmcgcGhvbmVOdW1iZXI8L3RzcGFuPjwvdGV4dD48dGV4dCB0cmFuc2Zvcm09InRyYW5zbGF0ZSggLTgzLjAxMTcxODc1LCAxMy4yNSkiIHN0eWxlPSIiPjx0c3BhbiBjbGFzcz0idGl0bGUtcm93IiB4PSIwIiBkeT0iMWVtIiB4bWw6c3BhY2U9InByZXNlcnZlIj4rU3RyaW5nIGVtYWlsQWRkcmVzczwvdHNwYW4+PC90ZXh0Pjx0ZXh0IHRyYW5zZm9ybT0idHJhbnNsYXRlKCAtODMuMDExNzE4NzUsIDQ3Ljc1KSIgc3R5bGU9IiI+PHRzcGFuIGNsYXNzPSJ0aXRsZS1yb3ciIHg9IjAiIGR5PSIxZW0iIHhtbDpzcGFjZT0icHJlc2VydmUiPitwdXJjaGFzZVBhcmtpbmdQYXNzKCk8L3RzcGFuPjwvdGV4dD48L2c+PC9nPjxnIHRyYW5zZm9ybT0idHJhbnNsYXRlKDg5Ljc5Njg3NSwgNTYyLjc1KSIgaWQ9ImNsYXNzaWQtU3R1ZGVudC0xIiBjbGFzcz0ibm9kZSBkZWZhdWx0Ij48cmVjdCBoZWlnaHQ9IjE0Ny41IiB3aWR0aD0iMTYzLjU5Mzc1IiB5PSItNzMuNzUiIHg9Ii04MS43OTY4NzUiIGNsYXNzPSJvdXRlciB0aXRsZS1zdGF0ZSI+PC9yZWN0PjxsaW5lIHkyPSItNDMuMjUiIHkxPSItNDMuMjUiIHgyPSI4MS43OTY4NzUiIHgxPSItODEuNzk2ODc1IiBjbGFzcz0iZGl2aWRlciI+PC9saW5lPjxsaW5lIHkyPSIxNy43NSIgeTE9IjE3Ljc1IiB4Mj0iODEuNzk2ODc1IiB4MT0iLTgxLjc5Njg3NSIgY2xhc3M9ImRpdmlkZXIiPjwvbGluZT48ZyBjbGFzcz0ibGFiZWwiPjx0ZXh0IHN0eWxlPSIiPjx0c3BhbiBjbGFzcz0idGl0bGUtcm93IiB4PSIwIiBkeT0iMWVtIiB4bWw6c3BhY2U9InByZXNlcnZlIj48L3RzcGFuPjwvdGV4dD48dGV4dCB0cmFuc2Zvcm09InRyYW5zbGF0ZSggLTI5LjEyNSwgLTY2LjI1KSIgY2xhc3M9ImNsYXNzVGl0bGUiIHN0eWxlPSIiPjx0c3BhbiBjbGFzcz0idGl0bGUtcm93IiB4PSIwIiBkeT0iMWVtIiB4bWw6c3BhY2U9InByZXNlcnZlIj5TdHVkZW50PC90c3Bhbj48L3RleHQ+PHRleHQgdHJhbnNmb3JtPSJ0cmFuc2xhdGUoIC03NC4yOTY4NzUsIC0zMS43NSkiIHN0eWxlPSIiPjx0c3BhbiBjbGFzcz0idGl0bGUtcm93IiB4PSIwIiBkeT0iMWVtIiB4bWw6c3BhY2U9InByZXNlcnZlIj4raW50IHN0dWRlbnROdW1iZXI8L3RzcGFuPjwvdGV4dD48dGV4dCB0cmFuc2Zvcm09InRyYW5zbGF0ZSggLTc0LjI5Njg3NSwgLTkuMjUpIiBzdHlsZT0iIj48dHNwYW4gY2xhc3M9InRpdGxlLXJvdyIgeD0iMCIgZHk9IjFlbSIgeG1sOnNwYWNlPSJwcmVzZXJ2ZSI+K2ludCBhdmVyYWdlTWFyazwvdHNwYW4+PC90ZXh0Pjx0ZXh0IHRyYW5zZm9ybT0idHJhbnNsYXRlKCAtNzQuMjk2ODc1LCAyNS4yNSkiIHN0eWxlPSIiPjx0c3BhbiBjbGFzcz0idGl0bGUtcm93IiB4PSIwIiBkeT0iMWVtIiB4bWw6c3BhY2U9InByZXNlcnZlIj4raXNFbGlnaWJsZVRvRW5yb2woKTwvdHNwYW4+PC90ZXh0Pjx0ZXh0IHRyYW5zZm9ybT0idHJhbnNsYXRlKCAtNzQuMjk2ODc1LCA0Ny43NSkiIHN0eWxlPSIiPjx0c3BhbiBjbGFzcz0idGl0bGUtcm93IiB4PSIwIiBkeT0iMWVtIiB4bWw6c3BhY2U9InByZXNlcnZlIj4rZ2V0U2VtaW5hcnNUYWtlbigpPC90c3Bhbj48L3RleHQ+PC9nPjwvZz48ZyB0cmFuc2Zvcm09InRyYW5zbGF0ZSgyNjYuNTgyMDMxMjUsIDU2Mi43NSkiIGlkPSJjbGFzc2lkLVByb2Zlc3Nvci0yIiBjbGFzcz0ibm9kZSBkZWZhdWx0Ij48cmVjdCBoZWlnaHQ9IjgwIiB3aWR0aD0iODkuOTc2NTYyNSIgeT0iLTQwIiB4PSItNDQuOTg4MjgxMjUiIGNsYXNzPSJvdXRlciB0aXRsZS1zdGF0ZSI+PC9yZWN0PjxsaW5lIHkyPSItOS41IiB5MT0iLTkuNSIgeDI9IjQ0Ljk4ODI4MTI1IiB4MT0iLTQ0Ljk4ODI4MTI1IiBjbGFzcz0iZGl2aWRlciI+PC9saW5lPjxsaW5lIHkyPSIyOSIgeTE9IjI5IiB4Mj0iNDQuOTg4MjgxMjUiIHgxPSItNDQuOTg4MjgxMjUiIGNsYXNzPSJkaXZpZGVyIj48L2xpbmU+PGcgY2xhc3M9ImxhYmVsIj48dGV4dCBzdHlsZT0iIj48dHNwYW4gY2xhc3M9InRpdGxlLXJvdyIgeD0iMCIgZHk9IjFlbSIgeG1sOnNwYWNlPSJwcmVzZXJ2ZSI+PC90c3Bhbj48L3RleHQ+PHRleHQgdHJhbnNmb3JtPSJ0cmFuc2xhdGUoIC0zNS4wMzEyNSwgLTMyLjUpIiBjbGFzcz0iY2xhc3NUaXRsZSIgc3R5bGU9IiI+PHRzcGFuIGNsYXNzPSJ0aXRsZS1yb3ciIHg9IjAiIGR5PSIxZW0iIHhtbDpzcGFjZT0icHJlc2VydmUiPlByb2Zlc3NvcjwvdHNwYW4+PC90ZXh0Pjx0ZXh0IHRyYW5zZm9ybT0idHJhbnNsYXRlKCAtMzcuNDg4MjgxMjUsIDIpIiBzdHlsZT0iIj48dHNwYW4gY2xhc3M9InRpdGxlLXJvdyIgeD0iMCIgZHk9IjFlbSIgeG1sOnNwYWNlPSJwcmVzZXJ2ZSI+K2ludCBzYWxhcnk8L3RzcGFuPjwvdGV4dD48L2c+PC9nPjxnIHRyYW5zZm9ybT0idHJhbnNsYXRlKDE3OC4xODk0NTMxMjUsIDExNS41KSIgaWQ9ImNsYXNzaWQtQWRkcmVzcy0zIiBjbGFzcz0ibm9kZSBkZWZhdWx0Ij48cmVjdCBoZWlnaHQ9IjIxNSIgd2lkdGg9IjEzNy41OTM3NSIgeT0iLTEwNy41IiB4PSItNjguNzk2ODc1IiBjbGFzcz0ib3V0ZXIgdGl0bGUtc3RhdGUiPjwvcmVjdD48bGluZSB5Mj0iLTc3IiB5MT0iLTc3IiB4Mj0iNjguNzk2ODc1IiB4MT0iLTY4Ljc5Njg3NSIgY2xhc3M9ImRpdmlkZXIiPjwvbGluZT48bGluZSB5Mj0iNTEuNSIgeTE9IjUxLjUiIHgyPSI2OC43OTY4NzUiIHgxPSItNjguNzk2ODc1IiBjbGFzcz0iZGl2aWRlciI+PC9saW5lPjxnIGNsYXNzPSJsYWJlbCI+PHRleHQgc3R5bGU9IiI+PHRzcGFuIGNsYXNzPSJ0aXRsZS1yb3ciIHg9IjAiIGR5PSIxZW0iIHhtbDpzcGFjZT0icHJlc2VydmUiPjwvdHNwYW4+PC90ZXh0Pjx0ZXh0IHRyYW5zZm9ybT0idHJhbnNsYXRlKCAtMjkuMjYxNzE4NzUsIC0xMDApIiBjbGFzcz0iY2xhc3NUaXRsZSIgc3R5bGU9IiI+PHRzcGFuIGNsYXNzPSJ0aXRsZS1yb3ciIHg9IjAiIGR5PSIxZW0iIHhtbDpzcGFjZT0icHJlc2VydmUiPkFkZHJlc3M8L3RzcGFuPjwvdGV4dD48dGV4dCB0cmFuc2Zvcm09InRyYW5zbGF0ZSggLTYxLjI5Njg3NSwgLTY1LjUpIiBzdHlsZT0iIj48dHNwYW4gY2xhc3M9InRpdGxlLXJvdyIgeD0iMCIgZHk9IjFlbSIgeG1sOnNwYWNlPSJwcmVzZXJ2ZSI+K1N0cmluZyBzdHJlZXQ8L3RzcGFuPjwvdGV4dD48dGV4dCB0cmFuc2Zvcm09InRyYW5zbGF0ZSggLTYxLjI5Njg3NSwgLTQzKSIgc3R5bGU9IiI+PHRzcGFuIGNsYXNzPSJ0aXRsZS1yb3ciIHg9IjAiIGR5PSIxZW0iIHhtbDpzcGFjZT0icHJlc2VydmUiPitTdHJpbmcgY2l0eTwvdHNwYW4+PC90ZXh0Pjx0ZXh0IHRyYW5zZm9ybT0idHJhbnNsYXRlKCAtNjEuMjk2ODc1LCAtMjAuNSkiIHN0eWxlPSIiPjx0c3BhbiBjbGFzcz0idGl0bGUtcm93IiB4PSIwIiBkeT0iMWVtIiB4bWw6c3BhY2U9InByZXNlcnZlIj4rU3RyaW5nIHN0YXRlPC90c3Bhbj48L3RleHQ+PHRleHQgdHJhbnNmb3JtPSJ0cmFuc2xhdGUoIC02MS4yOTY4NzUsIDIpIiBzdHlsZT0iIj48dHNwYW4gY2xhc3M9InRpdGxlLXJvdyIgeD0iMCIgZHk9IjFlbSIgeG1sOnNwYWNlPSJwcmVzZXJ2ZSI+K2ludCBwb3N0YWxDb2RlPC90c3Bhbj48L3RleHQ+PHRleHQgdHJhbnNmb3JtPSJ0cmFuc2xhdGUoIC02MS4yOTY4NzUsIDI0LjUpIiBzdHlsZT0iIj48dHNwYW4gY2xhc3M9InRpdGxlLXJvdyIgeD0iMCIgZHk9IjFlbSIgeG1sOnNwYWNlPSJwcmVzZXJ2ZSI+K1N0cmluZyBjb3VudHJ5PC90c3Bhbj48L3RleHQ+PHRleHQgdHJhbnNmb3JtPSJ0cmFuc2xhdGUoIC02MS4yOTY4NzUsIDU5KSIgc3R5bGU9IiI+PHRzcGFuIGNsYXNzPSJ0aXRsZS1yb3ciIHg9IjAiIGR5PSIxZW0iIHhtbDpzcGFjZT0icHJlc2VydmUiPi12YWxpZGF0ZSgpPC90c3Bhbj48L3RleHQ+PHRleHQgdHJhbnNmb3JtPSJ0cmFuc2xhdGUoIC02MS4yOTY4NzUsIDgxLjUpIiBzdHlsZT0iIj48dHNwYW4gY2xhc3M9InRpdGxlLXJvdyIgeD0iMCIgZHk9IjFlbSIgeG1sOnNwYWNlPSJwcmVzZXJ2ZSI+K291dHB1dEFzTGFiZWwoKTwvdHNwYW4+PC90ZXh0PjwvZz48L2c+PC9nPjwvZz48L2c+PC9zdmc+;" parent="1" vertex="1">
                        <mxGeometry x="480" y="240" width="120" height="290" as="geometry"/>
                    </mxCell>
                </UserObject>
                <UserObject label="" mermaidData="{&#10;  &quot;data&quot;: &quot;sequenceDiagram\n    autonumber\n    Student-&gt;&gt;Admin: Can I enrol this semester?\n    loop enrolmentCheck\n        Admin-&gt;&gt;Admin: Check previous results\n    end\n    Note right of Admin: Exam results may &lt;br&gt; be delayed\n    Admin--&gt;&gt;Student: Enrolment success\n    Admin-&gt;&gt;Professor: Assign student to tutor\n    Professor--&gt;&gt;Admin: Student is assigned&quot;,&#10;  &quot;config&quot;: {&#10;    &quot;startOnLoad&quot;: false,&#10;    &quot;themeCSS&quot;: &quot;&quot;,&#10;    &quot;theme&quot;: &quot;neutral&quot;,&#10;    &quot;arrowMarkerAbsolute&quot;: false,&#10;    &quot;flowchart&quot;: {&#10;      &quot;diagramPadding&quot;: 8,&#10;      &quot;htmlLabels&quot;: false,&#10;      &quot;nodeSpacing&quot;: 50,&#10;      &quot;rankSpacing&quot;: 50,&#10;      &quot;curve&quot;: &quot;linear&quot;,&#10;      &quot;padding&quot;: 15,&#10;      &quot;useMaxWidth&quot;: true&#10;    },&#10;    &quot;sequence&quot;: {&#10;      &quot;activationWidth&quot;: 10,&#10;      &quot;diagramMarginX&quot;: 50,&#10;      &quot;diagramMarginY&quot;: 10,&#10;      &quot;actorMargin&quot;: 50,&#10;      &quot;width&quot;: 150,&#10;      &quot;height&quot;: 65,&#10;      &quot;boxMargin&quot;: 10,&#10;      &quot;boxTextMargin&quot;: 5,&#10;      &quot;noteMargin&quot;: 10,&#10;      &quot;messageMargin&quot;: 35,&#10;      &quot;messageAlign&quot;: &quot;center&quot;,&#10;      &quot;mirrorActors&quot;: true,&#10;      &quot;bottomMarginAdj&quot;: 1,&#10;      &quot;useMaxWidth&quot;: true,&#10;      &quot;rightAngles&quot;: false,&#10;      &quot;showSequenceNumbers&quot;: false,&#10;      &quot;actorFontSize&quot;: 14,&#10;      &quot;actorFontFamily&quot;: &quot;\&quot;Open-Sans\&quot;, \&quot;sans-serif\&quot;&quot;,&#10;      &quot;actorFontWeight&quot;: 400,&#10;      &quot;noteFontSize&quot;: 14,&#10;      &quot;noteFontFamily&quot;: &quot;\&quot;trebuchet ms\&quot;, verdana, arial&quot;,&#10;      &quot;noteFontWeight&quot;: 400,&#10;      &quot;noteAlign&quot;: &quot;center&quot;,&#10;      &quot;messageFontSize&quot;: 16,&#10;      &quot;messageFontFamily&quot;: &quot;\&quot;trebuchet ms\&quot;, verdana, arial&quot;,&#10;      &quot;messageFontWeight&quot;: 400,&#10;      &quot;wrap&quot;: false,&#10;      &quot;wrapPadding&quot;: 10,&#10;      &quot;labelBoxWidth&quot;: 50,&#10;      &quot;labelBoxHeight&quot;: 20&#10;    },&#10;    &quot;gantt&quot;: {&#10;      &quot;titleTopMargin&quot;: 25,&#10;      &quot;barHeight&quot;: 20,&#10;      &quot;barGap&quot;: 4,&#10;      &quot;topPadding&quot;: 50,&#10;      &quot;leftPadding&quot;: 75,&#10;      &quot;gridLineStartPadding&quot;: 35,&#10;      &quot;fontSize&quot;: 11,&#10;      &quot;fontFamily&quot;: &quot;\&quot;Open-Sans\&quot;, \&quot;sans-serif\&quot;&quot;,&#10;      &quot;numberSectionStyles&quot;: 4,&#10;      &quot;axisFormat&quot;: &quot;%Y-%m-%d&quot;,&#10;      &quot;useMaxWidth&quot;: true&#10;    },&#10;    &quot;journey&quot;: {&#10;      &quot;diagramMarginX&quot;: 50,&#10;      &quot;diagramMarginY&quot;: 10,&#10;      &quot;actorMargin&quot;: 50,&#10;      &quot;width&quot;: 150,&#10;      &quot;height&quot;: 65,&#10;      &quot;boxMargin&quot;: 10,&#10;      &quot;boxTextMargin&quot;: 5,&#10;      &quot;noteMargin&quot;: 10,&#10;      &quot;messageMargin&quot;: 35,&#10;      &quot;messageAlign&quot;: &quot;center&quot;,&#10;      &quot;bottomMarginAdj&quot;: 1,&#10;      &quot;useMaxWidth&quot;: true,&#10;      &quot;rightAngles&quot;: false&#10;    },&#10;    &quot;class&quot;: {&#10;      &quot;arrowMarkerAbsolute&quot;: false,&#10;      &quot;useMaxWidth&quot;: true&#10;    },&#10;    &quot;git&quot;: {&#10;      &quot;arrowMarkerAbsolute&quot;: false,&#10;      &quot;useMaxWidth&quot;: true&#10;    },&#10;    &quot;state&quot;: {&#10;      &quot;dividerMargin&quot;: 10,&#10;      &quot;sizeUnit&quot;: 5,&#10;      &quot;padding&quot;: 8,&#10;      &quot;textHeight&quot;: 10,&#10;      &quot;titleShift&quot;: -15,&#10;      &quot;noteMargin&quot;: 10,&#10;      &quot;forkWidth&quot;: 70,&#10;      &quot;forkHeight&quot;: 7,&#10;      &quot;miniPadding&quot;: 2,&#10;      &quot;fontSizeFactor&quot;: 5.02,&#10;      &quot;fontSize&quot;: 24,&#10;      &quot;labelHeight&quot;: 16,&#10;      &quot;edgeLengthFactor&quot;: &quot;20&quot;,&#10;      &quot;compositTitleSize&quot;: 35,&#10;      &quot;radius&quot;: 5&#10;    },&#10;    &quot;er&quot;: {&#10;      &quot;diagramPadding&quot;: 20,&#10;      &quot;layoutDirection&quot;: &quot;TB&quot;,&#10;      &quot;minEntityWidth&quot;: 100,&#10;      &quot;minEntityHeight&quot;: 75,&#10;      &quot;entityPadding&quot;: 15,&#10;      &quot;stroke&quot;: &quot;grey&quot;,&#10;      &quot;fill&quot;: &quot;honeydew&quot;,&#10;      &quot;fontSize&quot;: 12,&#10;      &quot;useMaxWidth&quot;: true&#10;    },&#10;    &quot;pie&quot;: {&#10;      &quot;useMaxWidth&quot;: true&#10;    }&#10;  }&#10;}" id="14">
                    <mxCell style="shape=image;noLabel=1;verticalAlign=top;imageAspect=1;image=data:image/svg+xml,PHN2ZyBhcmlhLWxhYmVsbGVkYnk9ImNoYXJ0LXRpdGxlLWdlTWVybWFpZE91dHB1dC0xNzM0NjI5Mzk4NzQ1IGNoYXJ0LWRlc2MtZ2VNZXJtYWlkT3V0cHV0LTE3MzQ2MjkzOTg3NDUiIHJvbGU9ImltZyIgdmlld0JveD0iLTUwIC0xMCA3MzggNjA2IiBzdHlsZT0ibWF4LXdpZHRoOiA3MzhweDsiIGhlaWdodD0iNjA2IiB4bWxucz0iaHR0cDovL3d3dy53My5vcmcvMjAwMC9zdmciIHdpZHRoPSIxMDAlIiBpZD0iZ2VNZXJtYWlkT3V0cHV0LTE3MzQ2MjkzOTg3NDUiPjx0aXRsZSBpZD0iY2hhcnQtdGl0bGUtZ2VNZXJtYWlkT3V0cHV0LTE3MzQ2MjkzOTg3NDUiPjwvdGl0bGU+PGRlc2MgaWQ9ImNoYXJ0LWRlc2MtZ2VNZXJtYWlkT3V0cHV0LTE3MzQ2MjkzOTg3NDUiPjwvZGVzYz48c3R5bGU+I2dlTWVybWFpZE91dHB1dC0xNzM0NjI5Mzk4NzQ1IHtmb250LWZhbWlseToidHJlYnVjaGV0IG1zIix2ZXJkYW5hLGFyaWFsLHNhbnMtc2VyaWY7Zm9udC1zaXplOjE2cHg7ZmlsbDojMDAwMDAwO30jZ2VNZXJtYWlkT3V0cHV0LTE3MzQ2MjkzOTg3NDUgLmVycm9yLWljb257ZmlsbDojNTUyMjIyO30jZ2VNZXJtYWlkT3V0cHV0LTE3MzQ2MjkzOTg3NDUgLmVycm9yLXRleHR7ZmlsbDojNTUyMjIyO3N0cm9rZTojNTUyMjIyO30jZ2VNZXJtYWlkT3V0cHV0LTE3MzQ2MjkzOTg3NDUgLmVkZ2UtdGhpY2tuZXNzLW5vcm1hbHtzdHJva2Utd2lkdGg6MnB4O30jZ2VNZXJtYWlkT3V0cHV0LTE3MzQ2MjkzOTg3NDUgLmVkZ2UtdGhpY2tuZXNzLXRoaWNre3N0cm9rZS13aWR0aDozLjVweDt9I2dlTWVybWFpZE91dHB1dC0xNzM0NjI5Mzk4NzQ1IC5lZGdlLXBhdHRlcm4tc29saWR7c3Ryb2tlLWRhc2hhcnJheTowO30jZ2VNZXJtYWlkT3V0cHV0LTE3MzQ2MjkzOTg3NDUgLmVkZ2UtcGF0dGVybi1kYXNoZWR7c3Ryb2tlLWRhc2hhcnJheTozO30jZ2VNZXJtYWlkT3V0cHV0LTE3MzQ2MjkzOTg3NDUgLmVkZ2UtcGF0dGVybi1kb3R0ZWR7c3Ryb2tlLWRhc2hhcnJheToyO30jZ2VNZXJtYWlkT3V0cHV0LTE3MzQ2MjkzOTg3NDUgLm1hcmtlcntmaWxsOiM2NjY7c3Ryb2tlOiM2NjY7fSNnZU1lcm1haWRPdXRwdXQtMTczNDYyOTM5ODc0NSAubWFya2VyLmNyb3Nze3N0cm9rZTojNjY2O30jZ2VNZXJtYWlkT3V0cHV0LTE3MzQ2MjkzOTg3NDUgc3Zne2ZvbnQtZmFtaWx5OiJ0cmVidWNoZXQgbXMiLHZlcmRhbmEsYXJpYWwsc2Fucy1zZXJpZjtmb250LXNpemU6MTZweDt9I2dlTWVybWFpZE91dHB1dC0xNzM0NjI5Mzk4NzQ1IC5hY3RvcntzdHJva2U6aHNsKDAsIDAlLCA4MyUpO2ZpbGw6I2VlZTt9I2dlTWVybWFpZE91dHB1dC0xNzM0NjI5Mzk4NzQ1IHRleHQuYWN0b3ImZ3Q7dHNwYW57ZmlsbDojMzMzO3N0cm9rZTpub25lO30jZ2VNZXJtYWlkT3V0cHV0LTE3MzQ2MjkzOTg3NDUgLmFjdG9yLWxpbmV7c3Ryb2tlOiM2NjY7fSNnZU1lcm1haWRPdXRwdXQtMTczNDYyOTM5ODc0NSAubWVzc2FnZUxpbmUwe3N0cm9rZS13aWR0aDoxLjU7c3Ryb2tlLWRhc2hhcnJheTpub25lO3N0cm9rZTojMzMzO30jZ2VNZXJtYWlkT3V0cHV0LTE3MzQ2MjkzOTg3NDUgLm1lc3NhZ2VMaW5lMXtzdHJva2Utd2lkdGg6MS41O3N0cm9rZS1kYXNoYXJyYXk6MiwyO3N0cm9rZTojMzMzO30jZ2VNZXJtYWlkT3V0cHV0LTE3MzQ2MjkzOTg3NDUgI2Fycm93aGVhZCBwYXRoe2ZpbGw6IzMzMztzdHJva2U6IzMzMzt9I2dlTWVybWFpZE91dHB1dC0xNzM0NjI5Mzk4NzQ1IC5zZXF1ZW5jZU51bWJlcntmaWxsOndoaXRlO30jZ2VNZXJtYWlkT3V0cHV0LTE3MzQ2MjkzOTg3NDUgI3NlcXVlbmNlbnVtYmVye2ZpbGw6IzMzMzt9I2dlTWVybWFpZE91dHB1dC0xNzM0NjI5Mzk4NzQ1ICNjcm9zc2hlYWQgcGF0aHtmaWxsOiMzMzM7c3Ryb2tlOiMzMzM7fSNnZU1lcm1haWRPdXRwdXQtMTczNDYyOTM5ODc0NSAubWVzc2FnZVRleHR7ZmlsbDojMzMzO3N0cm9rZTojMzMzO30jZ2VNZXJtYWlkT3V0cHV0LTE3MzQ2MjkzOTg3NDUgLmxhYmVsQm94e3N0cm9rZTpoc2woMCwgMCUsIDgzJSk7ZmlsbDojZWVlO30jZ2VNZXJtYWlkT3V0cHV0LTE3MzQ2MjkzOTg3NDUgLmxhYmVsVGV4dCwjZ2VNZXJtYWlkT3V0cHV0LTE3MzQ2MjkzOTg3NDUgLmxhYmVsVGV4dCZndDt0c3BhbntmaWxsOiMzMzM7c3Ryb2tlOm5vbmU7fSNnZU1lcm1haWRPdXRwdXQtMTczNDYyOTM5ODc0NSAubG9vcFRleHQsI2dlTWVybWFpZE91dHB1dC0xNzM0NjI5Mzk4NzQ1IC5sb29wVGV4dCZndDt0c3BhbntmaWxsOiMzMzM7c3Ryb2tlOm5vbmU7fSNnZU1lcm1haWRPdXRwdXQtMTczNDYyOTM5ODc0NSAubG9vcExpbmV7c3Ryb2tlLXdpZHRoOjJweDtzdHJva2UtZGFzaGFycmF5OjIsMjtzdHJva2U6aHNsKDAsIDAlLCA4MyUpO2ZpbGw6aHNsKDAsIDAlLCA4MyUpO30jZ2VNZXJtYWlkT3V0cHV0LTE3MzQ2MjkzOTg3NDUgLm5vdGV7c3Ryb2tlOiM5OTk7ZmlsbDojNjY2O30jZ2VNZXJtYWlkT3V0cHV0LTE3MzQ2MjkzOTg3NDUgLm5vdGVUZXh0LCNnZU1lcm1haWRPdXRwdXQtMTczNDYyOTM5ODc0NSAubm90ZVRleHQmZ3Q7dHNwYW57ZmlsbDojZmZmO3N0cm9rZTpub25lO30jZ2VNZXJtYWlkT3V0cHV0LTE3MzQ2MjkzOTg3NDUgLmFjdGl2YXRpb24we2ZpbGw6I2Y0ZjRmNDtzdHJva2U6IzY2Njt9I2dlTWVybWFpZE91dHB1dC0xNzM0NjI5Mzk4NzQ1IC5hY3RpdmF0aW9uMXtmaWxsOiNmNGY0ZjQ7c3Ryb2tlOiM2NjY7fSNnZU1lcm1haWRPdXRwdXQtMTczNDYyOTM5ODc0NSAuYWN0aXZhdGlvbjJ7ZmlsbDojZjRmNGY0O3N0cm9rZTojNjY2O30jZ2VNZXJtYWlkT3V0cHV0LTE3MzQ2MjkzOTg3NDUgLmFjdG9yUG9wdXBNZW51e3Bvc2l0aW9uOmFic29sdXRlO30jZ2VNZXJtYWlkT3V0cHV0LTE3MzQ2MjkzOTg3NDUgLmFjdG9yUG9wdXBNZW51UGFuZWx7cG9zaXRpb246YWJzb2x1dGU7ZmlsbDojZWVlO2JveC1zaGFkb3c6MHB4IDhweCAxNnB4IDBweCByZ2JhKDAsMCwwLDAuMik7ZmlsdGVyOmRyb3Atc2hhZG93KDNweCA1cHggMnB4IHJnYigwIDAgMCAvIDAuNCkpO30jZ2VNZXJtYWlkT3V0cHV0LTE3MzQ2MjkzOTg3NDUgLmFjdG9yLW1hbiBsaW5le3N0cm9rZTpoc2woMCwgMCUsIDgzJSk7ZmlsbDojZWVlO30jZ2VNZXJtYWlkT3V0cHV0LTE3MzQ2MjkzOTg3NDUgLmFjdG9yLW1hbiBjaXJjbGUsI2dlTWVybWFpZE91dHB1dC0xNzM0NjI5Mzk4NzQ1IGxpbmV7c3Ryb2tlOmhzbCgwLCAwJSwgODMlKTtmaWxsOiNlZWU7c3Ryb2tlLXdpZHRoOjJweDt9I2dlTWVybWFpZE91dHB1dC0xNzM0NjI5Mzk4NzQ1IDpyb290ey0tbWVybWFpZC1mb250LWZhbWlseToidHJlYnVjaGV0IG1zIix2ZXJkYW5hLGFyaWFsLHNhbnMtc2VyaWY7fTwvc3R5bGU+PGc+PC9nPjxkZWZzPjxzeW1ib2wgaGVpZ2h0PSIyNCIgd2lkdGg9IjI0IiBpZD0iY29tcHV0ZXIiPjxwYXRoIGQ9Ik0yIDJ2MTNoMjB2LTEzaC0yMHptMTggMTFoLTE2di05aDE2djl6bS0xMC4yMjggNmwuNDY2LTFoMy41MjRsLjQ2NyAxaC00LjQ1N3ptMTQuMjI4IDNoLTI0bDItNmgyLjEwNGwtMS4zMyA0aDE4LjQ1bC0xLjI5Ny00aDIuMDczbDIgNnptLTUtMTBoLTE0di03aDE0djd6IiB0cmFuc2Zvcm09InNjYWxlKC41KSI+PC9wYXRoPjwvc3ltYm9sPjwvZGVmcz48ZGVmcz48c3ltYm9sIGNsaXAtcnVsZT0iZXZlbm9kZCIgZmlsbC1ydWxlPSJldmVub2RkIiBpZD0iZGF0YWJhc2UiPjxwYXRoIGQ9Ik0xMi4yNTguMDAxbC4yNTYuMDA0LjI1NS4wMDUuMjUzLjAwOC4yNTEuMDEuMjQ5LjAxMi4yNDcuMDE1LjI0Ni4wMTYuMjQyLjAxOS4yNDEuMDIuMjM5LjAyMy4yMzYuMDI0LjIzMy4wMjcuMjMxLjAyOC4yMjkuMDMxLjIyNS4wMzIuMjIzLjAzNC4yMi4wMzYuMjE3LjAzOC4yMTQuMDQuMjExLjA0MS4yMDguMDQzLjIwNS4wNDUuMjAxLjA0Ni4xOTguMDQ4LjE5NC4wNS4xOTEuMDUxLjE4Ny4wNTMuMTgzLjA1NC4xOC4wNTYuMTc1LjA1Ny4xNzIuMDU5LjE2OC4wNi4xNjMuMDYxLjE2LjA2My4xNTUuMDY0LjE1LjA2Ni4wNzQuMDMzLjA3My4wMzMuMDcxLjAzNC4wNy4wMzQuMDY5LjAzNS4wNjguMDM1LjA2Ny4wMzUuMDY2LjAzNS4wNjQuMDM2LjA2NC4wMzYuMDYyLjAzNi4wNi4wMzYuMDYuMDM3LjA1OC4wMzcuMDU4LjAzNy4wNTUuMDM4LjA1NS4wMzguMDUzLjAzOC4wNTIuMDM4LjA1MS4wMzkuMDUuMDM5LjA0OC4wMzkuMDQ3LjAzOS4wNDUuMDQuMDQ0LjA0LjA0My4wNC4wNDEuMDQuMDQuMDQxLjAzOS4wNDEuMDM3LjA0MS4wMzYuMDQxLjAzNC4wNDEuMDMzLjA0Mi4wMzIuMDQyLjAzLjA0Mi4wMjkuMDQyLjAyNy4wNDIuMDI2LjA0My4wMjQuMDQzLjAyMy4wNDMuMDIxLjA0My4wMi4wNDMuMDE4LjA0NC4wMTcuMDQzLjAxNS4wNDQuMDEzLjA0NC4wMTIuMDQ0LjAxMS4wNDUuMDA5LjA0NC4wMDcuMDQ1LjAwNi4wNDUuMDA0LjA0NS4wMDIuMDQ1LjAwMS4wNDV2MTdsLS4wMDEuMDQ1LS4wMDIuMDQ1LS4wMDQuMDQ1LS4wMDYuMDQ1LS4wMDcuMDQ1LS4wMDkuMDQ0LS4wMTEuMDQ1LS4wMTIuMDQ0LS4wMTMuMDQ0LS4wMTUuMDQ0LS4wMTcuMDQzLS4wMTguMDQ0LS4wMi4wNDMtLjAyMS4wNDMtLjAyMy4wNDMtLjAyNC4wNDMtLjAyNi4wNDMtLjAyNy4wNDItLjAyOS4wNDItLjAzLjA0Mi0uMDMyLjA0Mi0uMDMzLjA0Mi0uMDM0LjA0MS0uMDM2LjA0MS0uMDM3LjA0MS0uMDM5LjA0MS0uMDQuMDQxLS4wNDEuMDQtLjA0My4wNC0uMDQ0LjA0LS4wNDUuMDQtLjA0Ny4wMzktLjA0OC4wMzktLjA1LjAzOS0uMDUxLjAzOS0uMDUyLjAzOC0uMDUzLjAzOC0uMDU1LjAzOC0uMDU1LjAzOC0uMDU4LjAzNy0uMDU4LjAzNy0uMDYuMDM3LS4wNi4wMzYtLjA2Mi4wMzYtLjA2NC4wMzYtLjA2NC4wMzYtLjA2Ni4wMzUtLjA2Ny4wMzUtLjA2OC4wMzUtLjA2OS4wMzUtLjA3LjAzNC0uMDcxLjAzNC0uMDczLjAzMy0uMDc0LjAzMy0uMTUuMDY2LS4xNTUuMDY0LS4xNi4wNjMtLjE2My4wNjEtLjE2OC4wNi0uMTcyLjA1OS0uMTc1LjA1Ny0uMTguMDU2LS4xODMuMDU0LS4xODcuMDUzLS4xOTEuMDUxLS4xOTQuMDUtLjE5OC4wNDgtLjIwMS4wNDYtLjIwNS4wNDUtLjIwOC4wNDMtLjIxMS4wNDEtLjIxNC4wNC0uMjE3LjAzOC0uMjIuMDM2LS4yMjMuMDM0LS4yMjUuMDMyLS4yMjkuMDMxLS4yMzEuMDI4LS4yMzMuMDI3LS4yMzYuMDI0LS4yMzkuMDIzLS4yNDEuMDItLjI0Mi4wMTktLjI0Ni4wMTYtLjI0Ny4wMTUtLjI0OS4wMTItLjI1MS4wMS0uMjUzLjAwOC0uMjU1LjAwNS0uMjU2LjAwNC0uMjU4LjAwMS0uMjU4LS4wMDEtLjI1Ni0uMDA0LS4yNTUtLjAwNS0uMjUzLS4wMDgtLjI1MS0uMDEtLjI0OS0uMDEyLS4yNDctLjAxNS0uMjQ1LS4wMTYtLjI0My0uMDE5LS4yNDEtLjAyLS4yMzgtLjAyMy0uMjM2LS4wMjQtLjIzNC0uMDI3LS4yMzEtLjAyOC0uMjI4LS4wMzEtLjIyNi0uMDMyLS4yMjMtLjAzNC0uMjItLjAzNi0uMjE3LS4wMzgtLjIxNC0uMDQtLjIxMS0uMDQxLS4yMDgtLjA0My0uMjA0LS4wNDUtLjIwMS0uMDQ2LS4xOTgtLjA0OC0uMTk1LS4wNS0uMTktLjA1MS0uMTg3LS4wNTMtLjE4NC0uMDU0LS4xNzktLjA1Ni0uMTc2LS4wNTctLjE3Mi0uMDU5LS4xNjctLjA2LS4xNjQtLjA2MS0uMTU5LS4wNjMtLjE1NS0uMDY0LS4xNTEtLjA2Ni0uMDc0LS4wMzMtLjA3Mi0uMDMzLS4wNzItLjAzNC0uMDctLjAzNC0uMDY5LS4wMzUtLjA2OC0uMDM1LS4wNjctLjAzNS0uMDY2LS4wMzUtLjA2NC0uMDM2LS4wNjMtLjAzNi0uMDYyLS4wMzYtLjA2MS0uMDM2LS4wNi0uMDM3LS4wNTgtLjAzNy0uMDU3LS4wMzctLjA1Ni0uMDM4LS4wNTUtLjAzOC0uMDUzLS4wMzgtLjA1Mi0uMDM4LS4wNTEtLjAzOS0uMDQ5LS4wMzktLjA0OS0uMDM5LS4wNDYtLjAzOS0uMDQ2LS4wNC0uMDQ0LS4wNC0uMDQzLS4wNC0uMDQxLS4wNC0uMDQtLjA0MS0uMDM5LS4wNDEtLjAzNy0uMDQxLS4wMzYtLjA0MS0uMDM0LS4wNDEtLjAzMy0uMDQyLS4wMzItLjA0Mi0uMDMtLjA0Mi0uMDI5LS4wNDItLjAyNy0uMDQyLS4wMjYtLjA0My0uMDI0LS4wNDMtLjAyMy0uMDQzLS4wMjEtLjA0My0uMDItLjA0My0uMDE4LS4wNDQtLjAxNy0uMDQzLS4wMTUtLjA0NC0uMDEzLS4wNDQtLjAxMi0uMDQ0LS4wMTEtLjA0NS0uMDA5LS4wNDQtLjAwNy0uMDQ1LS4wMDYtLjA0NS0uMDA0LS4wNDUtLjAwMi0uMDQ1LS4wMDEtLjA0NXYtMTdsLjAwMS0uMDQ1LjAwMi0uMDQ1LjAwNC0uMDQ1LjAwNi0uMDQ1LjAwNy0uMDQ1LjAwOS0uMDQ0LjAxMS0uMDQ1LjAxMi0uMDQ0LjAxMy0uMDQ0LjAxNS0uMDQ0LjAxNy0uMDQzLjAxOC0uMDQ0LjAyLS4wNDMuMDIxLS4wNDMuMDIzLS4wNDMuMDI0LS4wNDMuMDI2LS4wNDMuMDI3LS4wNDIuMDI5LS4wNDIuMDMtLjA0Mi4wMzItLjA0Mi4wMzMtLjA0Mi4wMzQtLjA0MS4wMzYtLjA0MS4wMzctLjA0MS4wMzktLjA0MS4wNC0uMDQxLjA0MS0uMDQuMDQzLS4wNC4wNDQtLjA0LjA0Ni0uMDQuMDQ2LS4wMzkuMDQ5LS4wMzkuMDQ5LS4wMzkuMDUxLS4wMzkuMDUyLS4wMzguMDUzLS4wMzguMDU1LS4wMzguMDU2LS4wMzguMDU3LS4wMzcuMDU4LS4wMzcuMDYtLjAzNy4wNjEtLjAzNi4wNjItLjAzNi4wNjMtLjAzNi4wNjQtLjAzNi4wNjYtLjAzNS4wNjctLjAzNS4wNjgtLjAzNS4wNjktLjAzNS4wNy0uMDM0LjA3Mi0uMDM0LjA3Mi0uMDMzLjA3NC0uMDMzLjE1MS0uMDY2LjE1NS0uMDY0LjE1OS0uMDYzLjE2NC0uMDYxLjE2Ny0uMDYuMTcyLS4wNTkuMTc2LS4wNTcuMTc5LS4wNTYuMTg0LS4wNTQuMTg3LS4wNTMuMTktLjA1MS4xOTUtLjA1LjE5OC0uMDQ4LjIwMS0uMDQ2LjIwNC0uMDQ1LjIwOC0uMDQzLjIxMS0uMDQxLjIxNC0uMDQuMjE3LS4wMzguMjItLjAzNi4yMjMtLjAzNC4yMjYtLjAzMi4yMjgtLjAzMS4yMzEtLjAyOC4yMzQtLjAyNy4yMzYtLjAyNC4yMzgtLjAyMy4yNDEtLjAyLjI0My0uMDE5LjI0NS0uMDE2LjI0Ny0uMDE1LjI0OS0uMDEyLjI1MS0uMDEuMjUzLS4wMDguMjU1LS4wMDUuMjU2LS4wMDQuMjU4LS4wMDEuMjU4LjAwMXptLTkuMjU4IDIwLjQ5OXYuMDFsLjAwMS4wMjEuMDAzLjAyMS4wMDQuMDIyLjAwNS4wMjEuMDA2LjAyMi4wMDcuMDIyLjAwOS4wMjMuMDEuMDIyLjAxMS4wMjMuMDEyLjAyMy4wMTMuMDIzLjAxNS4wMjMuMDE2LjAyNC4wMTcuMDIzLjAxOC4wMjQuMDE5LjAyNC4wMjEuMDI0LjAyMi4wMjUuMDIzLjAyNC4wMjQuMDI1LjA1Mi4wNDkuMDU2LjA1LjA2MS4wNTEuMDY2LjA1MS4wNy4wNTEuMDc1LjA1MS4wNzkuMDUyLjA4NC4wNTIuMDg4LjA1Mi4wOTIuMDUyLjA5Ny4wNTIuMTAyLjA1MS4xMDUuMDUyLjExLjA1Mi4xMTQuMDUxLjExOS4wNTEuMTIzLjA1MS4xMjcuMDUuMTMxLjA1LjEzNS4wNS4xMzkuMDQ4LjE0NC4wNDkuMTQ3LjA0Ny4xNTIuMDQ3LjE1NS4wNDcuMTYuMDQ1LjE2My4wNDUuMTY3LjA0My4xNzEuMDQzLjE3Ni4wNDEuMTc4LjA0MS4xODMuMDM5LjE4Ny4wMzkuMTkuMDM3LjE5NC4wMzUuMTk3LjAzNS4yMDIuMDMzLjIwNC4wMzEuMjA5LjAzLjIxMi4wMjkuMjE2LjAyNy4yMTkuMDI1LjIyMi4wMjQuMjI2LjAyMS4yMy4wMi4yMzMuMDE4LjIzNi4wMTYuMjQuMDE1LjI0My4wMTIuMjQ2LjAxLjI0OS4wMDguMjUzLjAwNS4yNTYuMDA0LjI1OS4wMDEuMjYtLjAwMS4yNTctLjAwNC4yNTQtLjAwNS4yNS0uMDA4LjI0Ny0uMDExLjI0NC0uMDEyLjI0MS0uMDE0LjIzNy0uMDE2LjIzMy0uMDE4LjIzMS0uMDIxLjIyNi0uMDIxLjIyNC0uMDI0LjIyLS4wMjYuMjE2LS4wMjcuMjEyLS4wMjguMjEtLjAzMS4yMDUtLjAzMS4yMDItLjAzNC4xOTgtLjAzNC4xOTQtLjAzNi4xOTEtLjAzNy4xODctLjAzOS4xODMtLjA0LjE3OS0uMDQuMTc1LS4wNDIuMTcyLS4wNDMuMTY4LS4wNDQuMTYzLS4wNDUuMTYtLjA0Ni4xNTUtLjA0Ni4xNTItLjA0Ny4xNDgtLjA0OC4xNDMtLjA0OS4xMzktLjA0OS4xMzYtLjA1LjEzMS0uMDUuMTI2LS4wNS4xMjMtLjA1MS4xMTgtLjA1Mi4xMTQtLjA1MS4xMS0uMDUyLjEwNi0uMDUyLjEwMS0uMDUyLjA5Ni0uMDUyLjA5Mi0uMDUyLjA4OC0uMDUzLjA4My0uMDUxLjA3OS0uMDUyLjA3NC0uMDUyLjA3LS4wNTEuMDY1LS4wNTEuMDYtLjA1MS4wNTYtLjA1LjA1MS0uMDUuMDIzLS4wMjQuMDIzLS4wMjUuMDIxLS4wMjQuMDItLjAyNC4wMTktLjAyNC4wMTgtLjAyNC4wMTctLjAyNC4wMTUtLjAyMy4wMTQtLjAyNC4wMTMtLjAyMy4wMTItLjAyMy4wMS0uMDIzLjAxLS4wMjIuMDA4LS4wMjIuMDA2LS4wMjIuMDA2LS4wMjIuMDA0LS4wMjIuMDA0LS4wMjEuMDAxLS4wMjEuMDAxLS4wMjF2LTQuMTI3bC0uMDc3LjA1NS0uMDguMDUzLS4wODMuMDU0LS4wODUuMDUzLS4wODcuMDUyLS4wOS4wNTItLjA5My4wNTEtLjA5NS4wNS0uMDk3LjA1LS4xLjA0OS0uMTAyLjA0OS0uMTA1LjA0OC0uMTA2LjA0Ny0uMTA5LjA0Ny0uMTExLjA0Ni0uMTE0LjA0NS0uMTE1LjA0NS0uMTE4LjA0NC0uMTIuMDQzLS4xMjIuMDQyLS4xMjQuMDQyLS4xMjYuMDQxLS4xMjguMDQtLjEzLjA0LS4xMzIuMDM4LS4xMzQuMDM4LS4xMzUuMDM3LS4xMzguMDM3LS4xMzkuMDM1LS4xNDIuMDM1LS4xNDMuMDM0LS4xNDQuMDMzLS4xNDcuMDMyLS4xNDguMDMxLS4xNS4wMy0uMTUxLjAzLS4xNTMuMDI5LS4xNTQuMDI3LS4xNTYuMDI3LS4xNTguMDI2LS4xNTkuMDI1LS4xNjEuMDI0LS4xNjIuMDIzLS4xNjMuMDIyLS4xNjUuMDIxLS4xNjYuMDItLjE2Ny4wMTktLjE2OS4wMTgtLjE2OS4wMTctLjE3MS4wMTYtLjE3My4wMTUtLjE3My4wMTQtLjE3NS4wMTMtLjE3NS4wMTItLjE3Ny4wMTEtLjE3OC4wMS0uMTc5LjAwOC0uMTc5LjAwOC0uMTgxLjAwNi0uMTgyLjAwNS0uMTgyLjAwNC0uMTg0LjAwMy0uMTg0LjAwMmgtLjM3bC0uMTg0LS4wMDItLjE4NC0uMDAzLS4xODItLjAwNC0uMTgyLS4wMDUtLjE4MS0uMDA2LS4xNzktLjAwOC0uMTc5LS4wMDgtLjE3OC0uMDEtLjE3Ni0uMDExLS4xNzYtLjAxMi0uMTc1LS4wMTMtLjE3My0uMDE0LS4xNzItLjAxNS0uMTcxLS4wMTYtLjE3LS4wMTctLjE2OS0uMDE4LS4xNjctLjAxOS0uMTY2LS4wMi0uMTY1LS4wMjEtLjE2My0uMDIyLS4xNjItLjAyMy0uMTYxLS4wMjQtLjE1OS0uMDI1LS4xNTctLjAyNi0uMTU2LS4wMjctLjE1NS0uMDI3LS4xNTMtLjAyOS0uMTUxLS4wMy0uMTUtLjAzLS4xNDgtLjAzMS0uMTQ2LS4wMzItLjE0NS0uMDMzLS4xNDMtLjAzNC0uMTQxLS4wMzUtLjE0LS4wMzUtLjEzNy0uMDM3LS4xMzYtLjAzNy0uMTM0LS4wMzgtLjEzMi0uMDM4LS4xMy0uMDQtLjEyOC0uMDQtLjEyNi0uMDQxLS4xMjQtLjA0Mi0uMTIyLS4wNDItLjEyLS4wNDQtLjExNy0uMDQzLS4xMTYtLjA0NS0uMTEzLS4wNDUtLjExMi0uMDQ2LS4xMDktLjA0Ny0uMTA2LS4wNDctLjEwNS0uMDQ4LS4xMDItLjA0OS0uMS0uMDQ5LS4wOTctLjA1LS4wOTUtLjA1LS4wOTMtLjA1Mi0uMDktLjA1MS0uMDg3LS4wNTItLjA4NS0uMDUzLS4wODMtLjA1NC0uMDgtLjA1NC0uMDc3LS4wNTR2NC4xMjd6bTAtNS42NTR2LjAxMWwuMDAxLjAyMS4wMDMuMDIxLjAwNC4wMjEuMDA1LjAyMi4wMDYuMDIyLjAwNy4wMjIuMDA5LjAyMi4wMS4wMjIuMDExLjAyMy4wMTIuMDIzLjAxMy4wMjMuMDE1LjAyNC4wMTYuMDIzLjAxNy4wMjQuMDE4LjAyNC4wMTkuMDI0LjAyMS4wMjQuMDIyLjAyNC4wMjMuMDI1LjAyNC4wMjQuMDUyLjA1LjA1Ni4wNS4wNjEuMDUuMDY2LjA1MS4wNy4wNTEuMDc1LjA1Mi4wNzkuMDUxLjA4NC4wNTIuMDg4LjA1Mi4wOTIuMDUyLjA5Ny4wNTIuMTAyLjA1Mi4xMDUuMDUyLjExLjA1MS4xMTQuMDUxLjExOS4wNTIuMTIzLjA1LjEyNy4wNTEuMTMxLjA1LjEzNS4wNDkuMTM5LjA0OS4xNDQuMDQ4LjE0Ny4wNDguMTUyLjA0Ny4xNTUuMDQ2LjE2LjA0NS4xNjMuMDQ1LjE2Ny4wNDQuMTcxLjA0Mi4xNzYuMDQyLjE3OC4wNC4xODMuMDQuMTg3LjAzOC4xOS4wMzcuMTk0LjAzNi4xOTcuMDM0LjIwMi4wMzMuMjA0LjAzMi4yMDkuMDMuMjEyLjAyOC4yMTYuMDI3LjIxOS4wMjUuMjIyLjAyNC4yMjYuMDIyLjIzLjAyLjIzMy4wMTguMjM2LjAxNi4yNC4wMTQuMjQzLjAxMi4yNDYuMDEuMjQ5LjAwOC4yNTMuMDA2LjI1Ni4wMDMuMjU5LjAwMS4yNi0uMDAxLjI1Ny0uMDAzLjI1NC0uMDA2LjI1LS4wMDguMjQ3LS4wMS4yNDQtLjAxMi4yNDEtLjAxNS4yMzctLjAxNi4yMzMtLjAxOC4yMzEtLjAyLjIyNi0uMDIyLjIyNC0uMDI0LjIyLS4wMjUuMjE2LS4wMjcuMjEyLS4wMjkuMjEtLjAzLjIwNS0uMDMyLjIwMi0uMDMzLjE5OC0uMDM1LjE5NC0uMDM2LjE5MS0uMDM3LjE4Ny0uMDM5LjE4My0uMDM5LjE3OS0uMDQxLjE3NS0uMDQyLjE3Mi0uMDQzLjE2OC0uMDQ0LjE2My0uMDQ1LjE2LS4wNDUuMTU1LS4wNDcuMTUyLS4wNDcuMTQ4LS4wNDguMTQzLS4wNDguMTM5LS4wNS4xMzYtLjA0OS4xMzEtLjA1LjEyNi0uMDUxLjEyMy0uMDUxLjExOC0uMDUxLjExNC0uMDUyLjExLS4wNTIuMTA2LS4wNTIuMTAxLS4wNTIuMDk2LS4wNTIuMDkyLS4wNTIuMDg4LS4wNTIuMDgzLS4wNTIuMDc5LS4wNTIuMDc0LS4wNTEuMDctLjA1Mi4wNjUtLjA1MS4wNi0uMDUuMDU2LS4wNTEuMDUxLS4wNDkuMDIzLS4wMjUuMDIzLS4wMjQuMDIxLS4wMjUuMDItLjAyNC4wMTktLjAyNC4wMTgtLjAyNC4wMTctLjAyNC4wMTUtLjAyMy4wMTQtLjAyMy4wMTMtLjAyNC4wMTItLjAyMi4wMS0uMDIzLjAxLS4wMjMuMDA4LS4wMjIuMDA2LS4wMjIuMDA2LS4wMjIuMDA0LS4wMjEuMDA0LS4wMjIuMDAxLS4wMjEuMDAxLS4wMjF2LTQuMTM5bC0uMDc3LjA1NC0uMDguMDU0LS4wODMuMDU0LS4wODUuMDUyLS4wODcuMDUzLS4wOS4wNTEtLjA5My4wNTEtLjA5NS4wNTEtLjA5Ny4wNS0uMS4wNDktLjEwMi4wNDktLjEwNS4wNDgtLjEwNi4wNDctLjEwOS4wNDctLjExMS4wNDYtLjExNC4wNDUtLjExNS4wNDQtLjExOC4wNDQtLjEyLjA0NC0uMTIyLjA0Mi0uMTI0LjA0Mi0uMTI2LjA0MS0uMTI4LjA0LS4xMy4wMzktLjEzMi4wMzktLjEzNC4wMzgtLjEzNS4wMzctLjEzOC4wMzYtLjEzOS4wMzYtLjE0Mi4wMzUtLjE0My4wMzMtLjE0NC4wMzMtLjE0Ny4wMzMtLjE0OC4wMzEtLjE1LjAzLS4xNTEuMDMtLjE1My4wMjgtLjE1NC4wMjgtLjE1Ni4wMjctLjE1OC4wMjYtLjE1OS4wMjUtLjE2MS4wMjQtLjE2Mi4wMjMtLjE2My4wMjItLjE2NS4wMjEtLjE2Ni4wMi0uMTY3LjAxOS0uMTY5LjAxOC0uMTY5LjAxNy0uMTcxLjAxNi0uMTczLjAxNS0uMTczLjAxNC0uMTc1LjAxMy0uMTc1LjAxMi0uMTc3LjAxMS0uMTc4LjAwOS0uMTc5LjAwOS0uMTc5LjAwNy0uMTgxLjAwNy0uMTgyLjAwNS0uMTgyLjAwNC0uMTg0LjAwMy0uMTg0LjAwMmgtLjM3bC0uMTg0LS4wMDItLjE4NC0uMDAzLS4xODItLjAwNC0uMTgyLS4wMDUtLjE4MS0uMDA3LS4xNzktLjAwNy0uMTc5LS4wMDktLjE3OC0uMDA5LS4xNzYtLjAxMS0uMTc2LS4wMTItLjE3NS0uMDEzLS4xNzMtLjAxNC0uMTcyLS4wMTUtLjE3MS0uMDE2LS4xNy0uMDE3LS4xNjktLjAxOC0uMTY3LS4wMTktLjE2Ni0uMDItLjE2NS0uMDIxLS4xNjMtLjAyMi0uMTYyLS4wMjMtLjE2MS0uMDI0LS4xNTktLjAyNS0uMTU3LS4wMjYtLjE1Ni0uMDI3LS4xNTUtLjAyOC0uMTUzLS4wMjgtLjE1MS0uMDMtLjE1LS4wMy0uMTQ4LS4wMzEtLjE0Ni0uMDMzLS4xNDUtLjAzMy0uMTQzLS4wMzMtLjE0MS0uMDM1LS4xNC0uMDM2LS4xMzctLjAzNi0uMTM2LS4wMzctLjEzNC0uMDM4LS4xMzItLjAzOS0uMTMtLjAzOS0uMTI4LS4wNC0uMTI2LS4wNDEtLjEyNC0uMDQyLS4xMjItLjA0My0uMTItLjA0My0uMTE3LS4wNDQtLjExNi0uMDQ0LS4xMTMtLjA0Ni0uMTEyLS4wNDYtLjEwOS0uMDQ2LS4xMDYtLjA0Ny0uMTA1LS4wNDgtLjEwMi0uMDQ5LS4xLS4wNDktLjA5Ny0uMDUtLjA5NS0uMDUxLS4wOTMtLjA1MS0uMDktLjA1MS0uMDg3LS4wNTMtLjA4NS0uMDUyLS4wODMtLjA1NC0uMDgtLjA1NC0uMDc3LS4wNTR2NC4xMzl6bTAtNS42NjZ2LjAxMWwuMDAxLjAyLjAwMy4wMjIuMDA0LjAyMS4wMDUuMDIyLjAwNi4wMjEuMDA3LjAyMi4wMDkuMDIzLjAxLjAyMi4wMTEuMDIzLjAxMi4wMjMuMDEzLjAyMy4wMTUuMDIzLjAxNi4wMjQuMDE3LjAyNC4wMTguMDIzLjAxOS4wMjQuMDIxLjAyNS4wMjIuMDI0LjAyMy4wMjQuMDI0LjAyNS4wNTIuMDUuMDU2LjA1LjA2MS4wNS4wNjYuMDUxLjA3LjA1MS4wNzUuMDUyLjA3OS4wNTEuMDg0LjA1Mi4wODguMDUyLjA5Mi4wNTIuMDk3LjA1Mi4xMDIuMDUyLjEwNS4wNTEuMTEuMDUyLjExNC4wNTEuMTE5LjA1MS4xMjMuMDUxLjEyNy4wNS4xMzEuMDUuMTM1LjA1LjEzOS4wNDkuMTQ0LjA0OC4xNDcuMDQ4LjE1Mi4wNDcuMTU1LjA0Ni4xNi4wNDUuMTYzLjA0NS4xNjcuMDQzLjE3MS4wNDMuMTc2LjA0Mi4xNzguMDQuMTgzLjA0LjE4Ny4wMzguMTkuMDM3LjE5NC4wMzYuMTk3LjAzNC4yMDIuMDMzLjIwNC4wMzIuMjA5LjAzLjIxMi4wMjguMjE2LjAyNy4yMTkuMDI1LjIyMi4wMjQuMjI2LjAyMS4yMy4wMi4yMzMuMDE4LjIzNi4wMTcuMjQuMDE0LjI0My4wMTIuMjQ2LjAxLjI0OS4wMDguMjUzLjAwNi4yNTYuMDAzLjI1OS4wMDEuMjYtLjAwMS4yNTctLjAwMy4yNTQtLjAwNi4yNS0uMDA4LjI0Ny0uMDEuMjQ0LS4wMTMuMjQxLS4wMTQuMjM3LS4wMTYuMjMzLS4wMTguMjMxLS4wMi4yMjYtLjAyMi4yMjQtLjAyNC4yMi0uMDI1LjIxNi0uMDI3LjIxMi0uMDI5LjIxLS4wMy4yMDUtLjAzMi4yMDItLjAzMy4xOTgtLjAzNS4xOTQtLjAzNi4xOTEtLjAzNy4xODctLjAzOS4xODMtLjAzOS4xNzktLjA0MS4xNzUtLjA0Mi4xNzItLjA0My4xNjgtLjA0NC4xNjMtLjA0NS4xNi0uMDQ1LjE1NS0uMDQ3LjE1Mi0uMDQ3LjE0OC0uMDQ4LjE0My0uMDQ5LjEzOS0uMDQ5LjEzNi0uMDQ5LjEzMS0uMDUxLjEyNi0uMDUuMTIzLS4wNTEuMTE4LS4wNTIuMTE0LS4wNTEuMTEtLjA1Mi4xMDYtLjA1Mi4xMDEtLjA1Mi4wOTYtLjA1Mi4wOTItLjA1Mi4wODgtLjA1Mi4wODMtLjA1Mi4wNzktLjA1Mi4wNzQtLjA1Mi4wNy0uMDUxLjA2NS0uMDUxLjA2LS4wNTEuMDU2LS4wNS4wNTEtLjA0OS4wMjMtLjAyNS4wMjMtLjAyNS4wMjEtLjAyNC4wMi0uMDI0LjAxOS0uMDI0LjAxOC0uMDI0LjAxNy0uMDI0LjAxNS0uMDIzLjAxNC0uMDI0LjAxMy0uMDIzLjAxMi0uMDIzLjAxLS4wMjIuMDEtLjAyMy4wMDgtLjAyMi4wMDYtLjAyMi4wMDYtLjAyMi4wMDQtLjAyMi4wMDQtLjAyMS4wMDEtLjAyMS4wMDEtLjAyMXYtNC4xNTNsLS4wNzcuMDU0LS4wOC4wNTQtLjA4My4wNTMtLjA4NS4wNTMtLjA4Ny4wNTMtLjA5LjA1MS0uMDkzLjA1MS0uMDk1LjA1MS0uMDk3LjA1LS4xLjA0OS0uMTAyLjA0OC0uMTA1LjA0OC0uMTA2LjA0OC0uMTA5LjA0Ni0uMTExLjA0Ni0uMTE0LjA0Ni0uMTE1LjA0NC0uMTE4LjA0NC0uMTIuMDQzLS4xMjIuMDQzLS4xMjQuMDQyLS4xMjYuMDQxLS4xMjguMDQtLjEzLjAzOS0uMTMyLjAzOS0uMTM0LjAzOC0uMTM1LjAzNy0uMTM4LjAzNi0uMTM5LjAzNi0uMTQyLjAzNC0uMTQzLjAzNC0uMTQ0LjAzMy0uMTQ3LjAzMi0uMTQ4LjAzMi0uMTUuMDMtLjE1MS4wMy0uMTUzLjAyOC0uMTU0LjAyOC0uMTU2LjAyNy0uMTU4LjAyNi0uMTU5LjAyNC0uMTYxLjAyNC0uMTYyLjAyMy0uMTYzLjAyMy0uMTY1LjAyMS0uMTY2LjAyLS4xNjcuMDE5LS4xNjkuMDE4LS4xNjkuMDE3LS4xNzEuMDE2LS4xNzMuMDE1LS4xNzMuMDE0LS4xNzUuMDEzLS4xNzUuMDEyLS4xNzcuMDEtLjE3OC4wMS0uMTc5LjAwOS0uMTc5LjAwNy0uMTgxLjAwNi0uMTgyLjAwNi0uMTgyLjAwNC0uMTg0LjAwMy0uMTg0LjAwMS0uMTg1LjAwMS0uMTg1LS4wMDEtLjE4NC0uMDAxLS4xODQtLjAwMy0uMTgyLS4wMDQtLjE4Mi0uMDA2LS4xODEtLjAwNi0uMTc5LS4wMDctLjE3OS0uMDA5LS4xNzgtLjAxLS4xNzYtLjAxLS4xNzYtLjAxMi0uMTc1LS4wMTMtLjE3My0uMDE0LS4xNzItLjAxNS0uMTcxLS4wMTYtLjE3LS4wMTctLjE2OS0uMDE4LS4xNjctLjAxOS0uMTY2LS4wMi0uMTY1LS4wMjEtLjE2My0uMDIzLS4xNjItLjAyMy0uMTYxLS4wMjQtLjE1OS0uMDI0LS4xNTctLjAyNi0uMTU2LS4wMjctLjE1NS0uMDI4LS4xNTMtLjAyOC0uMTUxLS4wMy0uMTUtLjAzLS4xNDgtLjAzMi0uMTQ2LS4wMzItLjE0NS0uMDMzLS4xNDMtLjAzNC0uMTQxLS4wMzQtLjE0LS4wMzYtLjEzNy0uMDM2LS4xMzYtLjAzNy0uMTM0LS4wMzgtLjEzMi0uMDM5LS4xMy0uMDM5LS4xMjgtLjA0MS0uMTI2LS4wNDEtLjEyNC0uMDQxLS4xMjItLjA0My0uMTItLjA0My0uMTE3LS4wNDQtLjExNi0uMDQ0LS4xMTMtLjA0Ni0uMTEyLS4wNDYtLjEwOS0uMDQ2LS4xMDYtLjA0OC0uMTA1LS4wNDgtLjEwMi0uMDQ4LS4xLS4wNS0uMDk3LS4wNDktLjA5NS0uMDUxLS4wOTMtLjA1MS0uMDktLjA1Mi0uMDg3LS4wNTItLjA4NS0uMDUzLS4wODMtLjA1My0uMDgtLjA1NC0uMDc3LS4wNTR2NC4xNTN6bTguNzQtOC4xNzlsLS4yNTcuMDA0LS4yNTQuMDA1LS4yNS4wMDgtLjI0Ny4wMTEtLjI0NC4wMTItLjI0MS4wMTQtLjIzNy4wMTYtLjIzMy4wMTgtLjIzMS4wMjEtLjIyNi4wMjItLjIyNC4wMjMtLjIyLjAyNi0uMjE2LjAyNy0uMjEyLjAyOC0uMjEuMDMxLS4yMDUuMDMyLS4yMDIuMDMzLS4xOTguMDM0LS4xOTQuMDM2LS4xOTEuMDM4LS4xODcuMDM4LS4xODMuMDQtLjE3OS4wNDEtLjE3NS4wNDItLjE3Mi4wNDMtLjE2OC4wNDMtLjE2My4wNDUtLjE2LjA0Ni0uMTU1LjA0Ni0uMTUyLjA0OC0uMTQ4LjA0OC0uMTQzLjA0OC0uMTM5LjA0OS0uMTM2LjA1LS4xMzEuMDUtLjEyNi4wNTEtLjEyMy4wNTEtLjExOC4wNTEtLjExNC4wNTItLjExLjA1Mi0uMTA2LjA1Mi0uMTAxLjA1Mi0uMDk2LjA1Mi0uMDkyLjA1Mi0uMDg4LjA1Mi0uMDgzLjA1Mi0uMDc5LjA1Mi0uMDc0LjA1MS0uMDcuMDUyLS4wNjUuMDUxLS4wNi4wNS0uMDU2LjA1LS4wNTEuMDUtLjAyMy4wMjUtLjAyMy4wMjQtLjAyMS4wMjQtLjAyLjAyNS0uMDE5LjAyNC0uMDE4LjAyNC0uMDE3LjAyMy0uMDE1LjAyNC0uMDE0LjAyMy0uMDEzLjAyMy0uMDEyLjAyMy0uMDEuMDIzLS4wMS4wMjItLjAwOC4wMjItLjAwNi4wMjMtLjAwNi4wMjEtLjAwNC4wMjItLjAwNC4wMjEtLjAwMS4wMjEtLjAwMS4wMjEuMDAxLjAyMS4wMDEuMDIxLjAwNC4wMjEuMDA0LjAyMi4wMDYuMDIxLjAwNi4wMjMuMDA4LjAyMi4wMS4wMjIuMDEuMDIzLjAxMi4wMjMuMDEzLjAyMy4wMTQuMDIzLjAxNS4wMjQuMDE3LjAyMy4wMTguMDI0LjAxOS4wMjQuMDIuMDI1LjAyMS4wMjQuMDIzLjAyNC4wMjMuMDI1LjA1MS4wNS4wNTYuMDUuMDYuMDUuMDY1LjA1MS4wNy4wNTIuMDc0LjA1MS4wNzkuMDUyLjA4My4wNTIuMDg4LjA1Mi4wOTIuMDUyLjA5Ni4wNTIuMTAxLjA1Mi4xMDYuMDUyLjExLjA1Mi4xMTQuMDUyLjExOC4wNTEuMTIzLjA1MS4xMjYuMDUxLjEzMS4wNS4xMzYuMDUuMTM5LjA0OS4xNDMuMDQ4LjE0OC4wNDguMTUyLjA0OC4xNTUuMDQ2LjE2LjA0Ni4xNjMuMDQ1LjE2OC4wNDMuMTcyLjA0My4xNzUuMDQyLjE3OS4wNDEuMTgzLjA0LjE4Ny4wMzguMTkxLjAzOC4xOTQuMDM2LjE5OC4wMzQuMjAyLjAzMy4yMDUuMDMyLjIxLjAzMS4yMTIuMDI4LjIxNi4wMjcuMjIuMDI2LjIyNC4wMjMuMjI2LjAyMi4yMzEuMDIxLjIzMy4wMTguMjM3LjAxNi4yNDEuMDE0LjI0NC4wMTIuMjQ3LjAxMS4yNS4wMDguMjU0LjAwNS4yNTcuMDA0LjI2LjAwMS4yNi0uMDAxLjI1Ny0uMDA0LjI1NC0uMDA1LjI1LS4wMDguMjQ3LS4wMTEuMjQ0LS4wMTIuMjQxLS4wMTQuMjM3LS4wMTYuMjMzLS4wMTguMjMxLS4wMjEuMjI2LS4wMjIuMjI0LS4wMjMuMjItLjAyNi4yMTYtLjAyNy4yMTItLjAyOC4yMS0uMDMxLjIwNS0uMDMyLjIwMi0uMDMzLjE5OC0uMDM0LjE5NC0uMDM2LjE5MS0uMDM4LjE4Ny0uMDM4LjE4My0uMDQuMTc5LS4wNDEuMTc1LS4wNDIuMTcyLS4wNDMuMTY4LS4wNDMuMTYzLS4wNDUuMTYtLjA0Ni4xNTUtLjA0Ni4xNTItLjA0OC4xNDgtLjA0OC4xNDMtLjA0OC4xMzktLjA0OS4xMzYtLjA1LjEzMS0uMDUuMTI2LS4wNTEuMTIzLS4wNTEuMTE4LS4wNTEuMTE0LS4wNTIuMTEtLjA1Mi4xMDYtLjA1Mi4xMDEtLjA1Mi4wOTYtLjA1Mi4wOTItLjA1Mi4wODgtLjA1Mi4wODMtLjA1Mi4wNzktLjA1Mi4wNzQtLjA1MS4wNy0uMDUyLjA2NS0uMDUxLjA2LS4wNS4wNTYtLjA1LjA1MS0uMDUuMDIzLS4wMjUuMDIzLS4wMjQuMDIxLS4wMjQuMDItLjAyNS4wMTktLjAyNC4wMTgtLjAyNC4wMTctLjAyMy4wMTUtLjAyNC4wMTQtLjAyMy4wMTMtLjAyMy4wMTItLjAyMy4wMS0uMDIzLjAxLS4wMjIuMDA4LS4wMjIuMDA2LS4wMjMuMDA2LS4wMjEuMDA0LS4wMjIuMDA0LS4wMjEuMDAxLS4wMjEuMDAxLS4wMjEtLjAwMS0uMDIxLS4wMDEtLjAyMS0uMDA0LS4wMjEtLjAwNC0uMDIyLS4wMDYtLjAyMS0uMDA2LS4wMjMtLjAwOC0uMDIyLS4wMS0uMDIyLS4wMS0uMDIzLS4wMTItLjAyMy0uMDEzLS4wMjMtLjAxNC0uMDIzLS4wMTUtLjAyNC0uMDE3LS4wMjMtLjAxOC0uMDI0LS4wMTktLjAyNC0uMDItLjAyNS0uMDIxLS4wMjQtLjAyMy0uMDI0LS4wMjMtLjAyNS0uMDUxLS4wNS0uMDU2LS4wNS0uMDYtLjA1LS4wNjUtLjA1MS0uMDctLjA1Mi0uMDc0LS4wNTEtLjA3OS0uMDUyLS4wODMtLjA1Mi0uMDg4LS4wNTItLjA5Mi0uMDUyLS4wOTYtLjA1Mi0uMTAxLS4wNTItLjEwNi0uMDUyLS4xMS0uMDUyLS4xMTQtLjA1Mi0uMTE4LS4wNTEtLjEyMy0uMDUxLS4xMjYtLjA1MS0uMTMxLS4wNS0uMTM2LS4wNS0uMTM5LS4wNDktLjE0My0uMDQ4LS4xNDgtLjA0OC0uMTUyLS4wNDgtLjE1NS0uMDQ2LS4xNi0uMDQ2LS4xNjMtLjA0NS0uMTY4LS4wNDMtLjE3Mi0uMDQzLS4xNzUtLjA0Mi0uMTc5LS4wNDEtLjE4My0uMDQtLjE4Ny0uMDM4LS4xOTEtLjAzOC0uMTk0LS4wMzYtLjE5OC0uMDM0LS4yMDItLjAzMy0uMjA1LS4wMzItLjIxLS4wMzEtLjIxMi0uMDI4LS4yMTYtLjAyNy0uMjItLjAyNi0uMjI0LS4wMjMtLjIyNi0uMDIyLS4yMzEtLjAyMS0uMjMzLS4wMTgtLjIzNy0uMDE2LS4yNDEtLjAxNC0uMjQ0LS4wMTItLjI0Ny0uMDExLS4yNS0uMDA4LS4yNTQtLjAwNS0uMjU3LS4wMDQtLjI2LS4wMDEtLjI2LjAwMXoiIHRyYW5zZm9ybT0ic2NhbGUoLjUpIj48L3BhdGg+PC9zeW1ib2w+PC9kZWZzPjxkZWZzPjxzeW1ib2wgaGVpZ2h0PSIyNCIgd2lkdGg9IjI0IiBpZD0iY2xvY2siPjxwYXRoIGQ9Ik0xMiAyYzUuNTE0IDAgMTAgNC40ODYgMTAgMTBzLTQuNDg2IDEwLTEwIDEwLTEwLTQuNDg2LTEwLTEwIDQuNDg2LTEwIDEwLTEwem0wLTJjLTYuNjI3IDAtMTIgNS4zNzMtMTIgMTJzNS4zNzMgMTIgMTIgMTIgMTItNS4zNzMgMTItMTItNS4zNzMtMTItMTItMTJ6bTUuODQ4IDEyLjQ1OWMuMjAyLjAzOC4yMDIuMzMzLjAwMS4zNzItMS45MDcuMzYxLTYuMDQ1IDEuMTExLTYuNTQ3IDEuMTExLS43MTkgMC0xLjMwMS0uNTgyLTEuMzAxLTEuMzAxIDAtLjUxMi43Ny01LjQ0NyAxLjEyNS03LjQ0NS4wMzQtLjE5Mi4zMTItLjE4MS4zNDMuMDE0bC45ODUgNi4yMzggNS4zOTQgMS4wMTF6IiB0cmFuc2Zvcm09InNjYWxlKC41KSI+PC9wYXRoPjwvc3ltYm9sPjwvZGVmcz48Zz48bGluZSBzdHJva2U9IiM5OTkiIHN0cm9rZS13aWR0aD0iMC41cHgiIGNsYXNzPSIyMDAiIHkyPSI1NDAiIHgyPSI3NSIgeTE9IjUiIHgxPSI3NSIgaWQ9ImFjdG9yMCI+PC9saW5lPjxnIGlkPSJyb290LTAiPjxyZWN0IGNsYXNzPSJhY3RvciIgcnk9IjMiIHJ4PSIzIiBoZWlnaHQ9IjY1IiB3aWR0aD0iMTUwIiBzdHJva2U9IiM2NjYiIGZpbGw9IiNlYWVhZWEiIHk9IjAiIHg9IjAiPjwvcmVjdD48dGV4dCBzdHlsZT0idGV4dC1hbmNob3I6IG1pZGRsZTsgZm9udC1zaXplOiAxNHB4OyBmb250LXdlaWdodDogNDAwOyBmb250LWZhbWlseTogT3Blbi1TYW5zLCAmcXVvdDtzYW5zLXNlcmlmJnF1b3Q7OyIgY2xhc3M9ImFjdG9yIiBhbGlnbm1lbnQtYmFzZWxpbmU9ImNlbnRyYWwiIGRvbWluYW50LWJhc2VsaW5lPSJjZW50cmFsIiB5PSIzMi41IiB4PSI3NSI+PHRzcGFuIGR5PSIwIiB4PSI3NSI+U3R1ZGVudDwvdHNwYW4+PC90ZXh0PjwvZz48L2c+PGc+PGxpbmUgc3Ryb2tlPSIjOTk5IiBzdHJva2Utd2lkdGg9IjAuNXB4IiBjbGFzcz0iMjAwIiB5Mj0iNTQwIiB4Mj0iMzI5IiB5MT0iNSIgeDE9IjMyOSIgaWQ9ImFjdG9yMSI+PC9saW5lPjxnIGlkPSJyb290LTEiPjxyZWN0IGNsYXNzPSJhY3RvciIgcnk9IjMiIHJ4PSIzIiBoZWlnaHQ9IjY1IiB3aWR0aD0iMTUwIiBzdHJva2U9IiM2NjYiIGZpbGw9IiNlYWVhZWEiIHk9IjAiIHg9IjI1NCI+PC9yZWN0Pjx0ZXh0IHN0eWxlPSJ0ZXh0LWFuY2hvcjogbWlkZGxlOyBmb250LXNpemU6IDE0cHg7IGZvbnQtd2VpZ2h0OiA0MDA7IGZvbnQtZmFtaWx5OiBPcGVuLVNhbnMsICZxdW90O3NhbnMtc2VyaWYmcXVvdDs7IiBjbGFzcz0iYWN0b3IiIGFsaWdubWVudC1iYXNlbGluZT0iY2VudHJhbCIgZG9taW5hbnQtYmFzZWxpbmU9ImNlbnRyYWwiIHk9IjMyLjUiIHg9IjMyOSI+PHRzcGFuIGR5PSIwIiB4PSIzMjkiPkFkbWluPC90c3Bhbj48L3RleHQ+PC9nPjwvZz48Zz48bGluZSBzdHJva2U9IiM5OTkiIHN0cm9rZS13aWR0aD0iMC41cHgiIGNsYXNzPSIyMDAiIHkyPSI1NDAiIHgyPSI1NjMiIHkxPSI1IiB4MT0iNTYzIiBpZD0iYWN0b3IyIj48L2xpbmU+PGcgaWQ9InJvb3QtMiI+PHJlY3QgY2xhc3M9ImFjdG9yIiByeT0iMyIgcng9IjMiIGhlaWdodD0iNjUiIHdpZHRoPSIxNTAiIHN0cm9rZT0iIzY2NiIgZmlsbD0iI2VhZWFlYSIgeT0iMCIgeD0iNDg4Ij48L3JlY3Q+PHRleHQgc3R5bGU9InRleHQtYW5jaG9yOiBtaWRkbGU7IGZvbnQtc2l6ZTogMTRweDsgZm9udC13ZWlnaHQ6IDQwMDsgZm9udC1mYW1pbHk6IE9wZW4tU2FucywgJnF1b3Q7c2Fucy1zZXJpZiZxdW90OzsiIGNsYXNzPSJhY3RvciIgYWxpZ25tZW50LWJhc2VsaW5lPSJjZW50cmFsIiBkb21pbmFudC1iYXNlbGluZT0iY2VudHJhbCIgeT0iMzIuNSIgeD0iNTYzIj48dHNwYW4gZHk9IjAiIHg9IjU2MyI+UHJvZmVzc29yPC90c3Bhbj48L3RleHQ+PC9nPjwvZz48ZGVmcz48bWFya2VyIG9yaWVudD0iYXV0byIgbWFya2VySGVpZ2h0PSIxMiIgbWFya2VyV2lkdGg9IjEyIiBtYXJrZXJVbml0cz0idXNlclNwYWNlT25Vc2UiIHJlZlk9IjUiIHJlZlg9IjkiIGlkPSJhcnJvd2hlYWQiPjxwYXRoIGQ9Ik0gMCAwIEwgMTAgNSBMIDAgMTAgeiI+PC9wYXRoPjwvbWFya2VyPjwvZGVmcz48ZGVmcz48bWFya2VyIHJlZlk9IjQiIHJlZlg9IjE2IiBvcmllbnQ9ImF1dG8iIG1hcmtlckhlaWdodD0iOCIgbWFya2VyV2lkdGg9IjE1IiBpZD0iY3Jvc3NoZWFkIj48cGF0aCBzdHlsZT0ic3Ryb2tlLWRhc2hhcnJheTogMCwgMDsiIGQ9Ik0gOSwyIFYgNiBMMTYsNCBaIiBzdHJva2Utd2lkdGg9IjFweCIgc3Ryb2tlPSIjMDAwMDAwIiBmaWxsPSJibGFjayI+PC9wYXRoPjxwYXRoIHN0eWxlPSJzdHJva2UtZGFzaGFycmF5OiAwLCAwOyIgZD0iTSAwLDEgTCA2LDcgTSA2LDEgTCAwLDciIHN0cm9rZS13aWR0aD0iMXB4IiBzdHJva2U9IiMwMDAwMDAiIGZpbGw9Im5vbmUiPjwvcGF0aD48L21hcmtlcj48L2RlZnM+PGRlZnM+PG1hcmtlciBvcmllbnQ9ImF1dG8iIG1hcmtlckhlaWdodD0iMjgiIG1hcmtlcldpZHRoPSIyMCIgcmVmWT0iNyIgcmVmWD0iMTgiIGlkPSJmaWxsZWQtaGVhZCI+PHBhdGggZD0iTSAxOCw3IEw5LDEzIEwxNCw3IEw5LDEgWiI+PC9wYXRoPjwvbWFya2VyPjwvZGVmcz48ZGVmcz48bWFya2VyIG9yaWVudD0iYXV0byIgbWFya2VySGVpZ2h0PSI0MCIgbWFya2VyV2lkdGg9IjYwIiByZWZZPSIxNSIgcmVmWD0iMTUiIGlkPSJzZXF1ZW5jZW51bWJlciI+PGNpcmNsZSByPSI2IiBjeT0iMTUiIGN4PSIxNSI+PC9jaXJjbGU+PC9tYXJrZXI+PC9kZWZzPjxnPjxsaW5lIGNsYXNzPSJsb29wTGluZSIgeTI9IjEyMyIgeDI9IjQxOSIgeTE9IjEyMyIgeDE9IjIzOSI+PC9saW5lPjxsaW5lIGNsYXNzPSJsb29wTGluZSIgeTI9IjI5NCIgeDI9IjQxOSIgeTE9IjEyMyIgeDE9IjQxOSI+PC9saW5lPjxsaW5lIGNsYXNzPSJsb29wTGluZSIgeTI9IjI5NCIgeDI9IjQxOSIgeTE9IjI5NCIgeDE9IjIzOSI+PC9saW5lPjxsaW5lIGNsYXNzPSJsb29wTGluZSIgeTI9IjI5NCIgeDI9IjIzOSIgeTE9IjEyMyIgeDE9IjIzOSI+PC9saW5lPjxwb2x5Z29uIGNsYXNzPSJsYWJlbEJveCIgcG9pbnRzPSIyMzksMTIzIDI4OSwxMjMgMjg5LDEzNiAyODAuNiwxNDMgMjM5LDE0MyI+PC9wb2x5Z29uPjx0ZXh0IHN0eWxlPSJmb250LWZhbWlseTogJnF1b3Q7dHJlYnVjaGV0IG1zJnF1b3Q7LCB2ZXJkYW5hLCBhcmlhbDsgZm9udC1zaXplOiAxNnB4OyBmb250LXdlaWdodDogNDAwOyIgY2xhc3M9ImxhYmVsVGV4dCIgYWxpZ25tZW50LWJhc2VsaW5lPSJtaWRkbGUiIGRvbWluYW50LWJhc2VsaW5lPSJtaWRkbGUiIHRleHQtYW5jaG9yPSJtaWRkbGUiIHk9IjEzNiIgeD0iMjY0Ij5sb29wPC90ZXh0Pjx0ZXh0IHN0eWxlPSJmb250LWZhbWlseTogJnF1b3Q7dHJlYnVjaGV0IG1zJnF1b3Q7LCB2ZXJkYW5hLCBhcmlhbDsgZm9udC1zaXplOiAxNnB4OyBmb250LXdlaWdodDogNDAwOyIgY2xhc3M9Imxvb3BUZXh0IiB0ZXh0LWFuY2hvcj0ibWlkZGxlIiB5PSIxNDEiIHg9IjM1NCI+PHRzcGFuIHg9IjM1NCI+W2Vucm9sbWVudENoZWMtPC90c3Bhbj48L3RleHQ+PHRleHQgc3R5bGU9ImZvbnQtZmFtaWx5OiAmcXVvdDt0cmVidWNoZXQgbXMmcXVvdDssIHZlcmRhbmEsIGFyaWFsOyBmb250LXNpemU6IDE2cHg7IGZvbnQtd2VpZ2h0OiA0MDA7IiBjbGFzcz0ibG9vcFRleHQiIHRleHQtYW5jaG9yPSJtaWRkbGUiIHk9IjE1OSIgeD0iMzU0Ij48dHNwYW4geD0iMzU0Ij5rXTwvdHNwYW4+PC90ZXh0PjwvZz48Zz48cmVjdCBjbGFzcz0ibm90ZSIgcnk9IjAiIHJ4PSIwIiBoZWlnaHQ9IjUyIiB3aWR0aD0iMTUwIiBzdHJva2U9IiM2NjYiIGZpbGw9IiNFREYyQUUiIHk9IjMwNCIgeD0iMzU0Ij48L3JlY3Q+PHRleHQgc3R5bGU9ImZvbnQtZmFtaWx5OiAmcXVvdDt0cmVidWNoZXQgbXMmcXVvdDssIHZlcmRhbmEsIGFyaWFsOyBmb250LXNpemU6IDE0cHg7IGZvbnQtd2VpZ2h0OiA0MDA7IiBkeT0iMWVtIiBjbGFzcz0ibm90ZVRleHQiIGFsaWdubWVudC1iYXNlbGluZT0ibWlkZGxlIiBkb21pbmFudC1iYXNlbGluZT0ibWlkZGxlIiB0ZXh0LWFuY2hvcj0ibWlkZGxlIiB5PSIzMDkiIHg9IjQyOSI+PHRzcGFuIHg9IjQyOSI+RXhhbSByZXN1bHRzIG1heSA8L3RzcGFuPjwvdGV4dD48dGV4dCBzdHlsZT0iZm9udC1mYW1pbHk6ICZxdW90O3RyZWJ1Y2hldCBtcyZxdW90OywgdmVyZGFuYSwgYXJpYWw7IGZvbnQtc2l6ZTogMTRweDsgZm9udC13ZWlnaHQ6IDQwMDsiIGR5PSIxZW0iIGNsYXNzPSJub3RlVGV4dCIgYWxpZ25tZW50LWJhc2VsaW5lPSJtaWRkbGUiIGRvbWluYW50LWJhc2VsaW5lPSJtaWRkbGUiIHRleHQtYW5jaG9yPSJtaWRkbGUiIHk9IjMyNSIgeD0iNDI5Ij48dHNwYW4geD0iNDI5Ij4gYmUgZGVsYXllZDwvdHNwYW4+PC90ZXh0PjwvZz48dGV4dCBzdHlsZT0iZm9udC1mYW1pbHk6ICZxdW90O3RyZWJ1Y2hldCBtcyZxdW90OywgdmVyZGFuYSwgYXJpYWw7IGZvbnQtc2l6ZTogMTZweDsgZm9udC13ZWlnaHQ6IDQwMDsiIGR5PSIxZW0iIGNsYXNzPSJtZXNzYWdlVGV4dCIgYWxpZ25tZW50LWJhc2VsaW5lPSJtaWRkbGUiIGRvbWluYW50LWJhc2VsaW5lPSJtaWRkbGUiIHRleHQtYW5jaG9yPSJtaWRkbGUiIHk9IjgwIiB4PSIyMDIiPkNhbiBJIGVucm9sIHRoaXMgc2VtZXN0ZXI/PC90ZXh0PjxsaW5lIHN0eWxlPSJmaWxsOiBub25lOyIgbWFya2VyLXN0YXJ0PSJ1cmwoI3NlcXVlbmNlbnVtYmVyKSIgbWFya2VyLWVuZD0idXJsKCNhcnJvd2hlYWQpIiBzdHJva2U9Im5vbmUiIHN0cm9rZS13aWR0aD0iMiIgY2xhc3M9Im1lc3NhZ2VMaW5lMCIgeTI9IjExMyIgeDI9IjMyOSIgeTE9IjExMyIgeDE9Ijc1Ij48L2xpbmU+PHRleHQgY2xhc3M9InNlcXVlbmNlTnVtYmVyIiB0ZXh0LWFuY2hvcj0ibWlkZGxlIiBmb250LXNpemU9IjEycHgiIGZvbnQtZmFtaWx5PSJzYW5zLXNlcmlmIiB5PSIxMTciIHg9Ijc1Ij4xPC90ZXh0Pjx0ZXh0IHN0eWxlPSJmb250LWZhbWlseTogJnF1b3Q7dHJlYnVjaGV0IG1zJnF1b3Q7LCB2ZXJkYW5hLCBhcmlhbDsgZm9udC1zaXplOiAxNnB4OyBmb250LXdlaWdodDogNDAwOyIgZHk9IjFlbSIgY2xhc3M9Im1lc3NhZ2VUZXh0IiBhbGlnbm1lbnQtYmFzZWxpbmU9Im1pZGRsZSIgZG9taW5hbnQtYmFzZWxpbmU9Im1pZGRsZSIgdGV4dC1hbmNob3I9Im1pZGRsZSIgeT0iMTkxIiB4PSIzMjkiPkNoZWNrIHByZXZpb3VzIHJlc3VsdHM8L3RleHQ+PHBhdGggc3R5bGU9ImZpbGw6IG5vbmU7IiBtYXJrZXItc3RhcnQ9InVybCgjc2VxdWVuY2VudW1iZXIpIiBtYXJrZXItZW5kPSJ1cmwoI2Fycm93aGVhZCkiIHN0cm9rZT0ibm9uZSIgc3Ryb2tlLXdpZHRoPSIyIiBjbGFzcz0ibWVzc2FnZUxpbmUwIiBkPSJNIDMyOSwyMjQgQyAzODksMjE0IDM4OSwyNTQgMzI5LDI0NCI+PC9wYXRoPjx0ZXh0IGNsYXNzPSJzZXF1ZW5jZU51bWJlciIgdGV4dC1hbmNob3I9Im1pZGRsZSIgZm9udC1zaXplPSIxMnB4IiBmb250LWZhbWlseT0ic2Fucy1zZXJpZiIgeT0iMjI4IiB4PSIzMjkiPjI8L3RleHQ+PHRleHQgc3R5bGU9ImZvbnQtZmFtaWx5OiAmcXVvdDt0cmVidWNoZXQgbXMmcXVvdDssIHZlcmRhbmEsIGFyaWFsOyBmb250LXNpemU6IDE2cHg7IGZvbnQtd2VpZ2h0OiA0MDA7IiBkeT0iMWVtIiBjbGFzcz0ibWVzc2FnZVRleHQiIGFsaWdubWVudC1iYXNlbGluZT0ibWlkZGxlIiBkb21pbmFudC1iYXNlbGluZT0ibWlkZGxlIiB0ZXh0LWFuY2hvcj0ibWlkZGxlIiB5PSIzNzEiIHg9IjIwMiI+RW5yb2xtZW50IHN1Y2Nlc3M8L3RleHQ+PGxpbmUgc3R5bGU9InN0cm9rZS1kYXNoYXJyYXk6IDMsIDM7IGZpbGw6IG5vbmU7IiBtYXJrZXItc3RhcnQ9InVybCgjc2VxdWVuY2VudW1iZXIpIiBtYXJrZXItZW5kPSJ1cmwoI2Fycm93aGVhZCkiIHN0cm9rZT0ibm9uZSIgc3Ryb2tlLXdpZHRoPSIyIiBjbGFzcz0ibWVzc2FnZUxpbmUxIiB5Mj0iNDA0IiB4Mj0iNzUiIHkxPSI0MDQiIHgxPSIzMjkiPjwvbGluZT48dGV4dCBjbGFzcz0ic2VxdWVuY2VOdW1iZXIiIHRleHQtYW5jaG9yPSJtaWRkbGUiIGZvbnQtc2l6ZT0iMTJweCIgZm9udC1mYW1pbHk9InNhbnMtc2VyaWYiIHk9IjQwOCIgeD0iMzI5Ij4zPC90ZXh0Pjx0ZXh0IHN0eWxlPSJmb250LWZhbWlseTogJnF1b3Q7dHJlYnVjaGV0IG1zJnF1b3Q7LCB2ZXJkYW5hLCBhcmlhbDsgZm9udC1zaXplOiAxNnB4OyBmb250LXdlaWdodDogNDAwOyIgZHk9IjFlbSIgY2xhc3M9Im1lc3NhZ2VUZXh0IiBhbGlnbm1lbnQtYmFzZWxpbmU9Im1pZGRsZSIgZG9taW5hbnQtYmFzZWxpbmU9Im1pZGRsZSIgdGV4dC1hbmNob3I9Im1pZGRsZSIgeT0iNDE5IiB4PSI0NDYiPkFzc2lnbiBzdHVkZW50IHRvIHR1dG9yPC90ZXh0PjxsaW5lIHN0eWxlPSJmaWxsOiBub25lOyIgbWFya2VyLXN0YXJ0PSJ1cmwoI3NlcXVlbmNlbnVtYmVyKSIgbWFya2VyLWVuZD0idXJsKCNhcnJvd2hlYWQpIiBzdHJva2U9Im5vbmUiIHN0cm9rZS13aWR0aD0iMiIgY2xhc3M9Im1lc3NhZ2VMaW5lMCIgeTI9IjQ1MiIgeDI9IjU2MyIgeTE9IjQ1MiIgeDE9IjMyOSI+PC9saW5lPjx0ZXh0IGNsYXNzPSJzZXF1ZW5jZU51bWJlciIgdGV4dC1hbmNob3I9Im1pZGRsZSIgZm9udC1zaXplPSIxMnB4IiBmb250LWZhbWlseT0ic2Fucy1zZXJpZiIgeT0iNDU2IiB4PSIzMjkiPjQ8L3RleHQ+PHRleHQgc3R5bGU9ImZvbnQtZmFtaWx5OiAmcXVvdDt0cmVidWNoZXQgbXMmcXVvdDssIHZlcmRhbmEsIGFyaWFsOyBmb250LXNpemU6IDE2cHg7IGZvbnQtd2VpZ2h0OiA0MDA7IiBkeT0iMWVtIiBjbGFzcz0ibWVzc2FnZVRleHQiIGFsaWdubWVudC1iYXNlbGluZT0ibWlkZGxlIiBkb21pbmFudC1iYXNlbGluZT0ibWlkZGxlIiB0ZXh0LWFuY2hvcj0ibWlkZGxlIiB5PSI0NjciIHg9IjQ0NiI+U3R1ZGVudCBpcyBhc3NpZ25lZDwvdGV4dD48bGluZSBzdHlsZT0ic3Ryb2tlLWRhc2hhcnJheTogMywgMzsgZmlsbDogbm9uZTsiIG1hcmtlci1zdGFydD0idXJsKCNzZXF1ZW5jZW51bWJlcikiIG1hcmtlci1lbmQ9InVybCgjYXJyb3doZWFkKSIgc3Ryb2tlPSJub25lIiBzdHJva2Utd2lkdGg9IjIiIGNsYXNzPSJtZXNzYWdlTGluZTEiIHkyPSI1MDAiIHgyPSIzMjkiIHkxPSI1MDAiIHgxPSI1NjMiPjwvbGluZT48dGV4dCBjbGFzcz0ic2VxdWVuY2VOdW1iZXIiIHRleHQtYW5jaG9yPSJtaWRkbGUiIGZvbnQtc2l6ZT0iMTJweCIgZm9udC1mYW1pbHk9InNhbnMtc2VyaWYiIHk9IjUwNCIgeD0iNTYzIj41PC90ZXh0PjxnPjxyZWN0IGNsYXNzPSJhY3RvciIgcnk9IjMiIHJ4PSIzIiBoZWlnaHQ9IjY1IiB3aWR0aD0iMTUwIiBzdHJva2U9IiM2NjYiIGZpbGw9IiNlYWVhZWEiIHk9IjUyMCIgeD0iMCI+PC9yZWN0Pjx0ZXh0IHN0eWxlPSJ0ZXh0LWFuY2hvcjogbWlkZGxlOyBmb250LXNpemU6IDE0cHg7IGZvbnQtd2VpZ2h0OiA0MDA7IGZvbnQtZmFtaWx5OiBPcGVuLVNhbnMsICZxdW90O3NhbnMtc2VyaWYmcXVvdDs7IiBjbGFzcz0iYWN0b3IiIGFsaWdubWVudC1iYXNlbGluZT0iY2VudHJhbCIgZG9taW5hbnQtYmFzZWxpbmU9ImNlbnRyYWwiIHk9IjU1Mi41IiB4PSI3NSI+PHRzcGFuIGR5PSIwIiB4PSI3NSI+U3R1ZGVudDwvdHNwYW4+PC90ZXh0PjwvZz48Zz48cmVjdCBjbGFzcz0iYWN0b3IiIHJ5PSIzIiByeD0iMyIgaGVpZ2h0PSI2NSIgd2lkdGg9IjE1MCIgc3Ryb2tlPSIjNjY2IiBmaWxsPSIjZWFlYWVhIiB5PSI1MjAiIHg9IjI1NCI+PC9yZWN0Pjx0ZXh0IHN0eWxlPSJ0ZXh0LWFuY2hvcjogbWlkZGxlOyBmb250LXNpemU6IDE0cHg7IGZvbnQtd2VpZ2h0OiA0MDA7IGZvbnQtZmFtaWx5OiBPcGVuLVNhbnMsICZxdW90O3NhbnMtc2VyaWYmcXVvdDs7IiBjbGFzcz0iYWN0b3IiIGFsaWdubWVudC1iYXNlbGluZT0iY2VudHJhbCIgZG9taW5hbnQtYmFzZWxpbmU9ImNlbnRyYWwiIHk9IjU1Mi41IiB4PSIzMjkiPjx0c3BhbiBkeT0iMCIgeD0iMzI5Ij5BZG1pbjwvdHNwYW4+PC90ZXh0PjwvZz48Zz48cmVjdCBjbGFzcz0iYWN0b3IiIHJ5PSIzIiByeD0iMyIgaGVpZ2h0PSI2NSIgd2lkdGg9IjE1MCIgc3Ryb2tlPSIjNjY2IiBmaWxsPSIjZWFlYWVhIiB5PSI1MjAiIHg9IjQ4OCI+PC9yZWN0Pjx0ZXh0IHN0eWxlPSJ0ZXh0LWFuY2hvcjogbWlkZGxlOyBmb250LXNpemU6IDE0cHg7IGZvbnQtd2VpZ2h0OiA0MDA7IGZvbnQtZmFtaWx5OiBPcGVuLVNhbnMsICZxdW90O3NhbnMtc2VyaWYmcXVvdDs7IiBjbGFzcz0iYWN0b3IiIGFsaWdubWVudC1iYXNlbGluZT0iY2VudHJhbCIgZG9taW5hbnQtYmFzZWxpbmU9ImNlbnRyYWwiIHk9IjU1Mi41IiB4PSI1NjMiPjx0c3BhbiBkeT0iMCIgeD0iNTYzIj5Qcm9mZXNzb3I8L3RzcGFuPjwvdGV4dD48L2c+PC9zdmc+;" parent="1" vertex="1">
                        <mxGeometry x="20" y="301.5" width="240" height="210" as="geometry"/>
                    </mxCell>
                </UserObject>
                <UserObject label="" mermaidData="{&#10;  &quot;data&quot;: &quot;pie title Commits to mxgraph2 on GitHub\n\t\&quot;Sunday\&quot; : 4\n\t\&quot;Monday\&quot; : 5\n\t\&quot;Tuesday\&quot; : 7\n  \&quot;Wednesday\&quot; : 3&quot;,&#10;  &quot;config&quot;: {&#10;    &quot;startOnLoad&quot;: false,&#10;    &quot;themeCSS&quot;: &quot;&quot;,&#10;    &quot;theme&quot;: &quot;neutral&quot;,&#10;    &quot;arrowMarkerAbsolute&quot;: false,&#10;    &quot;flowchart&quot;: {&#10;      &quot;diagramPadding&quot;: 8,&#10;      &quot;htmlLabels&quot;: false,&#10;      &quot;nodeSpacing&quot;: 50,&#10;      &quot;rankSpacing&quot;: 50,&#10;      &quot;curve&quot;: &quot;linear&quot;,&#10;      &quot;padding&quot;: 15,&#10;      &quot;useMaxWidth&quot;: true&#10;    },&#10;    &quot;sequence&quot;: {&#10;      &quot;activationWidth&quot;: 10,&#10;      &quot;diagramMarginX&quot;: 50,&#10;      &quot;diagramMarginY&quot;: 10,&#10;      &quot;actorMargin&quot;: 50,&#10;      &quot;width&quot;: 150,&#10;      &quot;height&quot;: 65,&#10;      &quot;boxMargin&quot;: 10,&#10;      &quot;boxTextMargin&quot;: 5,&#10;      &quot;noteMargin&quot;: 10,&#10;      &quot;messageMargin&quot;: 35,&#10;      &quot;messageAlign&quot;: &quot;center&quot;,&#10;      &quot;mirrorActors&quot;: true,&#10;      &quot;bottomMarginAdj&quot;: 1,&#10;      &quot;useMaxWidth&quot;: true,&#10;      &quot;rightAngles&quot;: false,&#10;      &quot;showSequenceNumbers&quot;: false,&#10;      &quot;actorFontSize&quot;: 14,&#10;      &quot;actorFontFamily&quot;: &quot;\&quot;Open-Sans\&quot;, \&quot;sans-serif\&quot;&quot;,&#10;      &quot;actorFontWeight&quot;: 400,&#10;      &quot;noteFontSize&quot;: 14,&#10;      &quot;noteFontFamily&quot;: &quot;\&quot;trebuchet ms\&quot;, verdana, arial&quot;,&#10;      &quot;noteFontWeight&quot;: 400,&#10;      &quot;noteAlign&quot;: &quot;center&quot;,&#10;      &quot;messageFontSize&quot;: 16,&#10;      &quot;messageFontFamily&quot;: &quot;\&quot;trebuchet ms\&quot;, verdana, arial&quot;,&#10;      &quot;messageFontWeight&quot;: 400,&#10;      &quot;wrap&quot;: false,&#10;      &quot;wrapPadding&quot;: 10,&#10;      &quot;labelBoxWidth&quot;: 50,&#10;      &quot;labelBoxHeight&quot;: 20&#10;    },&#10;    &quot;gantt&quot;: {&#10;      &quot;titleTopMargin&quot;: 25,&#10;      &quot;barHeight&quot;: 20,&#10;      &quot;barGap&quot;: 4,&#10;      &quot;topPadding&quot;: 50,&#10;      &quot;leftPadding&quot;: 75,&#10;      &quot;gridLineStartPadding&quot;: 35,&#10;      &quot;fontSize&quot;: 11,&#10;      &quot;fontFamily&quot;: &quot;\&quot;Open-Sans\&quot;, \&quot;sans-serif\&quot;&quot;,&#10;      &quot;numberSectionStyles&quot;: 4,&#10;      &quot;axisFormat&quot;: &quot;%Y-%m-%d&quot;,&#10;      &quot;useMaxWidth&quot;: true&#10;    },&#10;    &quot;journey&quot;: {&#10;      &quot;diagramMarginX&quot;: 50,&#10;      &quot;diagramMarginY&quot;: 10,&#10;      &quot;actorMargin&quot;: 50,&#10;      &quot;width&quot;: 150,&#10;      &quot;height&quot;: 65,&#10;      &quot;boxMargin&quot;: 10,&#10;      &quot;boxTextMargin&quot;: 5,&#10;      &quot;noteMargin&quot;: 10,&#10;      &quot;messageMargin&quot;: 35,&#10;      &quot;messageAlign&quot;: &quot;center&quot;,&#10;      &quot;bottomMarginAdj&quot;: 1,&#10;      &quot;useMaxWidth&quot;: true,&#10;      &quot;rightAngles&quot;: false&#10;    },&#10;    &quot;class&quot;: {&#10;      &quot;arrowMarkerAbsolute&quot;: false,&#10;      &quot;useMaxWidth&quot;: true&#10;    },&#10;    &quot;git&quot;: {&#10;      &quot;arrowMarkerAbsolute&quot;: false,&#10;      &quot;useMaxWidth&quot;: true&#10;    },&#10;    &quot;state&quot;: {&#10;      &quot;dividerMargin&quot;: 10,&#10;      &quot;sizeUnit&quot;: 5,&#10;      &quot;padding&quot;: 8,&#10;      &quot;textHeight&quot;: 10,&#10;      &quot;titleShift&quot;: -15,&#10;      &quot;noteMargin&quot;: 10,&#10;      &quot;forkWidth&quot;: 70,&#10;      &quot;forkHeight&quot;: 7,&#10;      &quot;miniPadding&quot;: 2,&#10;      &quot;fontSizeFactor&quot;: 5.02,&#10;      &quot;fontSize&quot;: 24,&#10;      &quot;labelHeight&quot;: 16,&#10;      &quot;edgeLengthFactor&quot;: &quot;20&quot;,&#10;      &quot;compositTitleSize&quot;: 35,&#10;      &quot;radius&quot;: 5&#10;    },&#10;    &quot;er&quot;: {&#10;      &quot;diagramPadding&quot;: 20,&#10;      &quot;layoutDirection&quot;: &quot;TB&quot;,&#10;      &quot;minEntityWidth&quot;: 100,&#10;      &quot;minEntityHeight&quot;: 75,&#10;      &quot;entityPadding&quot;: 15,&#10;      &quot;stroke&quot;: &quot;grey&quot;,&#10;      &quot;fill&quot;: &quot;honeydew&quot;,&#10;      &quot;fontSize&quot;: 12,&#10;      &quot;useMaxWidth&quot;: true&#10;    },&#10;    &quot;pie&quot;: {&#10;      &quot;useMaxWidth&quot;: true&#10;    }&#10;  }&#10;}" id="15">
                    <mxCell style="shape=image;noLabel=1;verticalAlign=top;imageAspect=1;image=data:image/svg+xml,PHN2ZyB2aWV3Qm94PSIwIDAgODcyIDQ1MCIgYXJpYS1sYWJlbGxlZGJ5PSJjaGFydC10aXRsZS1nZU1lcm1haWRPdXRwdXQtMTczNDYyOTQ3MTIzMyBjaGFydC1kZXNjLWdlTWVybWFpZE91dHB1dC0xNzM0NjI5NDcxMjMzIiByb2xlPSJpbWciIHN0eWxlPSJtYXgtd2lkdGg6IDg3MnB4OyIgaGVpZ2h0PSI0NTAiIHhtbG5zPSJodHRwOi8vd3d3LnczLm9yZy8yMDAwL3N2ZyIgd2lkdGg9IjEwMCUiIGlkPSJnZU1lcm1haWRPdXRwdXQtMTczNDYyOTQ3MTIzMyI+PHRpdGxlIGlkPSJjaGFydC10aXRsZS1nZU1lcm1haWRPdXRwdXQtMTczNDYyOTQ3MTIzMyI+Q29tbWl0cyB0byBteGdyYXBoMiBvbiBHaXRIdWI8L3RpdGxlPjxkZXNjIGlkPSJjaGFydC1kZXNjLWdlTWVybWFpZE91dHB1dC0xNzM0NjI5NDcxMjMzIj48L2Rlc2M+PHN0eWxlPiNnZU1lcm1haWRPdXRwdXQtMTczNDYyOTQ3MTIzMyB7Zm9udC1mYW1pbHk6InRyZWJ1Y2hldCBtcyIsdmVyZGFuYSxhcmlhbCxzYW5zLXNlcmlmO2ZvbnQtc2l6ZToxNnB4O2ZpbGw6IzAwMDAwMDt9I2dlTWVybWFpZE91dHB1dC0xNzM0NjI5NDcxMjMzIC5lcnJvci1pY29ue2ZpbGw6IzU1MjIyMjt9I2dlTWVybWFpZE91dHB1dC0xNzM0NjI5NDcxMjMzIC5lcnJvci10ZXh0e2ZpbGw6IzU1MjIyMjtzdHJva2U6IzU1MjIyMjt9I2dlTWVybWFpZE91dHB1dC0xNzM0NjI5NDcxMjMzIC5lZGdlLXRoaWNrbmVzcy1ub3JtYWx7c3Ryb2tlLXdpZHRoOjJweDt9I2dlTWVybWFpZE91dHB1dC0xNzM0NjI5NDcxMjMzIC5lZGdlLXRoaWNrbmVzcy10aGlja3tzdHJva2Utd2lkdGg6My41cHg7fSNnZU1lcm1haWRPdXRwdXQtMTczNDYyOTQ3MTIzMyAuZWRnZS1wYXR0ZXJuLXNvbGlke3N0cm9rZS1kYXNoYXJyYXk6MDt9I2dlTWVybWFpZE91dHB1dC0xNzM0NjI5NDcxMjMzIC5lZGdlLXBhdHRlcm4tZGFzaGVke3N0cm9rZS1kYXNoYXJyYXk6Mzt9I2dlTWVybWFpZE91dHB1dC0xNzM0NjI5NDcxMjMzIC5lZGdlLXBhdHRlcm4tZG90dGVke3N0cm9rZS1kYXNoYXJyYXk6Mjt9I2dlTWVybWFpZE91dHB1dC0xNzM0NjI5NDcxMjMzIC5tYXJrZXJ7ZmlsbDojNjY2O3N0cm9rZTojNjY2O30jZ2VNZXJtYWlkT3V0cHV0LTE3MzQ2Mjk0NzEyMzMgLm1hcmtlci5jcm9zc3tzdHJva2U6IzY2Njt9I2dlTWVybWFpZE91dHB1dC0xNzM0NjI5NDcxMjMzIHN2Z3tmb250LWZhbWlseToidHJlYnVjaGV0IG1zIix2ZXJkYW5hLGFyaWFsLHNhbnMtc2VyaWY7Zm9udC1zaXplOjE2cHg7fSNnZU1lcm1haWRPdXRwdXQtMTczNDYyOTQ3MTIzMyAucGllQ2lyY2xle3N0cm9rZTpibGFjaztzdHJva2Utd2lkdGg6MnB4O29wYWNpdHk6MC43O30jZ2VNZXJtYWlkT3V0cHV0LTE3MzQ2Mjk0NzEyMzMgLnBpZVRpdGxlVGV4dHt0ZXh0LWFuY2hvcjptaWRkbGU7Zm9udC1zaXplOjI1cHg7ZmlsbDojMzMzO2ZvbnQtZmFtaWx5OiJ0cmVidWNoZXQgbXMiLHZlcmRhbmEsYXJpYWwsc2Fucy1zZXJpZjt9I2dlTWVybWFpZE91dHB1dC0xNzM0NjI5NDcxMjMzIC5zbGljZXtmb250LWZhbWlseToidHJlYnVjaGV0IG1zIix2ZXJkYW5hLGFyaWFsLHNhbnMtc2VyaWY7ZmlsbDojMDAwMDAwO2ZvbnQtc2l6ZToxN3B4O30jZ2VNZXJtYWlkT3V0cHV0LTE3MzQ2Mjk0NzEyMzMgLmxlZ2VuZCB0ZXh0e2ZpbGw6IzMzMztmb250LWZhbWlseToidHJlYnVjaGV0IG1zIix2ZXJkYW5hLGFyaWFsLHNhbnMtc2VyaWY7Zm9udC1zaXplOjE3cHg7fSNnZU1lcm1haWRPdXRwdXQtMTczNDYyOTQ3MTIzMyA6cm9vdHstLW1lcm1haWQtZm9udC1mYW1pbHk6InRyZWJ1Y2hldCBtcyIsdmVyZGFuYSxhcmlhbCxzYW5zLXNlcmlmO308L3N0eWxlPjxnPjwvZz48ZyB0cmFuc2Zvcm09InRyYW5zbGF0ZSg0MzYsMjI1KSI+PHBhdGggY2xhc3M9InBpZUNpcmNsZSIgZmlsbD0iI0Y0RjRGNCIgZD0iTS0xMzYuMTA4OTIzNDc0NTI5MywxMjUuMjk3MDkwNzUwNzYyMTdBMTg1LDE4NSwwLDAsMSwtMTU0Ljg3NTc5ODQ3ODU2NzgyLC0xMDEuMTg1NDA5MjUyNjQ4OTJMMCwwWiI+PC9wYXRoPjxwYXRoIGNsYXNzPSJwaWVDaXJjbGUiIGZpbGw9IiM1NTUiIGQ9Ik0xMzYuMTA4OTIzNDc0NTI5MzgsMTI1LjI5NzA5MDc1MDc2MjA4QTE4NSwxODUsMCwwLDEsLTEzNi4xMDg5MjM0NzQ1MjkzLDEyNS4yOTcwOTA3NTA3NjIxN0wwLDBaIj48L3BhdGg+PHBhdGggY2xhc3M9InBpZUNpcmNsZSIgZmlsbD0iI0JCQiIgZD0iTTEuMTMyNzk4Mjg5MjExMzAxN2UtMTQsLTE4NUExODUsMTg1LDAsMCwxLDEzNi4xMDg5MjM0NzQ1MjkzOCwxMjUuMjk3MDkwNzUwNzYyMDhMMCwwWiI+PC9wYXRoPjxwYXRoIGNsYXNzPSJwaWVDaXJjbGUiIGZpbGw9IiM3NzciIGQ9Ik0tMTU0Ljg3NTc5ODQ3ODU2NzgyLC0xMDEuMTg1NDA5MjUyNjQ4OTJBMTg1LDE4NSwwLDAsMSwtMy4zOTgzOTQ4Njc2MzM5MDVlLTE0LC0xODVMMCwwWiI+PC9wYXRoPjx0ZXh0IHN0eWxlPSJ0ZXh0LWFuY2hvcjogbWlkZGxlOyIgY2xhc3M9InNsaWNlIiB0cmFuc2Zvcm09InRyYW5zbGF0ZSgtOTIuMTg0MDY1NjAzMTE2OTYsNy42Mzg1ODk0NTYxOTA3NzIpIj4yMSU8L3RleHQ+PHRleHQgc3R5bGU9InRleHQtYW5jaG9yOiBtaWRkbGU7IiBjbGFzcz0ic2xpY2UiIHRyYW5zZm9ybT0idHJhbnNsYXRlKDUuNjYzOTkxNDQ2MDU2NTA4NWUtMTUsOTIuNSkiPjI2JTwvdGV4dD48dGV4dCBzdHlsZT0idGV4dC1hbmNob3I6IG1pZGRsZTsiIGNsYXNzPSJzbGljZSIgdHJhbnNmb3JtPSJ0cmFuc2xhdGUoODQuNzA5MDMyNzE1NTkyODEsLTM3LjE1NjgyNjc4MDM5OTY3NikiPjM3JTwvdGV4dD48dGV4dCBzdHlsZT0idGV4dC1hbmNob3I6IG1pZGRsZTsiIGNsYXNzPSJzbGljZSIgdHJhbnNmb3JtPSJ0cmFuc2xhdGUoLTQ0LjAyNTEzMzg1NTkyOTI4LC04MS4zNTEzMjE5ODY2MDAyNSkiPjE2JTwvdGV4dD48dGV4dCBjbGFzcz0icGllVGl0bGVUZXh0IiB5PSItMjAwIiB4PSIwIj5Db21taXRzIHRvIG14Z3JhcGgyIG9uIEdpdEh1YjwvdGV4dD48ZyB0cmFuc2Zvcm09InRyYW5zbGF0ZSgyMTYsLTQ0KSIgY2xhc3M9ImxlZ2VuZCI+PHJlY3Qgc3R5bGU9ImZpbGw6IHJnYigyNDQsIDI0NCwgMjQ0KTsgc3Ryb2tlOiByZ2IoMjQ0LCAyNDQsIDI0NCk7IiBoZWlnaHQ9IjE4IiB3aWR0aD0iMTgiPjwvcmVjdD48dGV4dCB5PSIxNCIgeD0iMjIiPlN1bmRheTwvdGV4dD48L2c+PGcgdHJhbnNmb3JtPSJ0cmFuc2xhdGUoMjE2LC0yMikiIGNsYXNzPSJsZWdlbmQiPjxyZWN0IHN0eWxlPSJmaWxsOiByZ2IoODUsIDg1LCA4NSk7IHN0cm9rZTogcmdiKDg1LCA4NSwgODUpOyIgaGVpZ2h0PSIxOCIgd2lkdGg9IjE4Ij48L3JlY3Q+PHRleHQgeT0iMTQiIHg9IjIyIj5Nb25kYXk8L3RleHQ+PC9nPjxnIHRyYW5zZm9ybT0idHJhbnNsYXRlKDIxNiwwKSIgY2xhc3M9ImxlZ2VuZCI+PHJlY3Qgc3R5bGU9ImZpbGw6IHJnYigxODcsIDE4NywgMTg3KTsgc3Ryb2tlOiByZ2IoMTg3LCAxODcsIDE4Nyk7IiBoZWlnaHQ9IjE4IiB3aWR0aD0iMTgiPjwvcmVjdD48dGV4dCB5PSIxNCIgeD0iMjIiPlR1ZXNkYXk8L3RleHQ+PC9nPjxnIHRyYW5zZm9ybT0idHJhbnNsYXRlKDIxNiwyMikiIGNsYXNzPSJsZWdlbmQiPjxyZWN0IHN0eWxlPSJmaWxsOiByZ2IoMTE5LCAxMTksIDExOSk7IHN0cm9rZTogcmdiKDExOSwgMTE5LCAxMTkpOyIgaGVpZ2h0PSIxOCIgd2lkdGg9IjE4Ij48L3JlY3Q+PHRleHQgeT0iMTQiIHg9IjIyIj5XZWRuZXNkYXk8L3RleHQ+PC9nPjwvZz48L3N2Zz4=;" parent="1" vertex="1">
                        <mxGeometry x="120" y="170" width="120" height="101.5" as="geometry"/>
                    </mxCell>
                </UserObject>
            </root>
        </mxGraphModel>
    </diagram>
</mxfile>